G75*
G70*
%OFA0B0*%
%FSLAX24Y24*%
%IPPOS*%
%LPD*%
%AMOC8*
5,1,8,0,0,1.08239X$1,22.5*
%
%ADD10C,0.0000*%
%ADD11C,0.0070*%
%ADD12R,0.0161X0.0002*%
%ADD13R,0.0161X0.0002*%
%ADD14R,0.0200X0.0002*%
%ADD15R,0.0200X0.0002*%
%ADD16R,0.0227X0.0002*%
%ADD17R,0.0227X0.0002*%
%ADD18R,0.0257X0.0002*%
%ADD19R,0.0278X0.0002*%
%ADD20R,0.0278X0.0002*%
%ADD21R,0.0292X0.0002*%
%ADD22R,0.0292X0.0002*%
%ADD23R,0.0312X0.0002*%
%ADD24R,0.0322X0.0002*%
%ADD25R,0.0322X0.0002*%
%ADD26R,0.0331X0.0002*%
%ADD27R,0.0331X0.0002*%
%ADD28R,0.0344X0.0002*%
%ADD29R,0.0358X0.0002*%
%ADD30R,0.0358X0.0002*%
%ADD31R,0.0363X0.0002*%
%ADD32R,0.0363X0.0002*%
%ADD33R,0.0372X0.0002*%
%ADD34R,0.0372X0.0002*%
%ADD35R,0.0386X0.0002*%
%ADD36R,0.0395X0.0002*%
%ADD37R,0.0395X0.0002*%
%ADD38R,0.0404X0.0002*%
%ADD39R,0.0404X0.0002*%
%ADD40R,0.0409X0.0002*%
%ADD41R,0.0418X0.0002*%
%ADD42R,0.0418X0.0002*%
%ADD43R,0.0427X0.0002*%
%ADD44R,0.0427X0.0002*%
%ADD45R,0.0436X0.0002*%
%ADD46R,0.0441X0.0002*%
%ADD47R,0.0441X0.0002*%
%ADD48R,0.0446X0.0002*%
%ADD49R,0.0446X0.0002*%
%ADD50R,0.0450X0.0002*%
%ADD51R,0.0450X0.0002*%
%ADD52R,0.0459X0.0002*%
%ADD53R,0.0459X0.0002*%
%ADD54R,0.0209X0.0002*%
%ADD55R,0.0239X0.0002*%
%ADD56R,0.0209X0.0002*%
%ADD57R,0.0239X0.0002*%
%ADD58R,0.0200X0.0002*%
%ADD59R,0.0225X0.0002*%
%ADD60R,0.0200X0.0002*%
%ADD61R,0.0225X0.0002*%
%ADD62R,0.0191X0.0002*%
%ADD63R,0.0214X0.0002*%
%ADD64R,0.0191X0.0002*%
%ADD65R,0.0214X0.0002*%
%ADD66R,0.0181X0.0002*%
%ADD67R,0.0209X0.0002*%
%ADD68R,0.0181X0.0002*%
%ADD69R,0.0181X0.0002*%
%ADD70R,0.0175X0.0002*%
%ADD71R,0.0191X0.0002*%
%ADD72R,0.0175X0.0002*%
%ADD73R,0.0191X0.0002*%
%ADD74R,0.0170X0.0002*%
%ADD75R,0.0165X0.0002*%
%ADD76R,0.0165X0.0002*%
%ADD77R,0.0170X0.0002*%
%ADD78R,0.0170X0.0002*%
%ADD79R,0.0156X0.0002*%
%ADD80R,0.0156X0.0002*%
%ADD81R,0.0161X0.0002*%
%ADD82R,0.0161X0.0002*%
%ADD83R,0.0152X0.0002*%
%ADD84R,0.0152X0.0002*%
%ADD85R,0.0145X0.0002*%
%ADD86R,0.0147X0.0002*%
%ADD87R,0.0145X0.0002*%
%ADD88R,0.0147X0.0002*%
%ADD89R,0.0140X0.0002*%
%ADD90R,0.0140X0.0002*%
%ADD91R,0.0140X0.0002*%
%ADD92R,0.0140X0.0002*%
%ADD93R,0.0136X0.0002*%
%ADD94R,0.0136X0.0002*%
%ADD95R,0.0131X0.0002*%
%ADD96R,0.0131X0.0002*%
%ADD97R,0.0126X0.0002*%
%ADD98R,0.0126X0.0002*%
%ADD99R,0.0117X0.0002*%
%ADD100R,0.0117X0.0002*%
%ADD101R,0.0110X0.0002*%
%ADD102R,0.0110X0.0002*%
%ADD103R,0.0096X0.0002*%
%ADD104R,0.0064X0.0002*%
%ADD105R,0.0064X0.0002*%
%ADD106R,0.0071X0.0002*%
%ADD107R,0.0078X0.0002*%
%ADD108R,0.0087X0.0002*%
%ADD109R,0.0062X0.0002*%
%ADD110R,0.0071X0.0002*%
%ADD111R,0.0078X0.0002*%
%ADD112R,0.0087X0.0002*%
%ADD113R,0.0062X0.0002*%
%ADD114R,0.0090X0.0002*%
%ADD115R,0.0083X0.0002*%
%ADD116R,0.0092X0.0002*%
%ADD117R,0.0076X0.0002*%
%ADD118R,0.0090X0.0002*%
%ADD119R,0.0083X0.0002*%
%ADD120R,0.0092X0.0002*%
%ADD121R,0.0076X0.0002*%
%ADD122R,0.0094X0.0002*%
%ADD123R,0.0096X0.0002*%
%ADD124R,0.0080X0.0002*%
%ADD125R,0.0094X0.0002*%
%ADD126R,0.0080X0.0002*%
%ADD127R,0.0099X0.0002*%
%ADD128R,0.0101X0.0002*%
%ADD129R,0.0087X0.0002*%
%ADD130R,0.0099X0.0002*%
%ADD131R,0.0101X0.0002*%
%ADD132R,0.0087X0.0002*%
%ADD133R,0.0106X0.0002*%
%ADD134R,0.0106X0.0002*%
%ADD135R,0.0106X0.0002*%
%ADD136R,0.0106X0.0002*%
%ADD137R,0.0115X0.0002*%
%ADD138R,0.0115X0.0002*%
%ADD139R,0.0103X0.0002*%
%ADD140R,0.0113X0.0002*%
%ADD141R,0.0103X0.0002*%
%ADD142R,0.0113X0.0002*%
%ADD143R,0.0119X0.0002*%
%ADD144R,0.0103X0.0002*%
%ADD145R,0.0119X0.0002*%
%ADD146R,0.0103X0.0002*%
%ADD147R,0.0122X0.0002*%
%ADD148R,0.0149X0.0002*%
%ADD149R,0.0122X0.0002*%
%ADD150R,0.0149X0.0002*%
%ADD151R,0.0108X0.0002*%
%ADD152R,0.0108X0.0002*%
%ADD153R,0.0131X0.0002*%
%ADD154R,0.0108X0.0002*%
%ADD155R,0.0131X0.0002*%
%ADD156R,0.0108X0.0002*%
%ADD157R,0.0138X0.0002*%
%ADD158R,0.0138X0.0002*%
%ADD159R,0.0142X0.0002*%
%ADD160R,0.0154X0.0002*%
%ADD161R,0.0142X0.0002*%
%ADD162R,0.0158X0.0002*%
%ADD163R,0.0158X0.0002*%
%ADD164R,0.0156X0.0002*%
%ADD165R,0.0156X0.0002*%
%ADD166R,0.0170X0.0002*%
%ADD167R,0.0175X0.0002*%
%ADD168R,0.0175X0.0002*%
%ADD169R,0.0184X0.0002*%
%ADD170R,0.0124X0.0002*%
%ADD171R,0.0184X0.0002*%
%ADD172R,0.0124X0.0002*%
%ADD173R,0.0195X0.0002*%
%ADD174R,0.0195X0.0002*%
%ADD175R,0.0122X0.0002*%
%ADD176R,0.0122X0.0002*%
%ADD177R,0.0204X0.0002*%
%ADD178R,0.0204X0.0002*%
%ADD179R,0.0204X0.0002*%
%ADD180R,0.0204X0.0002*%
%ADD181R,0.0209X0.0002*%
%ADD182R,0.0223X0.0002*%
%ADD183R,0.0218X0.0002*%
%ADD184R,0.0223X0.0002*%
%ADD185R,0.0218X0.0002*%
%ADD186R,0.0232X0.0002*%
%ADD187R,0.0223X0.0002*%
%ADD188R,0.0232X0.0002*%
%ADD189R,0.0223X0.0002*%
%ADD190R,0.0126X0.0002*%
%ADD191R,0.0126X0.0002*%
%ADD192R,0.0243X0.0002*%
%ADD193R,0.0248X0.0002*%
%ADD194R,0.0243X0.0002*%
%ADD195R,0.0248X0.0002*%
%ADD196R,0.0243X0.0002*%
%ADD197R,0.0253X0.0002*%
%ADD198R,0.0253X0.0002*%
%ADD199R,0.0262X0.0002*%
%ADD200R,0.0237X0.0002*%
%ADD201R,0.0135X0.0002*%
%ADD202R,0.0266X0.0002*%
%ADD203R,0.0237X0.0002*%
%ADD204R,0.0262X0.0002*%
%ADD205R,0.0266X0.0002*%
%ADD206R,0.0276X0.0002*%
%ADD207R,0.0269X0.0002*%
%ADD208R,0.0276X0.0002*%
%ADD209R,0.0269X0.0002*%
%ADD210R,0.0287X0.0002*%
%ADD211R,0.0255X0.0002*%
%ADD212R,0.0260X0.0002*%
%ADD213R,0.0282X0.0002*%
%ADD214R,0.0260X0.0002*%
%ADD215R,0.0282X0.0002*%
%ADD216R,0.0296X0.0002*%
%ADD217R,0.0296X0.0002*%
%ADD218R,0.0305X0.0002*%
%ADD219R,0.0273X0.0002*%
%ADD220R,0.0301X0.0002*%
%ADD221R,0.0305X0.0002*%
%ADD222R,0.0273X0.0002*%
%ADD223R,0.0301X0.0002*%
%ADD224R,0.0317X0.0002*%
%ADD225R,0.0287X0.0002*%
%ADD226R,0.0317X0.0002*%
%ADD227R,0.0287X0.0002*%
%ADD228R,0.0354X0.0002*%
%ADD229R,0.0310X0.0002*%
%ADD230R,0.0340X0.0002*%
%ADD231R,0.0354X0.0002*%
%ADD232R,0.0310X0.0002*%
%ADD233R,0.0340X0.0002*%
%ADD234R,0.0326X0.0002*%
%ADD235R,0.0349X0.0002*%
%ADD236R,0.0326X0.0002*%
%ADD237R,0.0349X0.0002*%
%ADD238R,0.0374X0.0002*%
%ADD239R,0.0335X0.0002*%
%ADD240R,0.0370X0.0002*%
%ADD241R,0.0179X0.0002*%
%ADD242R,0.0395X0.0002*%
%ADD243R,0.0344X0.0002*%
%ADD244R,0.0379X0.0002*%
%ADD245R,0.0179X0.0002*%
%ADD246R,0.0395X0.0002*%
%ADD247R,0.0379X0.0002*%
%ADD248R,0.0186X0.0002*%
%ADD249R,0.0356X0.0002*%
%ADD250R,0.0390X0.0002*%
%ADD251R,0.0186X0.0002*%
%ADD252R,0.0356X0.0002*%
%ADD253R,0.0390X0.0002*%
%ADD254R,0.0365X0.0002*%
%ADD255R,0.0365X0.0002*%
%ADD256R,0.0195X0.0002*%
%ADD257R,0.0393X0.0002*%
%ADD258R,0.0432X0.0002*%
%ADD259R,0.0393X0.0002*%
%ADD260R,0.0432X0.0002*%
%ADD261R,0.0469X0.0002*%
%ADD262R,0.0409X0.0002*%
%ADD263R,0.0452X0.0002*%
%ADD264R,0.0469X0.0002*%
%ADD265R,0.0409X0.0002*%
%ADD266R,0.0452X0.0002*%
%ADD267R,0.0482X0.0002*%
%ADD268R,0.0471X0.0002*%
%ADD269R,0.0220X0.0002*%
%ADD270R,0.0505X0.0002*%
%ADD271R,0.0448X0.0002*%
%ADD272R,0.0491X0.0002*%
%ADD273R,0.0220X0.0002*%
%ADD274R,0.0505X0.0002*%
%ADD275R,0.0448X0.0002*%
%ADD276R,0.0491X0.0002*%
%ADD277R,0.0230X0.0002*%
%ADD278R,0.0533X0.0002*%
%ADD279R,0.0475X0.0002*%
%ADD280R,0.0230X0.0002*%
%ADD281R,0.0533X0.0002*%
%ADD282R,0.0475X0.0002*%
%ADD283R,0.0519X0.0002*%
%ADD284R,0.0519X0.0002*%
%ADD285R,0.0565X0.0002*%
%ADD286R,0.0549X0.0002*%
%ADD287R,0.0565X0.0002*%
%ADD288R,0.0549X0.0002*%
%ADD289R,0.0611X0.0002*%
%ADD290R,0.0549X0.0002*%
%ADD291R,0.0593X0.0002*%
%ADD292R,0.2349X0.0002*%
%ADD293R,0.2349X0.0002*%
%ADD294R,0.2343X0.0002*%
%ADD295R,0.2336X0.0002*%
%ADD296R,0.2336X0.0002*%
%ADD297R,0.2331X0.0002*%
%ADD298R,0.2331X0.0002*%
%ADD299R,0.2326X0.0002*%
%ADD300R,0.2322X0.0002*%
%ADD301R,0.2322X0.0002*%
%ADD302R,0.2317X0.0002*%
%ADD303R,0.2317X0.0002*%
%ADD304R,0.2313X0.0002*%
%ADD305R,0.2313X0.0002*%
%ADD306R,0.2308X0.0002*%
%ADD307R,0.2308X0.0002*%
%ADD308R,0.2303X0.0002*%
%ADD309R,0.2303X0.0002*%
%ADD310R,0.2299X0.0002*%
%ADD311R,0.2299X0.0002*%
%ADD312R,0.2294X0.0002*%
%ADD313R,0.2294X0.0002*%
%ADD314R,0.2290X0.0002*%
%ADD315R,0.2290X0.0002*%
%ADD316R,0.2281X0.0002*%
%ADD317R,0.2281X0.0002*%
%ADD318R,0.2271X0.0002*%
%ADD319R,0.2271X0.0002*%
%ADD320R,0.2264X0.0002*%
%ADD321R,0.2260X0.0002*%
%ADD322R,0.2260X0.0002*%
%ADD323R,0.2255X0.0002*%
%ADD324R,0.2255X0.0002*%
%ADD325R,0.2251X0.0002*%
%ADD326R,0.2251X0.0002*%
%ADD327R,0.2246X0.0002*%
%ADD328R,0.2239X0.0002*%
%ADD329R,0.2239X0.0002*%
%ADD330R,0.2235X0.0002*%
%ADD331R,0.2235X0.0002*%
%ADD332R,0.2230X0.0002*%
%ADD333R,0.2225X0.0002*%
%ADD334R,0.2225X0.0002*%
%ADD335R,0.2221X0.0002*%
%ADD336R,0.2221X0.0002*%
%ADD337R,0.2212X0.0002*%
%ADD338R,0.2212X0.0002*%
%ADD339R,0.2202X0.0002*%
%ADD340R,0.2202X0.0002*%
%ADD341R,0.2198X0.0002*%
%ADD342R,0.2198X0.0002*%
%ADD343R,0.2193X0.0002*%
%ADD344R,0.2186X0.0002*%
%ADD345R,0.2186X0.0002*%
%ADD346R,0.2182X0.0002*%
%ADD347R,0.2182X0.0002*%
%ADD348R,0.2173X0.0002*%
%ADD349R,0.2173X0.0002*%
%ADD350R,0.2168X0.0002*%
%ADD351R,0.2163X0.0002*%
%ADD352R,0.2163X0.0002*%
%ADD353R,0.2152X0.0002*%
%ADD354R,0.2152X0.0002*%
%ADD355R,0.2143X0.0002*%
%ADD356R,0.2143X0.0002*%
%ADD357R,0.2134X0.0002*%
%ADD358R,0.2134X0.0002*%
%ADD359R,0.2124X0.0002*%
%ADD360R,0.2124X0.0002*%
%ADD361R,0.2115X0.0002*%
%ADD362R,0.2115X0.0002*%
%ADD363R,0.2111X0.0002*%
%ADD364R,0.2106X0.0002*%
%ADD365R,0.2106X0.0002*%
%ADD366R,0.2097X0.0002*%
%ADD367R,0.2097X0.0002*%
%ADD368R,0.2085X0.0002*%
%ADD369R,0.2085X0.0002*%
%ADD370R,0.2074X0.0002*%
%ADD371R,0.2074X0.0002*%
%ADD372R,0.2065X0.0002*%
%ADD373R,0.2065X0.0002*%
%ADD374R,0.2055X0.0002*%
%ADD375R,0.2046X0.0002*%
%ADD376R,0.2046X0.0002*%
%ADD377R,0.2037X0.0002*%
%ADD378R,0.2037X0.0002*%
%ADD379R,0.2028X0.0002*%
%ADD380R,0.2019X0.0002*%
%ADD381R,0.2019X0.0002*%
%ADD382R,0.2007X0.0002*%
%ADD383R,0.2007X0.0002*%
%ADD384R,0.1996X0.0002*%
%ADD385R,0.1991X0.0002*%
%ADD386R,0.1991X0.0002*%
%ADD387R,0.1987X0.0002*%
%ADD388R,0.1987X0.0002*%
%ADD389R,0.1977X0.0002*%
%ADD390R,0.1977X0.0002*%
%ADD391R,0.1968X0.0002*%
%ADD392R,0.1959X0.0002*%
%ADD393R,0.1959X0.0002*%
%ADD394R,0.1950X0.0002*%
%ADD395R,0.1950X0.0002*%
%ADD396R,0.1941X0.0002*%
%ADD397R,0.1929X0.0002*%
%ADD398R,0.1929X0.0002*%
%ADD399R,0.1920X0.0002*%
%ADD400R,0.1920X0.0002*%
%ADD401R,0.1908X0.0002*%
%ADD402R,0.1899X0.0002*%
%ADD403R,0.1899X0.0002*%
%ADD404R,0.1890X0.0002*%
%ADD405R,0.1890X0.0002*%
%ADD406R,0.1881X0.0002*%
%ADD407R,0.1881X0.0002*%
%ADD408R,0.1872X0.0002*%
%ADD409R,0.1858X0.0002*%
%ADD410R,0.1858X0.0002*%
%ADD411R,0.1846X0.0002*%
%ADD412R,0.1846X0.0002*%
%ADD413R,0.1837X0.0002*%
%ADD414R,0.1828X0.0002*%
%ADD415R,0.1828X0.0002*%
%ADD416R,0.1817X0.0002*%
%ADD417R,0.1817X0.0002*%
%ADD418R,0.1807X0.0002*%
%ADD419R,0.1789X0.0002*%
%ADD420R,0.1789X0.0002*%
%ADD421R,0.1780X0.0002*%
%ADD422R,0.1780X0.0002*%
%ADD423R,0.1771X0.0002*%
%ADD424R,0.1771X0.0002*%
%ADD425R,0.1761X0.0002*%
%ADD426R,0.1750X0.0002*%
%ADD427R,0.1750X0.0002*%
%ADD428R,0.1729X0.0002*%
%ADD429R,0.1729X0.0002*%
%ADD430R,0.1720X0.0002*%
%ADD431R,0.1711X0.0002*%
%ADD432R,0.1711X0.0002*%
%ADD433R,0.1697X0.0002*%
%ADD434R,0.1697X0.0002*%
%ADD435R,0.1683X0.0002*%
%ADD436R,0.1683X0.0002*%
%ADD437R,0.1674X0.0002*%
%ADD438R,0.1656X0.0002*%
%ADD439R,0.1656X0.0002*%
%ADD440R,0.1642X0.0002*%
%ADD441R,0.1642X0.0002*%
%ADD442R,0.1633X0.0002*%
%ADD443R,0.1619X0.0002*%
%ADD444R,0.1619X0.0002*%
%ADD445R,0.1605X0.0002*%
%ADD446R,0.1605X0.0002*%
%ADD447R,0.1589X0.0002*%
%ADD448R,0.1589X0.0002*%
%ADD449R,0.1578X0.0002*%
%ADD450R,0.1559X0.0002*%
%ADD451R,0.1559X0.0002*%
%ADD452R,0.1550X0.0002*%
%ADD453R,0.1550X0.0002*%
%ADD454R,0.1532X0.0002*%
%ADD455R,0.1523X0.0002*%
%ADD456R,0.1523X0.0002*%
%ADD457R,0.1509X0.0002*%
%ADD458R,0.1509X0.0002*%
%ADD459R,0.1486X0.0002*%
%ADD460R,0.1472X0.0002*%
%ADD461R,0.1472X0.0002*%
%ADD462R,0.1458X0.0002*%
%ADD463R,0.1458X0.0002*%
%ADD464R,0.1440X0.0002*%
%ADD465R,0.1440X0.0002*%
%ADD466R,0.1431X0.0002*%
%ADD467R,0.1408X0.0002*%
%ADD468R,0.1408X0.0002*%
%ADD469R,0.1389X0.0002*%
%ADD470R,0.1389X0.0002*%
%ADD471R,0.1376X0.0002*%
%ADD472R,0.1357X0.0002*%
%ADD473R,0.1357X0.0002*%
%ADD474R,0.1337X0.0002*%
%ADD475R,0.1337X0.0002*%
%ADD476R,0.1318X0.0002*%
%ADD477R,0.1298X0.0002*%
%ADD478R,0.1298X0.0002*%
%ADD479R,0.1279X0.0002*%
%ADD480R,0.1279X0.0002*%
%ADD481R,0.1259X0.0002*%
%ADD482R,0.1259X0.0002*%
%ADD483R,0.1240X0.0002*%
%ADD484R,0.1219X0.0002*%
%ADD485R,0.1219X0.0002*%
%ADD486R,0.1201X0.0002*%
%ADD487R,0.1201X0.0002*%
%ADD488R,0.1176X0.0002*%
%ADD489R,0.1157X0.0002*%
%ADD490R,0.1157X0.0002*%
%ADD491R,0.1132X0.0002*%
%ADD492R,0.1132X0.0002*%
%ADD493R,0.1109X0.0002*%
%ADD494R,0.1109X0.0002*%
%ADD495R,0.1084X0.0002*%
%ADD496R,0.1059X0.0002*%
%ADD497R,0.1059X0.0002*%
%ADD498R,0.1031X0.0002*%
%ADD499R,0.1031X0.0002*%
%ADD500R,0.1010X0.0002*%
%ADD501R,0.0983X0.0002*%
%ADD502R,0.0983X0.0002*%
%ADD503R,0.0953X0.0002*%
%ADD504R,0.0953X0.0002*%
%ADD505R,0.0923X0.0002*%
%ADD506R,0.0893X0.0002*%
%ADD507R,0.0893X0.0002*%
%ADD508R,0.0854X0.0002*%
%ADD509R,0.0854X0.0002*%
%ADD510R,0.0827X0.0002*%
%ADD511R,0.0827X0.0002*%
%ADD512R,0.0788X0.0002*%
%ADD513R,0.0753X0.0002*%
%ADD514R,0.0753X0.0002*%
%ADD515R,0.0710X0.0002*%
%ADD516R,0.0710X0.0002*%
%ADD517R,0.0671X0.0002*%
%ADD518R,0.0632X0.0002*%
%ADD519R,0.0632X0.0002*%
%ADD520R,0.0583X0.0002*%
%ADD521R,0.0583X0.0002*%
%ADD522R,0.0531X0.0002*%
%ADD523R,0.0531X0.0002*%
%ADD524R,0.0471X0.0002*%
%ADD525R,0.0406X0.0002*%
%ADD526R,0.0406X0.0002*%
%ADD527R,0.0328X0.0002*%
%ADD528R,0.0328X0.0002*%
%ADD529R,0.0092X0.0002*%
%ADD530R,0.0004X0.0004*%
%ADD531R,0.0008X0.0004*%
%ADD532R,0.0017X0.0004*%
%ADD533R,0.0030X0.0004*%
%ADD534R,0.0034X0.0004*%
%ADD535R,0.0042X0.0004*%
%ADD536R,0.0047X0.0004*%
%ADD537R,0.0059X0.0004*%
%ADD538R,0.0059X0.0004*%
%ADD539R,0.0068X0.0004*%
%ADD540R,0.0072X0.0004*%
%ADD541R,0.0085X0.0004*%
%ADD542R,0.0085X0.0004*%
%ADD543R,0.0098X0.0004*%
%ADD544R,0.0102X0.0004*%
%ADD545R,0.0106X0.0004*%
%ADD546R,0.0119X0.0004*%
%ADD547R,0.0119X0.0004*%
%ADD548R,0.0127X0.0004*%
%ADD549R,0.0131X0.0004*%
%ADD550R,0.0140X0.0004*%
%ADD551R,0.0144X0.0004*%
%ADD552R,0.0153X0.0004*%
%ADD553R,0.0157X0.0004*%
%ADD554R,0.0165X0.0004*%
%ADD555R,0.0170X0.0004*%
%ADD556R,0.0174X0.0004*%
%ADD557R,0.0178X0.0004*%
%ADD558R,0.0182X0.0004*%
%ADD559R,0.0191X0.0004*%
%ADD560R,0.0195X0.0004*%
%ADD561R,0.0199X0.0004*%
%ADD562R,0.0204X0.0004*%
%ADD563R,0.0208X0.0004*%
%ADD564R,0.0216X0.0004*%
%ADD565R,0.0225X0.0004*%
%ADD566R,0.0233X0.0004*%
%ADD567R,0.0246X0.0004*%
%ADD568R,0.0254X0.0004*%
%ADD569R,0.0267X0.0004*%
%ADD570R,0.0276X0.0004*%
%ADD571R,0.0144X0.0004*%
%ADD572R,0.0284X0.0004*%
%ADD573R,0.0123X0.0004*%
%ADD574R,0.0148X0.0004*%
%ADD575R,0.0136X0.0004*%
%ADD576R,0.0131X0.0004*%
%ADD577R,0.0127X0.0004*%
%ADD578R,0.0119X0.0004*%
%ADD579R,0.0140X0.0004*%
%ADD580R,0.0025X0.0004*%
%ADD581R,0.0127X0.0004*%
%ADD582R,0.0025X0.0004*%
%ADD583R,0.0114X0.0004*%
%ADD584R,0.0038X0.0004*%
%ADD585R,0.0055X0.0004*%
%ADD586R,0.0114X0.0004*%
%ADD587R,0.0076X0.0004*%
%ADD588R,0.0064X0.0004*%
%ADD589R,0.0140X0.0004*%
%ADD590R,0.0089X0.0004*%
%ADD591R,0.0072X0.0004*%
%ADD592R,0.0093X0.0004*%
%ADD593R,0.0102X0.0004*%
%ADD594R,0.0110X0.0004*%
%ADD595R,0.0314X0.0004*%
%ADD596R,0.0309X0.0004*%
%ADD597R,0.0114X0.0004*%
%ADD598R,0.0309X0.0004*%
%ADD599R,0.0310X0.0004*%
%ADD600R,0.0305X0.0004*%
%ADD601R,0.0301X0.0004*%
%ADD602R,0.0297X0.0004*%
%ADD603R,0.0293X0.0004*%
%ADD604R,0.0288X0.0004*%
%ADD605R,0.0297X0.0004*%
%ADD606R,0.0280X0.0004*%
%ADD607R,0.0284X0.0004*%
%ADD608R,0.0280X0.0004*%
%ADD609R,0.0267X0.0004*%
%ADD610R,0.0259X0.0004*%
%ADD611R,0.0263X0.0004*%
%ADD612R,0.0136X0.0004*%
%ADD613R,0.0093X0.0004*%
%ADD614R,0.0093X0.0004*%
%ADD615R,0.0110X0.0004*%
%ADD616R,0.0089X0.0004*%
%ADD617R,0.0076X0.0004*%
%ADD618R,0.0064X0.0004*%
%ADD619R,0.0021X0.0004*%
%ADD620R,0.0034X0.0004*%
%ADD621R,0.0004X0.0004*%
%ADD622R,0.0098X0.0004*%
%ADD623R,0.0085X0.0004*%
%ADD624R,0.0085X0.0004*%
%ADD625R,0.0081X0.0004*%
%ADD626R,0.0097X0.0004*%
%ADD627R,0.0097X0.0004*%
%ADD628R,0.0081X0.0004*%
%ADD629R,0.0093X0.0004*%
%ADD630R,0.0081X0.0004*%
%ADD631R,0.0081X0.0004*%
%ADD632R,0.0089X0.0004*%
%ADD633R,0.0089X0.0004*%
%ADD634R,0.0102X0.0004*%
%ADD635R,0.0102X0.0004*%
%ADD636R,0.0114X0.0004*%
%ADD637R,0.0106X0.0004*%
%ADD638R,0.0136X0.0004*%
%ADD639R,0.0157X0.0004*%
%ADD640R,0.0178X0.0004*%
%ADD641R,0.0195X0.0004*%
%ADD642R,0.0199X0.0004*%
%ADD643R,0.0212X0.0004*%
%ADD644R,0.0220X0.0004*%
%ADD645R,0.0237X0.0004*%
%ADD646R,0.0242X0.0004*%
%ADD647R,0.0271X0.0004*%
%ADD648R,0.0322X0.0004*%
%ADD649R,0.0326X0.0004*%
%ADD650R,0.0339X0.0004*%
%ADD651R,0.0343X0.0004*%
%ADD652R,0.0352X0.0004*%
%ADD653R,0.0360X0.0004*%
%ADD654R,0.0356X0.0004*%
%ADD655R,0.0365X0.0004*%
%ADD656R,0.0369X0.0004*%
%ADD657R,0.0365X0.0004*%
%ADD658R,0.0352X0.0004*%
%ADD659R,0.0339X0.0004*%
%ADD660R,0.0331X0.0004*%
%ADD661R,0.0322X0.0004*%
%ADD662R,0.0314X0.0004*%
%ADD663R,0.0310X0.0004*%
%ADD664R,0.0229X0.0004*%
%ADD665R,0.0204X0.0004*%
%ADD666R,0.0187X0.0004*%
%ADD667R,0.0068X0.0004*%
%ADD668R,0.0059X0.0004*%
%ADD669R,0.0076X0.0004*%
%ADD670R,0.0051X0.0004*%
%ADD671R,0.0051X0.0004*%
%ADD672R,0.0051X0.0004*%
%ADD673R,0.0072X0.0004*%
%ADD674R,0.0051X0.0004*%
%ADD675R,0.0076X0.0004*%
%ADD676R,0.0055X0.0004*%
%ADD677R,0.0136X0.0004*%
%ADD678R,0.0144X0.0004*%
%ADD679R,0.0161X0.0004*%
%ADD680R,0.0187X0.0004*%
%ADD681R,0.0271X0.0004*%
%ADD682R,0.0288X0.0004*%
%ADD683R,0.0348X0.0004*%
%ADD684R,0.0369X0.0004*%
%ADD685R,0.0356X0.0004*%
%ADD686R,0.0348X0.0004*%
%ADD687R,0.0326X0.0004*%
%ADD688R,0.0318X0.0004*%
%ADD689R,0.0246X0.0004*%
%ADD690R,0.0191X0.0004*%
%ADD691R,0.0123X0.0004*%
%ADD692R,0.0153X0.0004*%
%ADD693R,0.0182X0.0004*%
%ADD694R,0.0182X0.0004*%
%ADD695R,0.0488X0.0004*%
%ADD696R,0.0479X0.0004*%
%ADD697R,0.0462X0.0004*%
%ADD698R,0.0449X0.0004*%
%ADD699R,0.0437X0.0004*%
%ADD700R,0.0420X0.0004*%
%ADD701R,0.0407X0.0004*%
%ADD702R,0.0390X0.0004*%
%ADD703R,0.0377X0.0004*%
%ADD704R,0.0246X0.0004*%
%ADD705R,0.0013X0.0004*%
%ADD706R,0.0013X0.0004*%
%ADD707R,0.0030X0.0004*%
%ADD708R,0.0047X0.0004*%
%ADD709R,0.0106X0.0004*%
%ADD710R,0.0165X0.0004*%
%ADD711R,0.0157X0.0004*%
%ADD712R,0.0174X0.0004*%
%ADD713R,0.0191X0.0004*%
%ADD714R,0.0237X0.0004*%
%ADD715R,0.0326X0.0004*%
%ADD716R,0.0335X0.0004*%
%ADD717R,0.0348X0.0004*%
%ADD718R,0.0106X0.0004*%
%ADD719R,0.0365X0.0004*%
%ADD720R,0.0212X0.0004*%
%ADD721R,0.0153X0.0004*%
%ADD722R,0.0119X0.0004*%
%ADD723R,0.0386X0.0004*%
%ADD724R,0.0187X0.0004*%
%ADD725R,0.0161X0.0004*%
%ADD726R,0.0131X0.0004*%
%ADD727R,0.0148X0.0004*%
%ADD728R,0.0144X0.0004*%
%ADD729R,0.0254X0.0004*%
%ADD730R,0.0250X0.0004*%
%ADD731R,0.0229X0.0004*%
%ADD732R,0.0212X0.0004*%
%ADD733R,0.0204X0.0004*%
%ADD734R,0.0394X0.0004*%
%ADD735R,0.0390X0.0004*%
%ADD736R,0.0382X0.0004*%
%ADD737R,0.0377X0.0004*%
%ADD738R,0.0373X0.0004*%
%ADD739R,0.0009X0.0004*%
%ADD740C,0.0080*%
%ADD741C,0.0100*%
%ADD742R,0.0300X0.0010*%
%ADD743R,0.0320X0.0010*%
%ADD744R,0.0310X0.0010*%
%ADD745R,0.0350X0.0010*%
%ADD746R,0.0340X0.0010*%
%ADD747R,0.0370X0.0010*%
%ADD748R,0.0360X0.0010*%
%ADD749R,0.0120X0.0010*%
%ADD750R,0.0110X0.0010*%
%ADD751R,0.0290X0.0010*%
%ADD752R,0.0330X0.0010*%
%ADD753R,0.0130X0.0010*%
%ADD754R,0.0270X0.0010*%
%ADD755R,0.0380X0.0010*%
%ADD756R,0.0140X0.0010*%
%ADD757R,0.0150X0.0010*%
%ADD758R,0.0240X0.0010*%
%ADD759R,0.0560X0.0010*%
%ADD760R,0.0550X0.0010*%
%ADD761R,0.0230X0.0010*%
%ADD762R,0.0540X0.0010*%
%ADD763R,0.0220X0.0010*%
%ADD764R,0.0520X0.0010*%
%ADD765R,0.0210X0.0010*%
%ADD766R,0.0510X0.0010*%
%ADD767R,0.0280X0.0010*%
%ADD768R,0.0180X0.0010*%
%ADD769R,0.0440X0.0010*%
%ADD770R,0.0260X0.0010*%
%ADD771R,0.0450X0.0010*%
D10*
X000150Y001150D02*
X001150Y000150D01*
X018750Y000150D01*
X018750Y001160D01*
X019750Y002150D01*
X019750Y015050D01*
X018750Y016050D01*
X018750Y020750D01*
X018350Y021150D01*
X001150Y021150D01*
X000150Y020160D01*
X000150Y001150D01*
D11*
X012510Y003420D02*
X012573Y003356D01*
X012510Y003420D02*
X012510Y003546D01*
X012573Y003610D01*
X012636Y003610D01*
X012700Y003546D01*
X012763Y003610D01*
X012827Y003610D01*
X012890Y003546D01*
X012890Y003420D01*
X012827Y003356D01*
X012700Y003483D02*
X012700Y003546D01*
X012827Y003771D02*
X012890Y003834D01*
X012890Y003961D01*
X012827Y004024D01*
X012763Y004024D01*
X012700Y003961D01*
X012700Y003897D01*
X012700Y003961D02*
X012636Y004024D01*
X012573Y004024D01*
X012510Y003961D01*
X012510Y003834D01*
X012573Y003771D01*
X012573Y004185D02*
X012510Y004248D01*
X012510Y004375D01*
X012573Y004439D01*
X012827Y004185D01*
X012890Y004248D01*
X012890Y004375D01*
X012827Y004439D01*
X012573Y004439D01*
X012510Y004599D02*
X012510Y004790D01*
X012573Y004853D01*
X012700Y004853D01*
X012763Y004790D01*
X012763Y004599D01*
X012890Y004599D02*
X012510Y004599D01*
X012763Y004726D02*
X012890Y004853D01*
X013510Y004790D02*
X013510Y004599D01*
X013890Y004599D01*
X013763Y004599D02*
X013763Y004790D01*
X013700Y004853D01*
X013573Y004853D01*
X013510Y004790D01*
X013763Y004726D02*
X013890Y004853D01*
X013827Y004439D02*
X013573Y004439D01*
X013827Y004185D01*
X013890Y004248D01*
X013890Y004375D01*
X013827Y004439D01*
X013573Y004439D02*
X013510Y004375D01*
X013510Y004248D01*
X013573Y004185D01*
X013827Y004185D01*
X013827Y004024D02*
X013890Y003961D01*
X013890Y003834D01*
X013827Y003771D01*
X013827Y003610D02*
X013890Y003546D01*
X013890Y003420D01*
X013827Y003356D01*
X013700Y003483D02*
X013700Y003546D01*
X013763Y003610D01*
X013827Y003610D01*
X013700Y003546D02*
X013636Y003610D01*
X013573Y003610D01*
X013510Y003546D01*
X013510Y003420D01*
X013573Y003356D01*
X013573Y003771D02*
X013510Y003834D01*
X013510Y003961D01*
X013573Y004024D01*
X013636Y004024D01*
X013700Y003961D01*
X013763Y004024D01*
X013827Y004024D01*
X013700Y003961D02*
X013700Y003897D01*
X014510Y003834D02*
X014573Y003771D01*
X014510Y003834D02*
X014510Y003961D01*
X014573Y004024D01*
X014636Y004024D01*
X014700Y003961D01*
X014763Y004024D01*
X014827Y004024D01*
X014890Y003961D01*
X014890Y003834D01*
X014827Y003771D01*
X014827Y003610D02*
X014890Y003546D01*
X014890Y003420D01*
X014827Y003356D01*
X014700Y003483D02*
X014700Y003546D01*
X014763Y003610D01*
X014827Y003610D01*
X014700Y003546D02*
X014636Y003610D01*
X014573Y003610D01*
X014510Y003546D01*
X014510Y003420D01*
X014573Y003356D01*
X014700Y003897D02*
X014700Y003961D01*
X014827Y004185D02*
X014573Y004185D01*
X014510Y004248D01*
X014510Y004375D01*
X014573Y004439D01*
X014827Y004185D01*
X014890Y004248D01*
X014890Y004375D01*
X014827Y004439D01*
X014573Y004439D01*
X014510Y004599D02*
X014510Y004790D01*
X014573Y004853D01*
X014700Y004853D01*
X014763Y004790D01*
X014763Y004599D01*
X014890Y004599D02*
X014510Y004599D01*
X014763Y004726D02*
X014890Y004853D01*
X015510Y004646D02*
X015763Y004392D01*
X015700Y004456D02*
X015890Y004646D01*
X015890Y004392D02*
X015510Y004392D01*
X015573Y004231D02*
X015827Y003978D01*
X015890Y004041D01*
X015890Y004168D01*
X015827Y004231D01*
X015573Y004231D01*
X015510Y004168D01*
X015510Y004041D01*
X015573Y003978D01*
X015827Y003978D01*
X015890Y003817D02*
X015890Y003563D01*
X015890Y003690D02*
X015510Y003690D01*
X015636Y003563D01*
X012827Y004185D02*
X012573Y004185D01*
X015898Y013808D02*
X015967Y013808D01*
X016035Y013877D01*
X016035Y014219D01*
X016035Y014355D02*
X016035Y014424D01*
X016261Y014219D02*
X016193Y014150D01*
X016193Y014013D01*
X016261Y013945D01*
X016398Y013945D01*
X016466Y014013D01*
X016466Y014150D01*
X016398Y014219D01*
X016261Y014219D01*
X015730Y014150D02*
X015730Y014013D01*
X015661Y013945D01*
X015525Y013945D01*
X015456Y014013D01*
X015456Y014150D01*
X015525Y014219D01*
X015661Y014219D01*
X015730Y014150D01*
X015288Y014013D02*
X015288Y014287D01*
X015219Y014355D01*
X015014Y014355D01*
X015014Y013945D01*
X015219Y013945D01*
X015288Y014013D01*
X014404Y013945D02*
X014199Y013945D01*
X014130Y014013D01*
X014199Y014082D01*
X014404Y014082D01*
X014404Y014150D02*
X014404Y013945D01*
X014404Y014150D02*
X014335Y014219D01*
X014199Y014219D01*
X013962Y014150D02*
X013893Y014219D01*
X013757Y014219D01*
X013688Y014150D01*
X013688Y014013D01*
X013757Y013945D01*
X013893Y013945D01*
X013962Y014013D01*
X013962Y014150D01*
X013525Y014219D02*
X013457Y014219D01*
X013320Y014082D01*
X013320Y013945D02*
X013320Y014219D01*
X013152Y014150D02*
X013152Y013945D01*
X012946Y013945D01*
X012878Y014013D01*
X012946Y014082D01*
X013152Y014082D01*
X013152Y014150D02*
X013083Y014219D01*
X012946Y014219D01*
X012710Y014287D02*
X012641Y014355D01*
X012504Y014355D01*
X012436Y014287D01*
X012436Y014013D01*
X012504Y013945D01*
X012641Y013945D01*
X012710Y014013D01*
X012710Y014150D01*
X012573Y014150D01*
X012573Y016356D02*
X012510Y016420D01*
X012510Y016546D01*
X012573Y016610D01*
X012636Y016610D01*
X012700Y016546D01*
X012763Y016610D01*
X012827Y016610D01*
X012890Y016546D01*
X012890Y016420D01*
X012827Y016356D01*
X012700Y016483D02*
X012700Y016546D01*
X012827Y016771D02*
X012890Y016834D01*
X012890Y016961D01*
X012827Y017024D01*
X012763Y017024D01*
X012700Y016961D01*
X012700Y016897D01*
X012700Y016961D02*
X012636Y017024D01*
X012573Y017024D01*
X012510Y016961D01*
X012510Y016834D01*
X012573Y016771D01*
X012573Y017185D02*
X012510Y017248D01*
X012510Y017375D01*
X012573Y017439D01*
X012827Y017185D01*
X012890Y017248D01*
X012890Y017375D01*
X012827Y017439D01*
X012573Y017439D01*
X012510Y017599D02*
X012510Y017790D01*
X012573Y017853D01*
X012700Y017853D01*
X012763Y017790D01*
X012763Y017599D01*
X012890Y017599D02*
X012510Y017599D01*
X012763Y017726D02*
X012890Y017853D01*
X013510Y017790D02*
X013510Y017599D01*
X013890Y017599D01*
X013763Y017599D02*
X013763Y017790D01*
X013700Y017853D01*
X013573Y017853D01*
X013510Y017790D01*
X013763Y017726D02*
X013890Y017853D01*
X013827Y017439D02*
X013573Y017439D01*
X013827Y017185D01*
X013890Y017248D01*
X013890Y017375D01*
X013827Y017439D01*
X013573Y017439D02*
X013510Y017375D01*
X013510Y017248D01*
X013573Y017185D01*
X013827Y017185D01*
X013827Y017024D02*
X013890Y016961D01*
X013890Y016834D01*
X013827Y016771D01*
X013827Y016610D02*
X013890Y016546D01*
X013890Y016420D01*
X013827Y016356D01*
X013700Y016483D02*
X013700Y016546D01*
X013763Y016610D01*
X013827Y016610D01*
X013700Y016546D02*
X013636Y016610D01*
X013573Y016610D01*
X013510Y016546D01*
X013510Y016420D01*
X013573Y016356D01*
X013573Y016771D02*
X013510Y016834D01*
X013510Y016961D01*
X013573Y017024D01*
X013636Y017024D01*
X013700Y016961D01*
X013763Y017024D01*
X013827Y017024D01*
X013700Y016961D02*
X013700Y016897D01*
X014510Y016834D02*
X014573Y016771D01*
X014510Y016834D02*
X014510Y016961D01*
X014573Y017024D01*
X014636Y017024D01*
X014700Y016961D01*
X014763Y017024D01*
X014827Y017024D01*
X014890Y016961D01*
X014890Y016834D01*
X014827Y016771D01*
X014827Y016610D02*
X014890Y016546D01*
X014890Y016420D01*
X014827Y016356D01*
X014700Y016483D02*
X014700Y016546D01*
X014763Y016610D01*
X014827Y016610D01*
X014700Y016546D02*
X014636Y016610D01*
X014573Y016610D01*
X014510Y016546D01*
X014510Y016420D01*
X014573Y016356D01*
X014700Y016897D02*
X014700Y016961D01*
X014827Y017185D02*
X014573Y017185D01*
X014510Y017248D01*
X014510Y017375D01*
X014573Y017439D01*
X014827Y017185D01*
X014890Y017248D01*
X014890Y017375D01*
X014827Y017439D01*
X014573Y017439D01*
X014510Y017599D02*
X014510Y017790D01*
X014573Y017853D01*
X014700Y017853D01*
X014763Y017790D01*
X014763Y017599D01*
X014890Y017599D02*
X014510Y017599D01*
X014763Y017726D02*
X014890Y017853D01*
X015510Y017790D02*
X015510Y017599D01*
X015890Y017599D01*
X015763Y017599D02*
X015763Y017790D01*
X015700Y017853D01*
X015573Y017853D01*
X015510Y017790D01*
X015763Y017726D02*
X015890Y017853D01*
X015827Y017439D02*
X015573Y017439D01*
X015827Y017185D01*
X015890Y017248D01*
X015890Y017375D01*
X015827Y017439D01*
X015573Y017439D02*
X015510Y017375D01*
X015510Y017248D01*
X015573Y017185D01*
X015827Y017185D01*
X015827Y017024D02*
X015890Y016961D01*
X015890Y016834D01*
X015827Y016771D01*
X015827Y016610D02*
X015890Y016546D01*
X015890Y016420D01*
X015827Y016356D01*
X015700Y016483D02*
X015700Y016546D01*
X015763Y016610D01*
X015827Y016610D01*
X015700Y016546D02*
X015636Y016610D01*
X015573Y016610D01*
X015510Y016546D01*
X015510Y016420D01*
X015573Y016356D01*
X015573Y016771D02*
X015510Y016834D01*
X015510Y016961D01*
X015573Y017024D01*
X015636Y017024D01*
X015700Y016961D01*
X015763Y017024D01*
X015827Y017024D01*
X015700Y016961D02*
X015700Y016897D01*
X016510Y016834D02*
X016573Y016771D01*
X016510Y016834D02*
X016510Y016961D01*
X016573Y017024D01*
X016636Y017024D01*
X016700Y016961D01*
X016763Y017024D01*
X016827Y017024D01*
X016890Y016961D01*
X016890Y016834D01*
X016827Y016771D01*
X016827Y016610D02*
X016890Y016546D01*
X016890Y016420D01*
X016827Y016356D01*
X016700Y016483D02*
X016700Y016546D01*
X016763Y016610D01*
X016827Y016610D01*
X016700Y016546D02*
X016636Y016610D01*
X016573Y016610D01*
X016510Y016546D01*
X016510Y016420D01*
X016573Y016356D01*
X016700Y016897D02*
X016700Y016961D01*
X016827Y017185D02*
X016573Y017185D01*
X016510Y017248D01*
X016510Y017375D01*
X016573Y017439D01*
X016827Y017185D01*
X016890Y017248D01*
X016890Y017375D01*
X016827Y017439D01*
X016573Y017439D01*
X016510Y017599D02*
X016510Y017790D01*
X016573Y017853D01*
X016700Y017853D01*
X016763Y017790D01*
X016763Y017599D01*
X016890Y017599D02*
X016510Y017599D01*
X016763Y017726D02*
X016890Y017853D01*
X017145Y014355D02*
X017077Y014287D01*
X017077Y014219D01*
X017145Y014150D01*
X017282Y014150D01*
X017350Y014082D01*
X017350Y014013D01*
X017282Y013945D01*
X017145Y013945D01*
X017077Y014013D01*
X017145Y014355D02*
X017282Y014355D01*
X017350Y014287D01*
X017519Y014355D02*
X017519Y013945D01*
X017519Y014150D02*
X017587Y014219D01*
X017724Y014219D01*
X017792Y014150D01*
X017792Y013945D01*
X017961Y013945D02*
X018098Y013945D01*
X018029Y013945D02*
X018029Y014219D01*
X017961Y014219D01*
X018029Y014355D02*
X018029Y014424D01*
X018255Y014150D02*
X018324Y014219D01*
X018461Y014219D01*
X018529Y014150D01*
X018529Y014082D01*
X018255Y014082D01*
X018255Y014150D02*
X018255Y014013D01*
X018324Y013945D01*
X018461Y013945D01*
X018697Y013945D02*
X018834Y013945D01*
X018766Y013945D02*
X018766Y014355D01*
X018697Y014355D01*
X018992Y014150D02*
X019060Y014219D01*
X019266Y014219D01*
X019266Y014355D02*
X019266Y013945D01*
X019060Y013945D01*
X018992Y014013D01*
X018992Y014150D01*
X012827Y017185D02*
X012573Y017185D01*
D12*
X012950Y011756D03*
X014082Y010474D03*
X014238Y010295D03*
D13*
X014238Y010297D03*
X014082Y010470D03*
X014082Y010472D03*
X014082Y010477D03*
X014082Y010479D03*
X014670Y011613D03*
X014670Y011616D03*
X015175Y011758D03*
X015175Y011760D03*
X012950Y011753D03*
D14*
X014388Y010449D03*
X014237Y010300D03*
D15*
X014237Y010302D03*
X014388Y010447D03*
D16*
X014237Y010307D03*
X014237Y010304D03*
X014062Y011703D03*
X014062Y011705D03*
X014675Y011691D03*
D17*
X014675Y011694D03*
X014062Y011701D03*
X014062Y011708D03*
X014237Y010309D03*
D18*
X014238Y010311D03*
X014238Y010313D03*
X014674Y011710D03*
X014674Y011712D03*
X015108Y011827D03*
X015108Y011829D03*
D19*
X014237Y010316D03*
D20*
X014237Y010318D03*
X014062Y011744D03*
X014062Y011747D03*
X014675Y011726D03*
X014675Y011724D03*
D21*
X014673Y011733D03*
X014673Y011737D03*
X013447Y011730D03*
X014239Y010320D03*
D22*
X014239Y010323D03*
X014673Y011735D03*
X013447Y011728D03*
D23*
X014240Y010327D03*
X014240Y010325D03*
D24*
X014240Y010330D03*
X014672Y011756D03*
X013448Y011749D03*
D25*
X013448Y011751D03*
X014672Y011753D03*
X014240Y010332D03*
D26*
X014240Y010334D03*
X014672Y011758D03*
X014672Y011760D03*
X013448Y011753D03*
D27*
X013448Y011756D03*
X014240Y010336D03*
D28*
X014242Y010339D03*
X014242Y010341D03*
X014063Y011779D03*
X014063Y011781D03*
X013450Y011760D03*
X013450Y011758D03*
D29*
X014240Y010343D03*
D30*
X014240Y010346D03*
X014240Y010348D03*
D31*
X014242Y010350D03*
X013450Y011770D03*
D32*
X013450Y011767D03*
X014242Y010353D03*
D33*
X014242Y010355D03*
D34*
X014242Y010357D03*
D35*
X014242Y010359D03*
X014242Y010362D03*
D36*
X014242Y010364D03*
D37*
X014242Y010366D03*
D38*
X014242Y010369D03*
X014670Y011788D03*
X013450Y011786D03*
D39*
X013450Y011783D03*
X014670Y011790D03*
X014242Y010371D03*
D40*
X014245Y010373D03*
X014245Y010376D03*
D41*
X014245Y010378D03*
X013452Y011790D03*
D42*
X013452Y011788D03*
X014672Y011793D03*
X014672Y011795D03*
X014245Y010380D03*
D43*
X014245Y010382D03*
X014245Y010387D03*
X014245Y010389D03*
X014066Y011806D03*
X014066Y011809D03*
X013452Y011795D03*
X013452Y011793D03*
D44*
X014245Y010392D03*
X014245Y010385D03*
D45*
X014245Y010394D03*
X014245Y010396D03*
D46*
X014247Y010398D03*
D47*
X014247Y010401D03*
D48*
X014245Y010403D03*
X013452Y011799D03*
D49*
X013452Y011797D03*
X014245Y010405D03*
D50*
X014247Y010408D03*
X014247Y010410D03*
X014247Y010415D03*
D51*
X014247Y010412D03*
D52*
X014247Y010417D03*
X014247Y010421D03*
X014247Y010424D03*
D53*
X014247Y010419D03*
D54*
X014122Y010426D03*
D55*
X014364Y010426D03*
X013007Y011825D03*
D56*
X012987Y011809D03*
X012987Y011806D03*
X014122Y010428D03*
D57*
X014364Y010428D03*
X014674Y011696D03*
X014674Y011698D03*
X013007Y011822D03*
D58*
X012978Y011799D03*
X014062Y011671D03*
X014062Y011668D03*
X014675Y011664D03*
X014675Y011662D03*
X014110Y010431D03*
D59*
X014371Y010431D03*
D60*
X014110Y010433D03*
X014062Y011666D03*
X014062Y011673D03*
X012978Y011797D03*
D61*
X014371Y010433D03*
D62*
X014106Y010435D03*
X014106Y010438D03*
X014062Y011655D03*
X014062Y011657D03*
X014062Y011662D03*
X014062Y011664D03*
X014675Y011655D03*
X015151Y011793D03*
X015151Y011795D03*
D63*
X015139Y011806D03*
X015139Y011809D03*
X014673Y011678D03*
X014673Y011675D03*
X013442Y011675D03*
X013442Y011678D03*
X013442Y011671D03*
X014377Y010438D03*
X014377Y010435D03*
D64*
X014106Y010440D03*
X014062Y011652D03*
X014062Y011659D03*
X014675Y011652D03*
D65*
X013442Y011673D03*
X014377Y010440D03*
D66*
X014101Y010442D03*
X014101Y010444D03*
D67*
X014384Y010444D03*
X014384Y010442D03*
X014675Y011671D03*
X014062Y011682D03*
X014062Y011685D03*
X014062Y011689D03*
X012983Y011802D03*
D68*
X014062Y011646D03*
X014062Y011639D03*
X014062Y012555D03*
X014097Y010447D03*
X014402Y010460D03*
D69*
X014402Y010463D03*
X014097Y010449D03*
X014062Y011636D03*
X014062Y011641D03*
X014062Y011643D03*
X014062Y011648D03*
X014062Y011650D03*
X014062Y012557D03*
D70*
X015163Y011781D03*
X015163Y011779D03*
X014406Y010465D03*
X014093Y010451D03*
D71*
X014393Y010451D03*
X014398Y010456D03*
X014398Y010458D03*
X015155Y011788D03*
D72*
X015163Y011776D03*
X014406Y010467D03*
X014093Y010454D03*
D73*
X014393Y010454D03*
X015155Y011790D03*
D74*
X015166Y011774D03*
X015166Y011772D03*
X014063Y011634D03*
X014063Y011629D03*
X014063Y011627D03*
X014063Y011623D03*
X014063Y011620D03*
X014063Y012560D03*
X014063Y012564D03*
X014063Y012566D03*
X014063Y012571D03*
X012954Y011765D03*
X014091Y010458D03*
X014091Y010456D03*
D75*
X014089Y010460D03*
X014084Y010467D03*
X014415Y010481D03*
X014672Y011618D03*
X014672Y011625D03*
X015173Y011763D03*
X013443Y011625D03*
D76*
X013443Y011627D03*
X013443Y011629D03*
X013443Y011623D03*
X012952Y011758D03*
X012952Y011760D03*
X014084Y010465D03*
X014089Y010463D03*
X014415Y010483D03*
X014672Y011620D03*
X014672Y011623D03*
X014672Y011627D03*
X014672Y011629D03*
X015173Y011765D03*
D77*
X015170Y011767D03*
X014412Y010479D03*
X014412Y010477D03*
X014408Y010472D03*
X014408Y010470D03*
X012959Y011767D03*
D78*
X012959Y011770D03*
X014412Y010474D03*
X015170Y011770D03*
D79*
X015177Y011756D03*
X014419Y010495D03*
X014079Y010488D03*
X014079Y010481D03*
X014075Y010495D03*
D80*
X014075Y010497D03*
X014079Y010486D03*
X014079Y010483D03*
X014419Y010497D03*
X013443Y011613D03*
X013443Y011616D03*
X012943Y011744D03*
X012943Y011747D03*
X015177Y011753D03*
D81*
X015179Y011751D03*
X014417Y010493D03*
X014417Y010490D03*
X014417Y010486D03*
X013446Y011620D03*
D82*
X013446Y011618D03*
X014417Y010488D03*
X015179Y011749D03*
D83*
X014670Y011602D03*
X014670Y011600D03*
X013446Y011602D03*
X013446Y011606D03*
X013446Y011609D03*
X014073Y010506D03*
X014073Y010504D03*
X014073Y010500D03*
X014077Y010493D03*
X014077Y010490D03*
X014422Y010500D03*
X014422Y010504D03*
X014422Y010506D03*
D84*
X014422Y010502D03*
X014073Y010502D03*
X014670Y011597D03*
X014670Y011604D03*
X013446Y011604D03*
X013446Y011611D03*
D85*
X012937Y011728D03*
X014069Y010522D03*
X014069Y010516D03*
X014069Y010509D03*
X015188Y011735D03*
D86*
X014424Y010516D03*
X014424Y010509D03*
D87*
X014069Y010511D03*
X014069Y010513D03*
X014069Y010518D03*
X014069Y010520D03*
X014069Y010525D03*
X014069Y010527D03*
X014673Y011593D03*
X014673Y011595D03*
X015188Y011733D03*
X015188Y011737D03*
X015192Y011726D03*
X015192Y011724D03*
X012937Y011730D03*
D88*
X014424Y010518D03*
X014424Y010513D03*
X014424Y010511D03*
D89*
X014427Y010520D03*
X014427Y010525D03*
X014427Y010527D03*
X014427Y010532D03*
X014427Y010534D03*
X014671Y011586D03*
X014671Y011588D03*
X015194Y011717D03*
X015194Y011719D03*
X012935Y011719D03*
X012935Y011724D03*
X012935Y011726D03*
X012930Y011717D03*
X012930Y011712D03*
X012930Y011710D03*
D90*
X012930Y011714D03*
X012935Y011721D03*
X014427Y010536D03*
X014427Y010529D03*
X014427Y010522D03*
X014671Y011584D03*
X014671Y011590D03*
X015194Y011714D03*
X015194Y011721D03*
D91*
X015190Y011728D03*
X014062Y011556D03*
X014062Y011549D03*
X014062Y011542D03*
X014062Y011535D03*
X014062Y011528D03*
X014062Y011522D03*
X014062Y011515D03*
X014062Y011508D03*
X014062Y011501D03*
X014067Y010543D03*
X014067Y010536D03*
X014067Y010529D03*
X014062Y012617D03*
X014062Y012624D03*
D92*
X014062Y012626D03*
X014062Y012622D03*
X014062Y012619D03*
X014062Y012615D03*
X014062Y012612D03*
X015190Y011730D03*
X014062Y011561D03*
X014062Y011558D03*
X014062Y011554D03*
X014062Y011551D03*
X014062Y011547D03*
X014062Y011544D03*
X014062Y011540D03*
X014062Y011538D03*
X014062Y011533D03*
X014062Y011531D03*
X014062Y011526D03*
X014062Y011524D03*
X014062Y011519D03*
X014062Y011517D03*
X014062Y011512D03*
X014062Y011510D03*
X014062Y011505D03*
X014062Y011503D03*
X014067Y010545D03*
X014067Y010541D03*
X014067Y010539D03*
X014067Y010534D03*
X014067Y010532D03*
D93*
X014064Y010548D03*
X014064Y010552D03*
X014064Y010555D03*
X014064Y010559D03*
X014064Y010562D03*
X014064Y010566D03*
X014064Y010568D03*
X014064Y010573D03*
X014064Y010575D03*
X014064Y010580D03*
X014064Y010582D03*
X014064Y010587D03*
X014064Y010589D03*
X014064Y010594D03*
X014064Y010596D03*
X014430Y010589D03*
X014430Y010587D03*
X014430Y010582D03*
X014430Y010580D03*
X014430Y010575D03*
X014430Y010573D03*
X014430Y010568D03*
X014430Y010566D03*
X014430Y010562D03*
X014430Y010559D03*
X014430Y010555D03*
X014430Y010552D03*
X014430Y010548D03*
X014430Y010545D03*
X014430Y010541D03*
X014430Y010539D03*
X014669Y011574D03*
X014669Y011579D03*
X014669Y011581D03*
X012928Y011705D03*
D94*
X012928Y011708D03*
X014064Y010598D03*
X014064Y010591D03*
X014064Y010584D03*
X014064Y010578D03*
X014064Y010571D03*
X014064Y010564D03*
X014064Y010557D03*
X014064Y010550D03*
X014430Y010550D03*
X014430Y010543D03*
X014430Y010557D03*
X014430Y010564D03*
X014430Y010571D03*
X014430Y010578D03*
X014430Y010584D03*
X014669Y011577D03*
D95*
X014671Y011570D03*
X015199Y011701D03*
X015199Y011708D03*
X015204Y011694D03*
X014062Y011494D03*
X014062Y011487D03*
X014062Y011480D03*
X014062Y011473D03*
X014062Y011466D03*
X014062Y011459D03*
X014062Y011453D03*
X014062Y011446D03*
X014062Y011439D03*
X014062Y011432D03*
X014062Y011425D03*
X014062Y011418D03*
X014062Y011411D03*
X014062Y011404D03*
X014062Y011397D03*
X014062Y011391D03*
X014062Y011384D03*
X014062Y011377D03*
X014062Y011370D03*
X014062Y011363D03*
X014062Y011356D03*
X014062Y011349D03*
X014062Y011342D03*
X014062Y011335D03*
X014062Y011329D03*
X014062Y011322D03*
X014062Y011315D03*
X014062Y011308D03*
X014062Y011301D03*
X014062Y011294D03*
X014062Y011287D03*
X014062Y011280D03*
X014062Y011273D03*
X014062Y011267D03*
X014062Y011260D03*
X014062Y011253D03*
X014062Y011246D03*
X014062Y011239D03*
X014062Y011232D03*
X014062Y011225D03*
X014062Y011218D03*
X014062Y011211D03*
X014062Y011205D03*
X014062Y011198D03*
X014062Y011191D03*
X014062Y011184D03*
X014062Y011177D03*
X014062Y011170D03*
X014062Y011163D03*
X014062Y011156D03*
X014062Y011149D03*
X014062Y011143D03*
X014062Y011136D03*
X014062Y011129D03*
X014062Y011122D03*
X014062Y011115D03*
X014062Y011108D03*
X014062Y011101D03*
X014062Y011094D03*
X014062Y011087D03*
X014062Y011081D03*
X014062Y011074D03*
X014062Y011067D03*
X014062Y011060D03*
X014062Y011053D03*
X014062Y011046D03*
X014062Y011039D03*
X014062Y011032D03*
X014062Y011025D03*
X014062Y011019D03*
X014062Y011012D03*
X014062Y011005D03*
X014062Y010998D03*
X014062Y010991D03*
X014062Y010984D03*
X014062Y010977D03*
X014062Y010970D03*
X014062Y010963D03*
X014062Y010957D03*
X014062Y010950D03*
X014062Y010943D03*
X014062Y010936D03*
X014062Y010929D03*
X014062Y010922D03*
X014062Y010915D03*
X014062Y010908D03*
X014062Y010901D03*
X014062Y010895D03*
X014062Y010888D03*
X014062Y010881D03*
X014062Y010874D03*
X014062Y010867D03*
X014062Y010860D03*
X014062Y010853D03*
X014062Y010846D03*
X014062Y010839D03*
X014062Y010833D03*
X014062Y010826D03*
X014062Y010819D03*
X014062Y010812D03*
X014062Y010805D03*
X014062Y010798D03*
X014062Y010791D03*
X014062Y010784D03*
X014062Y010777D03*
X014062Y010771D03*
X014062Y010764D03*
X014062Y010757D03*
X014062Y010750D03*
X014062Y010743D03*
X014062Y010736D03*
X014062Y010729D03*
X014062Y010722D03*
X014062Y010715D03*
X014062Y010709D03*
X014062Y010702D03*
X014062Y010695D03*
X014062Y010688D03*
X014062Y010681D03*
X014062Y010674D03*
X014062Y010667D03*
X014062Y010660D03*
X014062Y010653D03*
X014062Y010647D03*
X014062Y010640D03*
X014062Y010633D03*
X014062Y010626D03*
X014062Y010619D03*
X014062Y010612D03*
X014062Y010605D03*
X014427Y010598D03*
X014427Y010591D03*
X012921Y011687D03*
X012925Y011701D03*
X014062Y012631D03*
X014062Y012638D03*
X014062Y012645D03*
D96*
X014062Y012642D03*
X014062Y012640D03*
X014062Y012635D03*
X014062Y012633D03*
X014062Y012628D03*
X014671Y011572D03*
X014671Y011567D03*
X015199Y011703D03*
X015199Y011705D03*
X015204Y011698D03*
X015204Y011696D03*
X015204Y011691D03*
X014062Y011499D03*
X014062Y011496D03*
X014062Y011492D03*
X014062Y011489D03*
X014062Y011485D03*
X014062Y011482D03*
X014062Y011478D03*
X014062Y011476D03*
X014062Y011471D03*
X014062Y011469D03*
X014062Y011464D03*
X014062Y011462D03*
X014062Y011457D03*
X014062Y011455D03*
X014062Y011450D03*
X014062Y011448D03*
X014062Y011443D03*
X014062Y011441D03*
X014062Y011437D03*
X014062Y011434D03*
X014062Y011430D03*
X014062Y011427D03*
X014062Y011423D03*
X014062Y011420D03*
X014062Y011416D03*
X014062Y011414D03*
X014062Y011409D03*
X014062Y011407D03*
X014062Y011402D03*
X014062Y011400D03*
X014062Y011395D03*
X014062Y011393D03*
X014062Y011388D03*
X014062Y011386D03*
X014062Y011381D03*
X014062Y011379D03*
X014062Y011375D03*
X014062Y011372D03*
X014062Y011368D03*
X014062Y011365D03*
X014062Y011361D03*
X014062Y011358D03*
X014062Y011354D03*
X014062Y011352D03*
X014062Y011347D03*
X014062Y011345D03*
X014062Y011340D03*
X014062Y011338D03*
X014062Y011333D03*
X014062Y011331D03*
X014062Y011326D03*
X014062Y011324D03*
X014062Y011319D03*
X014062Y011317D03*
X014062Y011313D03*
X014062Y011310D03*
X014062Y011306D03*
X014062Y011303D03*
X014062Y011299D03*
X014062Y011296D03*
X014062Y011292D03*
X014062Y011290D03*
X014062Y011285D03*
X014062Y011283D03*
X014062Y011278D03*
X014062Y011276D03*
X014062Y011271D03*
X014062Y011269D03*
X014062Y011264D03*
X014062Y011262D03*
X014062Y011257D03*
X014062Y011255D03*
X014062Y011251D03*
X014062Y011248D03*
X014062Y011244D03*
X014062Y011241D03*
X014062Y011237D03*
X014062Y011234D03*
X014062Y011230D03*
X014062Y011228D03*
X014062Y011223D03*
X014062Y011221D03*
X014062Y011216D03*
X014062Y011214D03*
X014062Y011209D03*
X014062Y011207D03*
X014062Y011202D03*
X014062Y011200D03*
X014062Y011195D03*
X014062Y011193D03*
X014062Y011188D03*
X014062Y011186D03*
X014062Y011182D03*
X014062Y011179D03*
X014062Y011175D03*
X014062Y011172D03*
X014062Y011168D03*
X014062Y011166D03*
X014062Y011161D03*
X014062Y011159D03*
X014062Y011154D03*
X014062Y011152D03*
X014062Y011147D03*
X014062Y011145D03*
X014062Y011140D03*
X014062Y011138D03*
X014062Y011133D03*
X014062Y011131D03*
X014062Y011126D03*
X014062Y011124D03*
X014062Y011120D03*
X014062Y011117D03*
X014062Y011113D03*
X014062Y011110D03*
X014062Y011106D03*
X014062Y011104D03*
X014062Y011099D03*
X014062Y011097D03*
X014062Y011092D03*
X014062Y011090D03*
X014062Y011085D03*
X014062Y011083D03*
X014062Y011078D03*
X014062Y011076D03*
X014062Y011071D03*
X014062Y011069D03*
X014062Y011064D03*
X014062Y011062D03*
X014062Y011058D03*
X014062Y011055D03*
X014062Y011051D03*
X014062Y011048D03*
X014062Y011044D03*
X014062Y011042D03*
X014062Y011037D03*
X014062Y011035D03*
X014062Y011030D03*
X014062Y011028D03*
X014062Y011023D03*
X014062Y011021D03*
X014062Y011016D03*
X014062Y011014D03*
X014062Y011009D03*
X014062Y011007D03*
X014062Y011002D03*
X014062Y011000D03*
X014062Y010996D03*
X014062Y010993D03*
X014062Y010989D03*
X014062Y010986D03*
X014062Y010982D03*
X014062Y010980D03*
X014062Y010975D03*
X014062Y010973D03*
X014062Y010968D03*
X014062Y010966D03*
X014062Y010961D03*
X014062Y010959D03*
X014062Y010954D03*
X014062Y010952D03*
X014062Y010947D03*
X014062Y010945D03*
X014062Y010940D03*
X014062Y010938D03*
X014062Y010934D03*
X014062Y010931D03*
X014062Y010927D03*
X014062Y010924D03*
X014062Y010920D03*
X014062Y010918D03*
X014062Y010913D03*
X014062Y010911D03*
X014062Y010906D03*
X014062Y010904D03*
X014062Y010899D03*
X014062Y010897D03*
X014062Y010892D03*
X014062Y010890D03*
X014062Y010885D03*
X014062Y010883D03*
X014062Y010878D03*
X014062Y010876D03*
X014062Y010872D03*
X014062Y010869D03*
X014062Y010865D03*
X014062Y010862D03*
X014062Y010858D03*
X014062Y010855D03*
X014062Y010851D03*
X014062Y010849D03*
X014062Y010844D03*
X014062Y010842D03*
X014062Y010837D03*
X014062Y010835D03*
X014062Y010830D03*
X014062Y010828D03*
X014062Y010823D03*
X014062Y010821D03*
X014062Y010816D03*
X014062Y010814D03*
X014062Y010810D03*
X014062Y010807D03*
X014062Y010803D03*
X014062Y010800D03*
X014062Y010796D03*
X014062Y010793D03*
X014062Y010789D03*
X014062Y010787D03*
X014062Y010782D03*
X014062Y010780D03*
X014062Y010775D03*
X014062Y010773D03*
X014062Y010768D03*
X014062Y010766D03*
X014062Y010761D03*
X014062Y010759D03*
X014062Y010754D03*
X014062Y010752D03*
X014062Y010748D03*
X014062Y010745D03*
X014062Y010741D03*
X014062Y010738D03*
X014062Y010734D03*
X014062Y010731D03*
X014062Y010727D03*
X014062Y010725D03*
X014062Y010720D03*
X014062Y010718D03*
X014062Y010713D03*
X014062Y010711D03*
X014062Y010706D03*
X014062Y010704D03*
X014062Y010699D03*
X014062Y010697D03*
X014062Y010692D03*
X014062Y010690D03*
X014062Y010686D03*
X014062Y010683D03*
X014062Y010679D03*
X014062Y010676D03*
X014062Y010672D03*
X014062Y010669D03*
X014062Y010665D03*
X014062Y010663D03*
X014062Y010658D03*
X014062Y010656D03*
X014062Y010651D03*
X014062Y010649D03*
X014062Y010644D03*
X014062Y010642D03*
X014062Y010637D03*
X014062Y010635D03*
X014062Y010630D03*
X014062Y010628D03*
X014062Y010624D03*
X014062Y010621D03*
X014062Y010617D03*
X014062Y010614D03*
X014062Y010610D03*
X014062Y010607D03*
X014062Y010603D03*
X014062Y010601D03*
X014427Y010596D03*
X014427Y010594D03*
X012921Y011685D03*
X012921Y011689D03*
X012925Y011696D03*
X012925Y011698D03*
X012925Y011703D03*
D97*
X012919Y011682D03*
X012919Y011678D03*
X012919Y011675D03*
X012919Y011671D03*
X013447Y011574D03*
X013447Y011572D03*
X013447Y011567D03*
X014669Y011565D03*
X014669Y011561D03*
X014669Y011558D03*
X014669Y011554D03*
X014425Y010610D03*
X014425Y010607D03*
X014425Y010603D03*
X014425Y010601D03*
D98*
X014425Y010605D03*
X014669Y011556D03*
X014669Y011563D03*
X013447Y011570D03*
X013447Y011577D03*
X012919Y011673D03*
X012919Y011680D03*
D99*
X012914Y011659D03*
X012914Y011652D03*
X012907Y011639D03*
X012907Y011632D03*
X013447Y011556D03*
X014425Y010612D03*
X015217Y011639D03*
X015217Y011646D03*
X015217Y011652D03*
D100*
X015217Y011650D03*
X015217Y011648D03*
X015217Y011643D03*
X015217Y011641D03*
X015217Y011636D03*
X015217Y011655D03*
X014425Y010614D03*
X013447Y011554D03*
X013447Y011558D03*
X013447Y011561D03*
X012914Y011655D03*
X012914Y011657D03*
X012907Y011643D03*
X012907Y011641D03*
X012907Y011636D03*
X012907Y011634D03*
D101*
X014422Y010617D03*
X014665Y011519D03*
X014665Y011524D03*
X014665Y011526D03*
X014665Y011531D03*
X014665Y011533D03*
D102*
X014665Y011528D03*
X014665Y011522D03*
X014422Y010619D03*
D103*
X014424Y010621D03*
X014424Y010624D03*
X014663Y011489D03*
X013457Y011505D03*
X013457Y011510D03*
X013457Y011512D03*
D104*
X014422Y010626D03*
D105*
X014422Y010628D03*
D106*
X012891Y011471D03*
D107*
X013452Y011471D03*
D108*
X014663Y011471D03*
D109*
X015229Y011471D03*
X014062Y012688D03*
D110*
X012891Y011473D03*
D111*
X013452Y011473D03*
D112*
X014663Y011473D03*
D113*
X015229Y011473D03*
X014062Y012686D03*
D114*
X012893Y011485D03*
X012893Y011482D03*
X012893Y011478D03*
X012893Y011476D03*
D115*
X013455Y011476D03*
X013455Y011478D03*
X013455Y011482D03*
X013455Y011485D03*
D116*
X013455Y011489D03*
X013455Y011492D03*
X013455Y011496D03*
X013455Y011499D03*
X013455Y011503D03*
X014660Y011485D03*
X014660Y011482D03*
X014660Y011478D03*
X014660Y011476D03*
D117*
X015227Y011476D03*
X015227Y011478D03*
X015227Y011482D03*
X015227Y011485D03*
D118*
X012893Y011480D03*
D119*
X013455Y011480D03*
D120*
X013455Y011487D03*
X013455Y011494D03*
X013455Y011501D03*
X014660Y011480D03*
D121*
X015227Y011480D03*
D122*
X015229Y011501D03*
X015229Y011508D03*
X015229Y011515D03*
X012891Y011487D03*
D123*
X013457Y011508D03*
X014663Y011487D03*
D124*
X015229Y011487D03*
D125*
X015229Y011503D03*
X015229Y011505D03*
X015229Y011510D03*
X015229Y011512D03*
X015229Y011517D03*
X012891Y011489D03*
D126*
X015229Y011489D03*
D127*
X015231Y011519D03*
X015231Y011524D03*
X015231Y011526D03*
X015231Y011531D03*
X015231Y011533D03*
X015231Y011538D03*
X015231Y011540D03*
X012893Y011538D03*
X012893Y011533D03*
X012893Y011531D03*
X012893Y011526D03*
X012893Y011524D03*
X012893Y011519D03*
X012893Y011517D03*
X012893Y011512D03*
X012893Y011510D03*
X012893Y011505D03*
X012893Y011503D03*
X012893Y011499D03*
X012893Y011496D03*
X012893Y011492D03*
D128*
X013455Y011517D03*
X013455Y011519D03*
X013455Y011524D03*
X013455Y011526D03*
X014660Y011499D03*
X014660Y011496D03*
X014660Y011492D03*
D129*
X015225Y011492D03*
X015225Y011496D03*
X015225Y011499D03*
D130*
X015231Y011522D03*
X015231Y011528D03*
X015231Y011535D03*
X015231Y011542D03*
X012893Y011535D03*
X012893Y011528D03*
X012893Y011522D03*
X012893Y011515D03*
X012893Y011508D03*
X012893Y011501D03*
X012893Y011494D03*
D131*
X013455Y011515D03*
X013455Y011522D03*
X013455Y011528D03*
X014660Y011494D03*
D132*
X015225Y011494D03*
D133*
X014663Y011501D03*
X014663Y011508D03*
X014663Y011515D03*
D134*
X014663Y011517D03*
X014663Y011512D03*
X014663Y011510D03*
X014663Y011505D03*
X014663Y011503D03*
D135*
X013452Y011531D03*
X013452Y011533D03*
X013452Y011538D03*
D136*
X013452Y011535D03*
D137*
X014667Y011535D03*
X014667Y011542D03*
D138*
X014667Y011540D03*
X014667Y011538D03*
X015212Y011662D03*
X015212Y011664D03*
D139*
X015224Y011600D03*
X014062Y012677D03*
X012900Y011595D03*
X012900Y011593D03*
X012900Y011588D03*
X012896Y011572D03*
X012896Y011567D03*
X012896Y011565D03*
X012896Y011561D03*
X012896Y011558D03*
X012896Y011554D03*
X012896Y011551D03*
X012896Y011547D03*
X012896Y011544D03*
X012896Y011540D03*
D140*
X012905Y011620D03*
X012905Y011623D03*
X012905Y011627D03*
X012905Y011629D03*
X013449Y011551D03*
X013449Y011547D03*
X013449Y011544D03*
X013449Y011540D03*
X014062Y012668D03*
X014062Y012670D03*
X014062Y012674D03*
X015220Y011634D03*
X015220Y011629D03*
X015220Y011627D03*
X015220Y011623D03*
D141*
X015224Y011597D03*
X014062Y012679D03*
X012900Y011590D03*
X012896Y011570D03*
X012896Y011563D03*
X012896Y011556D03*
X012896Y011549D03*
X012896Y011542D03*
D142*
X012905Y011618D03*
X012905Y011625D03*
X013449Y011549D03*
X013449Y011542D03*
X014062Y012672D03*
X015220Y011632D03*
X015220Y011625D03*
D143*
X015209Y011668D03*
X015209Y011671D03*
X015209Y011675D03*
X015209Y011678D03*
X014665Y011551D03*
X014665Y011547D03*
X014665Y011544D03*
D144*
X015229Y011544D03*
X015229Y011547D03*
X015229Y011551D03*
X015229Y011554D03*
X015229Y011558D03*
X015229Y011561D03*
X015229Y011565D03*
X015229Y011567D03*
X015229Y011572D03*
X015229Y011574D03*
D145*
X015209Y011666D03*
X015209Y011673D03*
X014665Y011549D03*
D146*
X015229Y011549D03*
X015229Y011556D03*
X015229Y011563D03*
X015229Y011570D03*
X015229Y011577D03*
D147*
X013449Y011563D03*
X012916Y011666D03*
D148*
X012939Y011735D03*
X012939Y011742D03*
X014062Y011590D03*
X014062Y011584D03*
X014062Y011577D03*
X014062Y011570D03*
X014062Y011563D03*
X015185Y011742D03*
X014062Y012596D03*
X014062Y012603D03*
X014062Y012610D03*
D149*
X013449Y011565D03*
X012916Y011662D03*
X012916Y011664D03*
X012916Y011668D03*
D150*
X012939Y011733D03*
X012939Y011737D03*
X012939Y011740D03*
X014062Y011588D03*
X014062Y011586D03*
X014062Y011581D03*
X014062Y011579D03*
X014062Y011574D03*
X014062Y011572D03*
X014062Y011567D03*
X014062Y011565D03*
X015185Y011740D03*
X014062Y012594D03*
X014062Y012599D03*
X014062Y012601D03*
X014062Y012605D03*
X014062Y012608D03*
D151*
X015222Y011620D03*
X015222Y011616D03*
X015222Y011613D03*
X015222Y011609D03*
X015222Y011606D03*
X015222Y011602D03*
X012898Y011586D03*
X012898Y011581D03*
X012898Y011579D03*
X012898Y011574D03*
D152*
X012898Y011577D03*
X012898Y011584D03*
X015222Y011604D03*
X015222Y011611D03*
X015222Y011618D03*
D153*
X013444Y011586D03*
X013444Y011581D03*
X013444Y011579D03*
D154*
X012902Y011600D03*
X012902Y011602D03*
X012902Y011606D03*
X012902Y011609D03*
X012902Y011613D03*
X012902Y011616D03*
X015227Y011595D03*
X015227Y011593D03*
X015227Y011588D03*
X015227Y011586D03*
X015227Y011581D03*
X015227Y011579D03*
D155*
X013444Y011584D03*
D156*
X012902Y011597D03*
X012902Y011604D03*
X012902Y011611D03*
X015227Y011590D03*
X015227Y011584D03*
D157*
X013448Y011588D03*
D158*
X013448Y011590D03*
D159*
X013446Y011593D03*
X013446Y011595D03*
X013446Y011600D03*
D160*
X014060Y011595D03*
X014060Y011593D03*
X015183Y011744D03*
X015183Y011747D03*
D161*
X013446Y011597D03*
D162*
X014062Y011597D03*
X014062Y011604D03*
X014062Y011611D03*
X014062Y012576D03*
X014062Y012583D03*
X014062Y012589D03*
D163*
X014062Y012587D03*
X014062Y012585D03*
X014062Y012580D03*
X014062Y012578D03*
X014062Y012573D03*
X014062Y012592D03*
X014062Y011616D03*
X014062Y011613D03*
X014062Y011609D03*
X014062Y011606D03*
X014062Y011602D03*
X014062Y011600D03*
D164*
X014672Y011606D03*
X014672Y011609D03*
X012947Y011751D03*
D165*
X012947Y011749D03*
X014672Y011611D03*
D166*
X014063Y011618D03*
X014063Y011625D03*
X014063Y011632D03*
X014063Y012562D03*
X014063Y012569D03*
X012954Y011763D03*
D167*
X013443Y011639D03*
X013443Y011632D03*
X014672Y011632D03*
X014672Y011639D03*
D168*
X014672Y011636D03*
X014672Y011634D03*
X013443Y011634D03*
X013443Y011636D03*
X012961Y011772D03*
X012961Y011774D03*
D169*
X013443Y011650D03*
X013443Y011648D03*
X013443Y011643D03*
X013443Y011641D03*
X014672Y011641D03*
X014672Y011643D03*
X014672Y011648D03*
X014672Y011650D03*
D170*
X015207Y011680D03*
X015207Y011687D03*
X012910Y011646D03*
D171*
X013443Y011646D03*
X014672Y011646D03*
D172*
X015207Y011682D03*
X015207Y011685D03*
X015207Y011689D03*
X012910Y011650D03*
X012910Y011648D03*
D173*
X013442Y011652D03*
X013442Y011659D03*
X014673Y011659D03*
X015148Y011797D03*
D174*
X015148Y011799D03*
X014673Y011657D03*
X013442Y011657D03*
X013442Y011655D03*
D175*
X014062Y012647D03*
X014062Y012649D03*
X014062Y012654D03*
X014062Y012656D03*
X014062Y012661D03*
X014062Y012663D03*
X015215Y011657D03*
D176*
X015215Y011659D03*
X014062Y012651D03*
X014062Y012658D03*
X014062Y012665D03*
D177*
X015144Y011802D03*
X013442Y011668D03*
X013442Y011664D03*
X013442Y011662D03*
D178*
X013442Y011666D03*
X015144Y011804D03*
D179*
X014673Y011666D03*
D180*
X014673Y011668D03*
X014060Y011675D03*
X014060Y011678D03*
D181*
X014062Y011680D03*
X014062Y011687D03*
X014675Y011673D03*
X012983Y011804D03*
D182*
X013442Y011680D03*
D183*
X014062Y011694D03*
X014675Y011680D03*
X015132Y011811D03*
D184*
X013442Y011682D03*
D185*
X014062Y011691D03*
X014062Y011696D03*
X014062Y011698D03*
X014675Y011682D03*
X015132Y011813D03*
D186*
X013442Y011691D03*
X013442Y011689D03*
X013442Y011685D03*
D187*
X014673Y011685D03*
X014673Y011689D03*
D188*
X013442Y011687D03*
X013442Y011694D03*
D189*
X014673Y011687D03*
D190*
X012923Y011691D03*
D191*
X012923Y011694D03*
D192*
X013443Y011696D03*
X013443Y011698D03*
D193*
X013446Y011701D03*
X014063Y011721D03*
X014674Y011708D03*
D194*
X014672Y011701D03*
X015120Y011825D03*
D195*
X014674Y011705D03*
X014063Y011719D03*
X013446Y011703D03*
X014056Y012550D03*
X014056Y012553D03*
D196*
X014672Y011703D03*
X015120Y011822D03*
D197*
X013443Y011705D03*
D198*
X013443Y011708D03*
D199*
X013443Y011710D03*
X013443Y011712D03*
X014672Y011717D03*
D200*
X014062Y011717D03*
X014062Y011712D03*
X014062Y011710D03*
D201*
X015197Y011710D03*
X015197Y011712D03*
D202*
X013446Y011714D03*
D203*
X014062Y011714D03*
D204*
X014672Y011714D03*
D205*
X013446Y011717D03*
D206*
X013446Y011719D03*
D207*
X014062Y011733D03*
X014062Y011737D03*
X014675Y011719D03*
D208*
X013446Y011721D03*
D209*
X014062Y011735D03*
X014675Y011721D03*
D210*
X013444Y011724D03*
X013444Y011726D03*
D211*
X014060Y011726D03*
X014060Y011724D03*
D212*
X014062Y011728D03*
D213*
X014673Y011728D03*
D214*
X014062Y011730D03*
X013017Y011827D03*
X013017Y011829D03*
D215*
X014673Y011730D03*
D216*
X014062Y011753D03*
X013444Y011737D03*
X013444Y011733D03*
D217*
X013444Y011735D03*
X014062Y011756D03*
D218*
X014675Y011747D03*
X014675Y011744D03*
X013444Y011740D03*
D219*
X014060Y011740D03*
D220*
X014060Y011758D03*
X014060Y011760D03*
X014673Y011740D03*
D221*
X013444Y011742D03*
D222*
X014060Y011742D03*
D223*
X014673Y011742D03*
D224*
X014674Y011751D03*
X013446Y011747D03*
X013446Y011744D03*
D225*
X014062Y011749D03*
D226*
X014674Y011749D03*
D227*
X014062Y011751D03*
D228*
X013450Y011763D03*
D229*
X014060Y011763D03*
D230*
X014672Y011763D03*
D231*
X013450Y011765D03*
D232*
X014060Y011765D03*
D233*
X014672Y011765D03*
D234*
X014063Y011767D03*
D235*
X014672Y011767D03*
D236*
X014063Y011770D03*
D237*
X014672Y011770D03*
D238*
X013449Y011772D03*
X013449Y011774D03*
D239*
X014063Y011774D03*
X014063Y011772D03*
D240*
X014673Y011772D03*
X014673Y011774D03*
D241*
X015161Y011783D03*
X012963Y011776D03*
D242*
X013450Y011776D03*
D243*
X014063Y011776D03*
D244*
X014673Y011776D03*
D245*
X015161Y011786D03*
X012963Y011781D03*
X012963Y011779D03*
D246*
X013450Y011779D03*
X013450Y011781D03*
D247*
X014065Y011793D03*
X014065Y011795D03*
X014673Y011781D03*
X014673Y011779D03*
D248*
X012971Y011790D03*
X012967Y011783D03*
D249*
X014062Y011783D03*
D250*
X014672Y011783D03*
D251*
X012971Y011788D03*
X012967Y011786D03*
D252*
X014062Y011786D03*
D253*
X014672Y011786D03*
D254*
X014062Y011788D03*
D255*
X014062Y011790D03*
D256*
X012976Y011793D03*
X012976Y011795D03*
D257*
X014062Y011797D03*
D258*
X014670Y011797D03*
D259*
X014062Y011799D03*
D260*
X014670Y011799D03*
D261*
X013452Y011802D03*
D262*
X014066Y011802D03*
D263*
X014671Y011802D03*
D264*
X013452Y011804D03*
D265*
X014066Y011804D03*
D266*
X014671Y011804D03*
D267*
X013455Y011806D03*
X013455Y011809D03*
D268*
X014671Y011809D03*
X014671Y011806D03*
D269*
X012993Y011811D03*
D270*
X013457Y011811D03*
X014066Y011825D03*
D271*
X014065Y011811D03*
D272*
X014670Y011811D03*
D273*
X012993Y011813D03*
D274*
X013457Y011813D03*
X014066Y011822D03*
D275*
X014065Y011813D03*
D276*
X014670Y011813D03*
D277*
X015127Y011815D03*
X015127Y011820D03*
X012998Y011820D03*
X012998Y011815D03*
D278*
X013457Y011815D03*
X013457Y011820D03*
D279*
X014065Y011820D03*
X014065Y011815D03*
D280*
X015127Y011818D03*
X012998Y011818D03*
D281*
X013457Y011818D03*
D282*
X014065Y011818D03*
D283*
X014670Y011818D03*
D284*
X014670Y011820D03*
D285*
X013457Y011822D03*
D286*
X014671Y011822D03*
D287*
X013457Y011825D03*
D288*
X014671Y011825D03*
D289*
X013462Y011827D03*
X013462Y011829D03*
D290*
X014067Y011829D03*
X014067Y011827D03*
D291*
X014667Y011827D03*
X014667Y011829D03*
D292*
X014062Y011832D03*
X014062Y011838D03*
D293*
X014062Y011836D03*
X014062Y011834D03*
D294*
X014066Y011841D03*
X014066Y011843D03*
D295*
X014062Y011845D03*
X014062Y011852D03*
D296*
X014062Y011850D03*
X014062Y011848D03*
D297*
X014064Y011855D03*
X014064Y011857D03*
D298*
X014064Y011859D03*
D299*
X014062Y011861D03*
X014062Y011864D03*
D300*
X014064Y011866D03*
D301*
X014064Y011868D03*
D302*
X014062Y011871D03*
X014062Y011875D03*
X014062Y011877D03*
D303*
X014062Y011873D03*
D304*
X014064Y011880D03*
D305*
X014064Y011882D03*
D306*
X014062Y011884D03*
X014062Y011889D03*
X014062Y011891D03*
D307*
X014062Y011887D03*
D308*
X014064Y011894D03*
D309*
X014064Y011896D03*
D310*
X014062Y011898D03*
D311*
X014062Y011900D03*
D312*
X014065Y011903D03*
X014065Y011905D03*
D313*
X014065Y011907D03*
D314*
X014062Y011910D03*
X014062Y011912D03*
X014062Y011917D03*
D315*
X014062Y011914D03*
D316*
X014062Y011919D03*
X014062Y011923D03*
X014062Y011926D03*
D317*
X014062Y011921D03*
D318*
X014062Y011928D03*
X014062Y011935D03*
D319*
X014062Y011933D03*
X014062Y011930D03*
D320*
X014066Y011937D03*
X014066Y011939D03*
D321*
X014063Y011942D03*
D322*
X014063Y011944D03*
X014063Y011946D03*
D323*
X014066Y011949D03*
D324*
X014066Y011951D03*
D325*
X014063Y011953D03*
D326*
X014063Y011956D03*
D327*
X014066Y011958D03*
X014066Y011960D03*
D328*
X014062Y011962D03*
D329*
X014062Y011965D03*
D330*
X014064Y011967D03*
D331*
X014064Y011969D03*
D332*
X014062Y011972D03*
X014062Y011974D03*
D333*
X014065Y011976D03*
D334*
X014065Y011979D03*
D335*
X014062Y011981D03*
X014062Y011985D03*
D336*
X014062Y011983D03*
D337*
X014062Y011988D03*
X014062Y011992D03*
X014062Y011995D03*
D338*
X014062Y011990D03*
D339*
X014062Y011997D03*
D340*
X014062Y011999D03*
D341*
X014065Y012001D03*
D342*
X014065Y012004D03*
D343*
X014062Y012006D03*
X014062Y012008D03*
D344*
X014066Y012011D03*
D345*
X014066Y012013D03*
D346*
X014063Y012015D03*
D347*
X014063Y012018D03*
D348*
X014063Y012020D03*
X014063Y012022D03*
D349*
X014063Y012024D03*
D350*
X014066Y012027D03*
X014066Y012029D03*
D351*
X014063Y012031D03*
D352*
X014063Y012034D03*
D353*
X014062Y012036D03*
X014062Y012041D03*
X014062Y012043D03*
D354*
X014062Y012038D03*
D355*
X014062Y012045D03*
D356*
X014062Y012047D03*
D357*
X014062Y012050D03*
X014062Y012054D03*
X014062Y012057D03*
D358*
X014062Y012052D03*
D359*
X014062Y012059D03*
D360*
X014062Y012061D03*
D361*
X014062Y012063D03*
D362*
X014062Y012066D03*
D363*
X014064Y012068D03*
X014064Y012070D03*
D364*
X014062Y012073D03*
D365*
X014062Y012075D03*
X014062Y012077D03*
D366*
X014062Y012080D03*
D367*
X014062Y012082D03*
D368*
X014063Y012084D03*
X014063Y012089D03*
X014063Y012091D03*
D369*
X014063Y012086D03*
D370*
X014062Y012093D03*
D371*
X014062Y012096D03*
D372*
X014062Y012098D03*
D373*
X014062Y012100D03*
D374*
X014062Y012103D03*
X014062Y012105D03*
D375*
X014062Y012107D03*
X014062Y012114D03*
D376*
X014062Y012112D03*
X014062Y012109D03*
X014062Y012116D03*
D377*
X014062Y012119D03*
D378*
X014062Y012121D03*
D379*
X014062Y012123D03*
X014062Y012126D03*
D380*
X014062Y012128D03*
D381*
X014062Y012130D03*
D382*
X014063Y012132D03*
D383*
X014063Y012135D03*
D384*
X014062Y012137D03*
X014062Y012139D03*
D385*
X014060Y012142D03*
D386*
X014060Y012144D03*
D387*
X014062Y012146D03*
D388*
X014062Y012148D03*
D389*
X014062Y012151D03*
X014062Y012153D03*
D390*
X014062Y012155D03*
D391*
X014062Y012158D03*
X014062Y012160D03*
D392*
X014062Y012162D03*
D393*
X014062Y012165D03*
D394*
X014062Y012167D03*
D395*
X014062Y012169D03*
D396*
X014062Y012171D03*
X014062Y012174D03*
D397*
X014063Y012176D03*
D398*
X014063Y012178D03*
D399*
X014063Y012181D03*
D400*
X014063Y012183D03*
D401*
X014062Y012185D03*
X014062Y012188D03*
D402*
X014062Y012190D03*
D403*
X014062Y012192D03*
X014062Y012194D03*
D404*
X014062Y012197D03*
D405*
X014062Y012199D03*
D406*
X014062Y012201D03*
D407*
X014062Y012204D03*
D408*
X014062Y012206D03*
X014062Y012208D03*
D409*
X014060Y012210D03*
D410*
X014060Y012213D03*
D411*
X014061Y012215D03*
D412*
X014061Y012217D03*
D413*
X014061Y012220D03*
X014061Y012222D03*
D414*
X014061Y012224D03*
D415*
X014061Y012227D03*
D416*
X014060Y012229D03*
D417*
X014060Y012231D03*
D418*
X014060Y012233D03*
X014060Y012236D03*
D419*
X014060Y012238D03*
D420*
X014060Y012240D03*
X014060Y012243D03*
D421*
X014060Y012245D03*
D422*
X014060Y012247D03*
D423*
X014060Y012250D03*
D424*
X014060Y012252D03*
D425*
X014060Y012254D03*
X014060Y012256D03*
D426*
X014061Y012259D03*
D427*
X014061Y012261D03*
D428*
X014060Y012263D03*
D429*
X014060Y012266D03*
D430*
X014060Y012268D03*
X014060Y012270D03*
D431*
X014060Y012272D03*
D432*
X014060Y012275D03*
D433*
X014058Y012277D03*
X014058Y012282D03*
D434*
X014058Y012279D03*
D435*
X014060Y012284D03*
D436*
X014060Y012286D03*
D437*
X014060Y012289D03*
X014060Y012291D03*
D438*
X014058Y012293D03*
D439*
X014058Y012295D03*
D440*
X014060Y012298D03*
D441*
X014060Y012300D03*
D442*
X014060Y012302D03*
X014060Y012305D03*
D443*
X014058Y012307D03*
D444*
X014058Y012309D03*
D445*
X014060Y012312D03*
D446*
X014060Y012314D03*
D447*
X014056Y012316D03*
X014056Y012318D03*
D448*
X014056Y012321D03*
D449*
X014058Y012323D03*
X014058Y012325D03*
D450*
X014058Y012328D03*
D451*
X014058Y012330D03*
D452*
X014058Y012332D03*
D453*
X014058Y012334D03*
D454*
X014058Y012337D03*
X014058Y012339D03*
D455*
X014058Y012341D03*
D456*
X014058Y012344D03*
D457*
X014055Y012346D03*
D458*
X014055Y012348D03*
D459*
X014055Y012351D03*
X014055Y012353D03*
D460*
X014058Y012355D03*
D461*
X014058Y012357D03*
X014058Y012360D03*
D462*
X014055Y012362D03*
D463*
X014055Y012364D03*
D464*
X014055Y012367D03*
D465*
X014055Y012369D03*
D466*
X014055Y012371D03*
X014055Y012374D03*
D467*
X014055Y012376D03*
D468*
X014055Y012378D03*
D469*
X014055Y012380D03*
D470*
X014055Y012383D03*
D471*
X014053Y012385D03*
X014053Y012387D03*
D472*
X014053Y012390D03*
D473*
X014053Y012392D03*
D474*
X014052Y012394D03*
D475*
X014052Y012397D03*
D476*
X014052Y012399D03*
X014052Y012401D03*
D477*
X014053Y012403D03*
D478*
X014053Y012406D03*
D479*
X014053Y012408D03*
X014053Y012413D03*
D480*
X014053Y012410D03*
D481*
X014052Y012415D03*
D482*
X014052Y012417D03*
D483*
X014052Y012419D03*
X014052Y012422D03*
D484*
X014053Y012424D03*
D485*
X014053Y012426D03*
D486*
X014053Y012429D03*
D487*
X014053Y012431D03*
D488*
X014050Y012433D03*
X014050Y012436D03*
D489*
X014050Y012438D03*
D490*
X014050Y012440D03*
D491*
X014053Y012442D03*
D492*
X014053Y012445D03*
D493*
X014051Y012447D03*
X014051Y012449D03*
D494*
X014051Y012452D03*
D495*
X014052Y012454D03*
X014052Y012456D03*
D496*
X014051Y012459D03*
D497*
X014051Y012461D03*
D498*
X014051Y012463D03*
D499*
X014051Y012465D03*
D500*
X014050Y012468D03*
X014050Y012470D03*
D501*
X014050Y012472D03*
D502*
X014050Y012475D03*
D503*
X014051Y012477D03*
D504*
X014051Y012479D03*
D505*
X014050Y012481D03*
X014050Y012484D03*
D506*
X014051Y012486D03*
D507*
X014051Y012488D03*
X014051Y012491D03*
D508*
X014050Y012493D03*
D509*
X014050Y012495D03*
D510*
X014050Y012498D03*
D511*
X014050Y012500D03*
D512*
X014051Y012502D03*
X014051Y012504D03*
D513*
X014047Y012507D03*
D514*
X014047Y012509D03*
D515*
X014051Y012511D03*
D516*
X014051Y012514D03*
D517*
X014050Y012516D03*
X014050Y012518D03*
D518*
X014051Y012521D03*
D519*
X014051Y012523D03*
D520*
X014050Y012525D03*
X014050Y012530D03*
D521*
X014050Y012527D03*
D522*
X014053Y012532D03*
D523*
X014053Y012534D03*
D524*
X014053Y012537D03*
X014053Y012539D03*
D525*
X014055Y012541D03*
D526*
X014055Y012543D03*
D527*
X014055Y012546D03*
D528*
X014055Y012548D03*
D529*
X014063Y012681D03*
X014063Y012684D03*
D530*
X014133Y009044D03*
X014142Y009044D03*
X014133Y008175D03*
X014116Y008175D03*
X014159Y008175D03*
X013141Y007510D03*
X012989Y007539D03*
X013620Y006980D03*
X014655Y006967D03*
X014930Y006717D03*
D531*
X013355Y006721D03*
X013656Y008510D03*
X014055Y009044D03*
D532*
X014072Y009044D03*
X014928Y006721D03*
D533*
X013357Y006725D03*
D534*
X014928Y006725D03*
D535*
X013360Y006729D03*
X014924Y008777D03*
D536*
X013752Y006840D03*
X014926Y006729D03*
D537*
X014644Y006963D03*
X013750Y006844D03*
X013364Y006734D03*
X012902Y007649D03*
X012902Y007654D03*
X012902Y007658D03*
X012902Y007666D03*
X012902Y007836D03*
X012902Y007844D03*
X012902Y007849D03*
X012902Y007853D03*
X012902Y007857D03*
X012902Y007861D03*
X012902Y007866D03*
X014013Y009044D03*
X015386Y007844D03*
X015386Y007840D03*
X015386Y007836D03*
X015386Y007832D03*
X015386Y007823D03*
X015386Y007819D03*
X015386Y007671D03*
X015386Y007666D03*
X015386Y007658D03*
D538*
X014924Y006734D03*
X014924Y008773D03*
D539*
X014920Y008769D03*
X014526Y007751D03*
X014526Y007743D03*
X014526Y007734D03*
X014526Y007730D03*
X015382Y007641D03*
X013745Y006848D03*
X013364Y006738D03*
D540*
X014523Y007675D03*
X014528Y007700D03*
X014528Y007705D03*
X014528Y007709D03*
X014528Y007713D03*
X014528Y007722D03*
X014528Y007726D03*
X014528Y007738D03*
X014528Y007747D03*
X014528Y007755D03*
X014528Y007760D03*
X014528Y007764D03*
X014528Y007768D03*
X014528Y007777D03*
X014528Y007781D03*
X014528Y007785D03*
X014528Y007789D03*
X014528Y007794D03*
X014523Y007802D03*
X014528Y007806D03*
X014523Y007811D03*
X014523Y007815D03*
X014523Y007819D03*
X014523Y007823D03*
X015380Y007861D03*
X014922Y006738D03*
X013658Y008523D03*
X013370Y008769D03*
X013947Y008769D03*
D541*
X013936Y008722D03*
X013983Y008947D03*
X013983Y008951D03*
X014301Y008947D03*
X014309Y008917D03*
X014309Y008913D03*
X014309Y008909D03*
X014314Y008896D03*
X014314Y008892D03*
X014322Y008849D03*
X014326Y008828D03*
X014331Y008807D03*
X014335Y008781D03*
X014335Y008777D03*
X014335Y008773D03*
X014339Y008760D03*
X014339Y008756D03*
X014343Y008735D03*
X014343Y008731D03*
X014347Y008718D03*
X014958Y008209D03*
X014962Y008205D03*
X014962Y008201D03*
X014971Y008184D03*
X014996Y008129D03*
X015039Y008031D03*
X015043Y008027D03*
X015056Y007493D03*
X014996Y007344D03*
X014988Y007327D03*
X014988Y007323D03*
X014988Y007319D03*
X014983Y007314D03*
X014983Y007310D03*
X014975Y007293D03*
X014975Y007289D03*
X014971Y007285D03*
X014971Y007281D03*
X014466Y007043D03*
X014462Y007052D03*
X014458Y007060D03*
X014458Y007064D03*
X014453Y007073D03*
X014453Y007077D03*
X014449Y007081D03*
X014449Y007086D03*
X014445Y007090D03*
X014445Y007094D03*
X014441Y007102D03*
X014437Y007115D03*
X014432Y007124D03*
X014424Y007141D03*
X014424Y007145D03*
X014420Y007153D03*
X014411Y007170D03*
X014411Y007175D03*
X014407Y007183D03*
X014407Y007187D03*
X014403Y007196D03*
X014398Y007204D03*
X014398Y007208D03*
X014394Y007217D03*
X014390Y007225D03*
X014390Y007230D03*
X014386Y007234D03*
X014386Y007238D03*
X014381Y007242D03*
X014381Y007247D03*
X014381Y007251D03*
X014377Y007255D03*
X014377Y007259D03*
X014335Y007365D03*
X014335Y007370D03*
X014492Y007577D03*
X014496Y007586D03*
X014496Y007590D03*
X014500Y007594D03*
X014500Y007599D03*
X014504Y007603D03*
X014504Y007611D03*
X014496Y007912D03*
X014492Y007925D03*
X014487Y007929D03*
X014487Y007934D03*
X013796Y007925D03*
X013796Y007921D03*
X013792Y007917D03*
X013792Y007912D03*
X013788Y007908D03*
X013788Y007904D03*
X013784Y007900D03*
X013784Y007895D03*
X013771Y007861D03*
X013771Y007632D03*
X013775Y007620D03*
X013779Y007603D03*
X013784Y007594D03*
X013788Y007586D03*
X013792Y007577D03*
X013792Y007573D03*
X013796Y007569D03*
X013796Y007565D03*
X013801Y007560D03*
X013949Y007374D03*
X013945Y007361D03*
X013945Y007357D03*
X013940Y007348D03*
X013936Y007336D03*
X013928Y007310D03*
X013923Y007302D03*
X013923Y007298D03*
X013911Y007268D03*
X013907Y007259D03*
X013907Y007255D03*
X013907Y007251D03*
X013902Y007247D03*
X013898Y007234D03*
X013894Y007217D03*
X013890Y007213D03*
X013890Y007208D03*
X013890Y007204D03*
X013885Y007200D03*
X013885Y007196D03*
X013881Y007192D03*
X013881Y007187D03*
X013873Y007170D03*
X013868Y007158D03*
X013860Y007136D03*
X013856Y007128D03*
X013856Y007124D03*
X013851Y007119D03*
X013851Y007115D03*
X013847Y007102D03*
X013843Y007094D03*
X013839Y007086D03*
X013834Y007077D03*
X013830Y007064D03*
X013817Y007039D03*
X013817Y007035D03*
X013813Y007026D03*
X013805Y007013D03*
X013805Y007009D03*
X013805Y007005D03*
X013796Y006992D03*
X013796Y006988D03*
X013792Y006980D03*
X013784Y006963D03*
X013364Y006742D03*
X013321Y007268D03*
X013317Y007281D03*
X013309Y007293D03*
X013309Y007298D03*
X013304Y007306D03*
X013300Y007314D03*
X013287Y007344D03*
X013232Y007484D03*
X013241Y008023D03*
X013245Y008027D03*
X013245Y008031D03*
X013249Y008035D03*
X013249Y008040D03*
X013262Y008065D03*
X013275Y008090D03*
X013283Y008112D03*
X013304Y008162D03*
X013309Y008175D03*
X013317Y008192D03*
X013317Y008196D03*
X013321Y008205D03*
X013330Y008226D03*
X013338Y008247D03*
X013338Y008251D03*
X014475Y007022D03*
X014479Y007009D03*
D542*
X014470Y007030D03*
X014470Y007035D03*
X014428Y007132D03*
X014415Y007162D03*
X014373Y007264D03*
X014373Y007268D03*
X014360Y007298D03*
X014483Y007565D03*
X014966Y007272D03*
X014966Y007268D03*
X014966Y007264D03*
X014979Y007298D03*
X014979Y007302D03*
X014979Y007306D03*
X014648Y006958D03*
X014924Y006742D03*
X013864Y007145D03*
X013864Y007149D03*
X013877Y007179D03*
X013877Y007183D03*
X013919Y007289D03*
X013932Y007327D03*
X013822Y007047D03*
X013822Y007043D03*
X013809Y007022D03*
X013809Y007018D03*
X013313Y007285D03*
X013313Y007289D03*
X013767Y007645D03*
X013809Y007946D03*
X013313Y008184D03*
X013258Y008052D03*
X013932Y008705D03*
X014305Y008926D03*
X014305Y008934D03*
X014305Y008938D03*
X014966Y008196D03*
X014966Y008192D03*
X014979Y008167D03*
D543*
X014947Y008239D03*
X014952Y008251D03*
X014981Y008302D03*
X014986Y008307D03*
X014986Y008311D03*
X014990Y008315D03*
X014990Y008319D03*
X014998Y008328D03*
X015003Y008336D03*
X015011Y008349D03*
X015019Y008362D03*
X015024Y008366D03*
X015036Y008387D03*
X015049Y008404D03*
X015058Y008417D03*
X015066Y008430D03*
X015075Y008442D03*
X015087Y008463D03*
X015092Y008468D03*
X015092Y008472D03*
X015096Y008476D03*
X015100Y008485D03*
X015104Y008493D03*
X015109Y008497D03*
X015113Y008506D03*
X015117Y008514D03*
X015367Y007870D03*
X015066Y007505D03*
X014960Y007238D03*
X014964Y007225D03*
X014969Y007217D03*
X014977Y007204D03*
X014977Y007200D03*
X014981Y007196D03*
X014986Y007192D03*
X014986Y007187D03*
X014990Y007183D03*
X014994Y007179D03*
X014998Y007170D03*
X015007Y007158D03*
X015011Y007153D03*
X015015Y007145D03*
X015019Y007141D03*
X015019Y007136D03*
X015024Y007132D03*
X015062Y007077D03*
X015079Y007052D03*
X015087Y007039D03*
X015092Y007030D03*
X015121Y006971D03*
X014553Y006865D03*
X014337Y007382D03*
X014430Y007488D03*
X014434Y007493D03*
X014439Y007501D03*
X014443Y007505D03*
X014447Y007510D03*
X014451Y007514D03*
X014456Y007522D03*
X014460Y007526D03*
X014456Y007980D03*
X014451Y007984D03*
X014447Y007989D03*
X013854Y008010D03*
X013849Y008006D03*
X013849Y008001D03*
X013845Y007997D03*
X013837Y007989D03*
X013824Y007526D03*
X013837Y007510D03*
X013841Y007505D03*
X013845Y007501D03*
X013947Y007382D03*
X013773Y006941D03*
X013366Y006746D03*
X013162Y006975D03*
X013167Y006984D03*
X013171Y006988D03*
X013171Y006992D03*
X013171Y006996D03*
X013179Y007009D03*
X013184Y007013D03*
X013184Y007018D03*
X013188Y007022D03*
X013192Y007030D03*
X013196Y007035D03*
X013201Y007043D03*
X013205Y007052D03*
X013218Y007069D03*
X013226Y007081D03*
X013230Y007086D03*
X013235Y007094D03*
X013328Y007242D03*
X013328Y007247D03*
X013328Y007251D03*
X013256Y008374D03*
X013239Y008400D03*
X013213Y008438D03*
X013196Y008463D03*
X013192Y008472D03*
X013188Y008476D03*
X013188Y008480D03*
X013184Y008485D03*
X013179Y008493D03*
X013175Y008497D03*
X013921Y008688D03*
X013993Y008964D03*
D544*
X014369Y008680D03*
X014437Y008001D03*
X014424Y007480D03*
X013868Y008023D03*
X013224Y008001D03*
X013169Y008510D03*
X013169Y008514D03*
X013635Y006954D03*
X014920Y006746D03*
X015123Y006963D03*
X015123Y006967D03*
X015111Y006992D03*
X015111Y006996D03*
X015098Y007018D03*
X015098Y007022D03*
X015111Y008502D03*
D545*
X015121Y008527D03*
X014629Y008531D03*
X014426Y008014D03*
X014417Y007476D03*
X014405Y007463D03*
X013858Y007488D03*
X013854Y007493D03*
X013870Y008027D03*
X013875Y008031D03*
X013264Y008646D03*
X013268Y008650D03*
X013260Y008642D03*
X013251Y008633D03*
X013247Y008629D03*
X013239Y008620D03*
X013235Y008616D03*
X013226Y008612D03*
X013226Y008608D03*
X013222Y008603D03*
X013213Y008595D03*
X013209Y008591D03*
X013205Y008586D03*
X013196Y008578D03*
X013192Y008574D03*
X013184Y008565D03*
X013179Y008557D03*
X013171Y008548D03*
X013167Y008540D03*
X013158Y008531D03*
X013370Y008756D03*
X015066Y007997D03*
X015363Y007628D03*
X015121Y006958D03*
X014922Y006751D03*
X013370Y006751D03*
D546*
X013368Y006755D03*
X013288Y006831D03*
X013271Y006848D03*
X013254Y006865D03*
X013894Y007450D03*
X013907Y007437D03*
X013915Y007429D03*
X013919Y007425D03*
X013932Y007412D03*
X014343Y007399D03*
X014377Y007437D03*
X013902Y008052D03*
X013907Y008671D03*
X014212Y009044D03*
X014992Y008675D03*
X015005Y008663D03*
X015009Y008659D03*
X015017Y008650D03*
X015022Y008646D03*
X015034Y008633D03*
X015039Y008629D03*
X015064Y008603D03*
X015072Y008595D03*
X015077Y008591D03*
X015094Y008569D03*
X015077Y007989D03*
X013313Y008684D03*
X013309Y008680D03*
D547*
X013911Y008675D03*
X014916Y008748D03*
X015000Y008667D03*
X015030Y008637D03*
X015056Y008612D03*
X015098Y008565D03*
X015357Y007624D03*
X015013Y006844D03*
X014920Y006755D03*
X013940Y007399D03*
X013928Y007416D03*
X013923Y007420D03*
X013911Y007433D03*
X013898Y007446D03*
X013635Y006950D03*
X013733Y006874D03*
X013304Y006818D03*
X013292Y006827D03*
X013279Y006840D03*
X013262Y006857D03*
X013207Y007510D03*
D548*
X012936Y007620D03*
X013368Y006759D03*
X014347Y007408D03*
X014364Y007425D03*
X014390Y008044D03*
X014377Y008052D03*
X013919Y008065D03*
X013902Y008667D03*
X013516Y008637D03*
X014275Y008968D03*
X014916Y008743D03*
X015352Y007878D03*
X015009Y006840D03*
D549*
X014918Y006759D03*
X014795Y006844D03*
X014782Y006852D03*
X014769Y006861D03*
X014765Y006865D03*
X014562Y006878D03*
X014350Y007412D03*
X014354Y007416D03*
X014146Y008171D03*
X013663Y008536D03*
X013527Y008629D03*
X013523Y008633D03*
X013510Y008642D03*
X013502Y008646D03*
X013497Y008650D03*
X013485Y008659D03*
D550*
X013459Y008675D03*
X013455Y008680D03*
X013447Y008684D03*
X013370Y008739D03*
X013544Y008620D03*
X013548Y008616D03*
X013201Y007989D03*
X014358Y008065D03*
X014757Y008629D03*
X014769Y008637D03*
X014803Y006840D03*
X014816Y006831D03*
X013527Y006869D03*
X013514Y006861D03*
X013502Y006852D03*
X013480Y006840D03*
X013468Y006831D03*
X013370Y006763D03*
D551*
X013487Y006844D03*
X013495Y006848D03*
X013542Y006878D03*
X012944Y007616D03*
X013665Y008540D03*
X014738Y008616D03*
X014750Y008625D03*
X014763Y008633D03*
X014805Y008659D03*
X014810Y008663D03*
X014822Y008671D03*
X014916Y006763D03*
D552*
X013639Y006941D03*
X013372Y006768D03*
X013190Y007984D03*
X014343Y008073D03*
X014716Y008603D03*
X014831Y008675D03*
X014839Y008680D03*
D553*
X013569Y008608D03*
X013374Y008731D03*
X013184Y007518D03*
X014918Y006768D03*
D554*
X015333Y007887D03*
X014913Y008726D03*
X014324Y008082D03*
X013964Y008086D03*
X013875Y008646D03*
X013374Y008726D03*
X013374Y006772D03*
D555*
X013182Y007980D03*
X013868Y008642D03*
X014916Y006772D03*
D556*
X015329Y007611D03*
X013374Y006776D03*
D557*
X013173Y007522D03*
X014144Y008167D03*
X013860Y008637D03*
X013377Y008722D03*
X015327Y007891D03*
X014916Y006776D03*
D558*
X013374Y006780D03*
D559*
X014913Y006780D03*
X015321Y007607D03*
D560*
X013826Y008620D03*
X013669Y008553D03*
X013377Y006785D03*
D561*
X014913Y006785D03*
X013379Y008714D03*
D562*
X014483Y008612D03*
X014496Y008608D03*
X014619Y008557D03*
X015314Y007895D03*
X013377Y006789D03*
D563*
X012976Y007895D03*
X013158Y007972D03*
X013667Y008557D03*
X014290Y008095D03*
X014913Y006789D03*
D564*
X013379Y006793D03*
D565*
X013379Y006797D03*
X014913Y006793D03*
X015304Y007900D03*
X014617Y008561D03*
D566*
X013671Y008561D03*
X013145Y007967D03*
X013379Y006801D03*
X014913Y006797D03*
D567*
X014911Y006801D03*
X013381Y006806D03*
X012995Y007904D03*
D568*
X013131Y007963D03*
X013381Y006810D03*
X014911Y006806D03*
D569*
X014909Y006810D03*
X015282Y007594D03*
X013684Y006933D03*
X013383Y006814D03*
D570*
X013675Y006924D03*
X014604Y006933D03*
X014608Y006929D03*
X014909Y006814D03*
X014612Y008574D03*
X014905Y008684D03*
X013675Y008574D03*
D571*
X013945Y008078D03*
X014746Y008620D03*
X014776Y008642D03*
X014784Y008646D03*
X014788Y008650D03*
X015089Y007984D03*
X013724Y006882D03*
X013533Y006874D03*
X013521Y006865D03*
X013461Y006827D03*
X013449Y006818D03*
D572*
X013667Y006916D03*
X014909Y006818D03*
D573*
X014651Y006950D03*
X014557Y006874D03*
X014345Y007404D03*
X014371Y007429D03*
X014375Y007433D03*
X013938Y007404D03*
X013934Y007408D03*
X013298Y006823D03*
X013909Y008056D03*
X013913Y008061D03*
X014396Y008040D03*
X014383Y008667D03*
X014006Y008968D03*
X013370Y008748D03*
X014986Y008680D03*
X014994Y008671D03*
D574*
X014913Y008735D03*
X014816Y008667D03*
X014731Y008612D03*
X014723Y008608D03*
X014350Y008069D03*
X013561Y008612D03*
X013370Y008735D03*
X015342Y007616D03*
X014833Y006823D03*
X014824Y006827D03*
X014566Y006882D03*
X013548Y006882D03*
X013455Y006823D03*
D575*
X013194Y007514D03*
X013928Y008069D03*
X013936Y008073D03*
X014364Y008061D03*
X014627Y008540D03*
X014394Y008659D03*
X013898Y008663D03*
X013474Y008667D03*
X013466Y008671D03*
X014916Y008739D03*
X014742Y006882D03*
X014776Y006857D03*
X014788Y006848D03*
X014988Y006823D03*
D576*
X014994Y006827D03*
X014761Y006869D03*
X014757Y006874D03*
X014748Y006878D03*
X014358Y007420D03*
X013726Y006878D03*
X014371Y008056D03*
X014388Y008663D03*
X013536Y008625D03*
X013370Y008743D03*
X015350Y007620D03*
D577*
X015000Y006831D03*
X014627Y008536D03*
D578*
X013902Y007442D03*
X013283Y006835D03*
D579*
X013472Y006835D03*
X014651Y006946D03*
X014807Y006835D03*
D580*
X013754Y006835D03*
D581*
X015005Y006835D03*
X014386Y008048D03*
D582*
X014530Y006840D03*
D583*
X015024Y006852D03*
X015028Y006857D03*
X015032Y006861D03*
X015041Y006869D03*
X015045Y006874D03*
X015053Y006882D03*
X015066Y006895D03*
X015087Y006920D03*
X015096Y006929D03*
X015100Y006933D03*
X014396Y007454D03*
X014392Y007450D03*
X014341Y007395D03*
X014341Y007391D03*
X013943Y007395D03*
X013887Y007454D03*
X013883Y007459D03*
X014405Y008031D03*
X014379Y008671D03*
X015028Y008642D03*
X015045Y008625D03*
X015053Y008616D03*
X015079Y008586D03*
X015083Y008582D03*
X015087Y008578D03*
X015100Y008561D03*
X015109Y008553D03*
X015109Y008548D03*
X015121Y008531D03*
X013370Y008752D03*
X013302Y008675D03*
X013294Y008671D03*
X013290Y008667D03*
X012929Y007624D03*
X013171Y006950D03*
X013179Y006941D03*
X013184Y006937D03*
X013192Y006929D03*
X013196Y006924D03*
X013205Y006916D03*
X013209Y006912D03*
X013213Y006907D03*
X013222Y006899D03*
X013226Y006895D03*
X013235Y006886D03*
X013239Y006882D03*
X013247Y006874D03*
X013251Y006869D03*
X013260Y006861D03*
X013268Y006852D03*
X013277Y006844D03*
D584*
X014536Y006844D03*
D585*
X014540Y006848D03*
X013629Y006971D03*
X012900Y007671D03*
X012900Y007675D03*
X012900Y007679D03*
X012900Y007683D03*
X012900Y007688D03*
X012900Y007692D03*
X012900Y007794D03*
X012900Y007798D03*
X012900Y007806D03*
X012900Y007811D03*
X012900Y007815D03*
X012900Y007819D03*
X012900Y007823D03*
X012900Y007832D03*
X012900Y007840D03*
X013370Y008773D03*
X015388Y007815D03*
X015388Y007811D03*
X015388Y007806D03*
X015388Y007802D03*
X015388Y007798D03*
X015388Y007794D03*
X015388Y007789D03*
X015388Y007709D03*
X015388Y007700D03*
X015388Y007696D03*
X015388Y007692D03*
X015388Y007688D03*
X015388Y007683D03*
X015388Y007679D03*
X015388Y007675D03*
D586*
X015075Y007510D03*
X015092Y006924D03*
X015049Y006878D03*
X015036Y006865D03*
X015019Y006848D03*
X014388Y007446D03*
X014400Y008035D03*
X015049Y008620D03*
X015062Y008608D03*
X015092Y008574D03*
X015104Y008557D03*
X015117Y008536D03*
X013218Y007997D03*
X013162Y006958D03*
X013201Y006920D03*
X013218Y006903D03*
X013243Y006878D03*
D587*
X013279Y007365D03*
X013279Y007370D03*
X013262Y007408D03*
X013254Y007433D03*
X013249Y007446D03*
X013758Y007802D03*
X013762Y007823D03*
X013266Y008073D03*
X013334Y008235D03*
X013940Y008739D03*
X013940Y008743D03*
X013953Y008786D03*
X013953Y008790D03*
X013953Y008794D03*
X013966Y008849D03*
X013966Y008854D03*
X013966Y008858D03*
X013966Y008862D03*
X013966Y008866D03*
X013966Y008871D03*
X013970Y008879D03*
X013970Y008883D03*
X013970Y008887D03*
X013970Y008892D03*
X013970Y008896D03*
X013979Y008926D03*
X013979Y008934D03*
X014632Y008523D03*
X015013Y008086D03*
X015017Y008078D03*
X015026Y008056D03*
X014504Y007895D03*
X014517Y007857D03*
X014517Y007853D03*
X014521Y007836D03*
X014521Y007832D03*
X014521Y007671D03*
X014521Y007666D03*
X014521Y007658D03*
X014517Y007645D03*
X014517Y007641D03*
X015026Y007420D03*
X015026Y007416D03*
X015030Y007429D03*
X015039Y007450D03*
X015043Y007459D03*
X015017Y007399D03*
X015017Y007395D03*
X013745Y006852D03*
D588*
X014545Y006852D03*
X015384Y007645D03*
X015384Y007649D03*
X015384Y007654D03*
X015384Y007849D03*
X015384Y007853D03*
X015384Y007857D03*
X014629Y008519D03*
X012904Y007645D03*
D589*
X013506Y006857D03*
X013892Y008659D03*
D590*
X014299Y008951D03*
X014956Y008218D03*
X015045Y008023D03*
X015045Y008018D03*
X015371Y007866D03*
X015371Y007632D03*
X015041Y007107D03*
X014549Y006861D03*
X014506Y006950D03*
X014502Y006954D03*
X014502Y006958D03*
X014494Y006975D03*
X014494Y006980D03*
X014490Y006984D03*
X014490Y006988D03*
X014477Y007013D03*
X014477Y007018D03*
X014367Y007281D03*
X014367Y007285D03*
X014354Y007314D03*
X014350Y007323D03*
X014350Y007327D03*
X014341Y007344D03*
X014341Y007348D03*
X014341Y007353D03*
X014337Y007357D03*
X014337Y007361D03*
X014490Y007573D03*
X014494Y007582D03*
X014477Y007946D03*
X014477Y007950D03*
X013815Y007955D03*
X013803Y007934D03*
X013798Y007929D03*
X013803Y007556D03*
X013815Y007539D03*
X013815Y007535D03*
X013943Y007353D03*
X013938Y007344D03*
X013938Y007340D03*
X013926Y007306D03*
X013913Y007272D03*
X013909Y007264D03*
X013900Y007242D03*
X013900Y007238D03*
X013896Y007230D03*
X013896Y007225D03*
X013798Y006996D03*
X013790Y006975D03*
X013786Y006971D03*
X013786Y006967D03*
X013777Y006950D03*
X013743Y006857D03*
X013633Y006958D03*
X013294Y007179D03*
X013302Y007192D03*
X013307Y007200D03*
X013319Y007217D03*
X013319Y007272D03*
X013281Y007162D03*
X013277Y007153D03*
X013226Y007493D03*
X012917Y007632D03*
X012917Y007874D03*
X013235Y008010D03*
X013239Y008018D03*
X013336Y008256D03*
X013307Y008302D03*
X013277Y008345D03*
D591*
X014519Y007849D03*
X014519Y007844D03*
X014519Y007840D03*
X014545Y006857D03*
D592*
X014356Y007310D03*
X014335Y007378D03*
X014453Y007518D03*
X014466Y007535D03*
X014470Y007539D03*
X014479Y007556D03*
X014962Y007251D03*
X014962Y007247D03*
X014962Y007242D03*
X014996Y007175D03*
X015005Y007162D03*
X015026Y007128D03*
X015030Y007124D03*
X015034Y007115D03*
X015047Y007098D03*
X015047Y007094D03*
X015051Y007090D03*
X015064Y007073D03*
X015072Y007060D03*
X015051Y008010D03*
X014950Y008230D03*
X014950Y008235D03*
X014950Y008243D03*
X014950Y008247D03*
X014954Y008256D03*
X014954Y008260D03*
X014962Y008273D03*
X014966Y008281D03*
X014971Y008285D03*
X014975Y008294D03*
X014979Y008298D03*
X015005Y008341D03*
X015009Y008345D03*
X015017Y008357D03*
X015026Y008370D03*
X015034Y008383D03*
X015039Y008391D03*
X015047Y008400D03*
X015051Y008408D03*
X015060Y008421D03*
X015064Y008425D03*
X015072Y008438D03*
X015077Y008447D03*
X015081Y008451D03*
X015081Y008455D03*
X015085Y008459D03*
X014920Y008760D03*
X014632Y008527D03*
X014360Y008688D03*
X013928Y008692D03*
X013661Y008527D03*
X013372Y008760D03*
X013198Y008459D03*
X013203Y008455D03*
X013207Y008451D03*
X013207Y008447D03*
X013211Y008442D03*
X013220Y008430D03*
X013220Y008425D03*
X013228Y008417D03*
X013228Y008413D03*
X013232Y008408D03*
X013241Y008396D03*
X013245Y008391D03*
X013258Y008370D03*
X013262Y008366D03*
X013266Y008362D03*
X013271Y008353D03*
X013275Y008349D03*
X013283Y008336D03*
X013288Y008332D03*
X013288Y008328D03*
X013296Y008319D03*
X013300Y008311D03*
X013309Y008298D03*
X013313Y008294D03*
X013317Y008285D03*
X013321Y008281D03*
X013326Y008273D03*
X013330Y008264D03*
X013817Y007963D03*
X013817Y007959D03*
X013822Y007967D03*
X013826Y007972D03*
X013826Y007976D03*
X013834Y007984D03*
X013826Y007522D03*
X013834Y007514D03*
X013949Y007378D03*
X013779Y006954D03*
X013741Y006861D03*
X013300Y007187D03*
X013296Y007183D03*
X013288Y007170D03*
X013271Y007145D03*
X013266Y007141D03*
X013266Y007136D03*
X013262Y007132D03*
X013258Y007128D03*
X013258Y007124D03*
X013254Y007119D03*
X013245Y007107D03*
X013241Y007102D03*
X013232Y007090D03*
X013220Y007073D03*
X013215Y007064D03*
X013211Y007060D03*
X013203Y007047D03*
X013198Y007039D03*
X013177Y007005D03*
X013309Y007204D03*
X013313Y007208D03*
X013326Y007234D03*
X013326Y007238D03*
X013326Y007255D03*
X013326Y007259D03*
X013220Y007501D03*
X014458Y007976D03*
X014466Y007967D03*
X014466Y007963D03*
X014470Y007959D03*
D593*
X014441Y007997D03*
X014432Y008006D03*
X014428Y007484D03*
X013860Y007484D03*
X013860Y008014D03*
X013864Y008018D03*
X013215Y007505D03*
X012923Y007628D03*
X013190Y007026D03*
X013165Y006980D03*
X013160Y006971D03*
X013160Y006967D03*
X013737Y006865D03*
X014648Y006954D03*
X014962Y007230D03*
X014962Y007234D03*
X015089Y007035D03*
X015094Y007026D03*
X015102Y007013D03*
X015102Y007009D03*
X015106Y007005D03*
X015115Y006988D03*
X015115Y006984D03*
X015119Y006980D03*
X015119Y006975D03*
X015060Y008001D03*
X015115Y008510D03*
X015119Y008519D03*
X015119Y008523D03*
X014292Y008960D03*
X013919Y008684D03*
X013173Y008506D03*
X013173Y008502D03*
X013165Y008519D03*
X013160Y008527D03*
D594*
X013182Y008561D03*
X013190Y008569D03*
X013279Y008659D03*
X013283Y008663D03*
X013661Y008531D03*
X013915Y008680D03*
X014373Y008675D03*
X014284Y008964D03*
X014916Y008752D03*
X015115Y008540D03*
X014420Y008018D03*
X014415Y008023D03*
X014411Y008027D03*
X013890Y008044D03*
X013885Y008040D03*
X013881Y008035D03*
X013868Y007476D03*
X013873Y007471D03*
X013877Y007467D03*
X013881Y007463D03*
X013945Y007391D03*
X014403Y007459D03*
X014411Y007467D03*
X014555Y006869D03*
X015060Y006886D03*
X015068Y006899D03*
X015072Y006903D03*
X015077Y006907D03*
X015081Y006912D03*
X015085Y006916D03*
X015102Y006937D03*
X015106Y006941D03*
X015115Y006950D03*
X015119Y006954D03*
X015361Y007874D03*
X013737Y006869D03*
X013190Y006933D03*
X013169Y006954D03*
X013160Y006963D03*
X012927Y007878D03*
D595*
X013639Y006886D03*
X015191Y007950D03*
D596*
X015185Y007548D03*
X014646Y006886D03*
X013095Y007548D03*
X014608Y008582D03*
D597*
X015062Y006891D03*
X013230Y006891D03*
X013175Y006946D03*
D598*
X013642Y006891D03*
D599*
X014642Y006891D03*
D600*
X014640Y006895D03*
X013648Y006895D03*
D601*
X013650Y006899D03*
X014634Y006899D03*
X014634Y006903D03*
X013680Y008582D03*
D602*
X014144Y008150D03*
X015178Y007955D03*
X014627Y006907D03*
X013652Y006903D03*
D603*
X013658Y006907D03*
X013107Y007955D03*
X013675Y008578D03*
X014608Y008578D03*
X015172Y007543D03*
D604*
X015272Y007590D03*
X014619Y006916D03*
X013661Y006912D03*
X013109Y007543D03*
D605*
X014623Y006912D03*
D606*
X013669Y006920D03*
X013118Y007959D03*
D607*
X013014Y007590D03*
X014617Y006920D03*
X015274Y007912D03*
D608*
X014610Y006924D03*
D609*
X014600Y006937D03*
X013680Y006929D03*
X015164Y007959D03*
D610*
X014612Y008569D03*
X013675Y008569D03*
X013124Y007539D03*
X013688Y006937D03*
D611*
X013003Y007594D03*
X014593Y006941D03*
X015284Y007908D03*
X014907Y008688D03*
D612*
X013635Y006946D03*
D613*
X013775Y006946D03*
X013249Y007111D03*
X013292Y008324D03*
X015068Y008434D03*
X015000Y007166D03*
D614*
X015039Y007111D03*
X014509Y006946D03*
X013330Y008268D03*
X013254Y008379D03*
X013215Y008434D03*
X015030Y008379D03*
D615*
X015111Y006946D03*
D616*
X015032Y007119D03*
X014964Y007255D03*
X014964Y007259D03*
X014468Y007039D03*
X014473Y007026D03*
X014481Y007005D03*
X014485Y006996D03*
X014485Y006992D03*
X014498Y006971D03*
X014498Y006967D03*
X014498Y006963D03*
X014371Y007272D03*
X014362Y007289D03*
X014362Y007293D03*
X014358Y007302D03*
X014358Y007306D03*
X014345Y007336D03*
X014345Y007340D03*
X014333Y007374D03*
X014473Y007543D03*
X014473Y007548D03*
X014481Y007560D03*
X014485Y007569D03*
X014481Y007942D03*
X014473Y007955D03*
X014952Y008222D03*
X014952Y008226D03*
X014964Y008277D03*
X015049Y008014D03*
X014358Y008692D03*
X014303Y008943D03*
X013989Y008960D03*
X013930Y008701D03*
X013930Y008697D03*
X013315Y008290D03*
X013324Y008277D03*
X013298Y008315D03*
X013268Y008357D03*
X013230Y008006D03*
X013230Y007488D03*
X013324Y007264D03*
X013324Y007230D03*
X013324Y007225D03*
X013315Y007213D03*
X013273Y007149D03*
X013781Y006958D03*
X013794Y006984D03*
X013917Y007281D03*
X013917Y007285D03*
X013921Y007293D03*
X013930Y007314D03*
X013930Y007319D03*
X013930Y007323D03*
X013947Y007365D03*
X013947Y007370D03*
X013820Y007531D03*
X013811Y007543D03*
X013807Y007548D03*
X013807Y007942D03*
X013811Y007950D03*
D617*
X013767Y007844D03*
X013754Y007760D03*
X013754Y007751D03*
X013754Y007747D03*
X013754Y007743D03*
X013754Y007738D03*
X013754Y007734D03*
X013754Y007730D03*
X013754Y007726D03*
X013241Y007467D03*
X013245Y007459D03*
X012910Y007870D03*
X013338Y008243D03*
X013945Y008756D03*
X013945Y008760D03*
X013949Y008773D03*
X013949Y008777D03*
X013957Y008803D03*
X013957Y008807D03*
X013957Y008811D03*
X013962Y008828D03*
X013962Y008832D03*
X013962Y008837D03*
X013962Y008841D03*
X013974Y008909D03*
X013974Y008913D03*
X013974Y008917D03*
X015005Y008107D03*
X015009Y008099D03*
X015034Y008040D03*
X015378Y007637D03*
X015047Y007471D03*
X015034Y007437D03*
X015022Y007412D03*
X015022Y007408D03*
X015005Y007365D03*
X014526Y007679D03*
X014526Y007683D03*
X014526Y007688D03*
X014526Y007692D03*
X014526Y007696D03*
X014526Y007798D03*
X014513Y007866D03*
X014513Y007870D03*
X014513Y007874D03*
X013631Y006963D03*
D618*
X013629Y006967D03*
D619*
X014638Y006967D03*
X014922Y008781D03*
D620*
X013627Y006975D03*
D621*
X013629Y006980D03*
X013035Y007611D03*
X014125Y008175D03*
X014167Y008175D03*
X014099Y009044D03*
D622*
X013179Y008489D03*
X013841Y007993D03*
X013175Y007001D03*
X015075Y007056D03*
X015109Y007001D03*
X014994Y008324D03*
X015104Y008489D03*
D623*
X014958Y008213D03*
X014983Y008158D03*
X014920Y008765D03*
X013779Y007883D03*
X013254Y008048D03*
X013317Y007276D03*
X013801Y007001D03*
X013873Y007166D03*
X013894Y007221D03*
X013915Y007276D03*
X014369Y007276D03*
X014437Y007111D03*
X014504Y007607D03*
X014992Y007331D03*
X015056Y007497D03*
X013372Y008765D03*
D624*
X013932Y008709D03*
X014318Y008875D03*
X014305Y008930D03*
X014483Y007938D03*
X014415Y007166D03*
X014483Y007001D03*
D625*
X014464Y007047D03*
X014439Y007107D03*
X014434Y007119D03*
X014430Y007128D03*
X014426Y007136D03*
X014422Y007149D03*
X014417Y007158D03*
X014409Y007179D03*
X014405Y007192D03*
X014396Y007213D03*
X014506Y007616D03*
X014515Y007632D03*
X014515Y007637D03*
X014519Y007649D03*
X014519Y007654D03*
X014515Y007861D03*
X014506Y007887D03*
X014506Y007891D03*
X014502Y007900D03*
X014502Y007904D03*
X014494Y007917D03*
X014494Y007921D03*
X014998Y008120D03*
X014998Y008124D03*
X015003Y008116D03*
X015003Y008112D03*
X015011Y008095D03*
X015011Y008090D03*
X015015Y008082D03*
X015020Y008073D03*
X015020Y008069D03*
X015024Y008065D03*
X015024Y008061D03*
X015028Y008052D03*
X015032Y008044D03*
X015036Y008035D03*
X014990Y008141D03*
X014990Y008145D03*
X014986Y008150D03*
X014986Y008154D03*
X014981Y008162D03*
X014977Y008171D03*
X014977Y008175D03*
X014973Y008179D03*
X014969Y008188D03*
X015058Y007501D03*
X015053Y007488D03*
X015053Y007484D03*
X015045Y007467D03*
X015045Y007463D03*
X015041Y007454D03*
X015036Y007446D03*
X015032Y007433D03*
X015028Y007425D03*
X015020Y007404D03*
X015015Y007391D03*
X015011Y007382D03*
X015011Y007378D03*
X015003Y007361D03*
X015003Y007357D03*
X014998Y007353D03*
X014998Y007348D03*
X013875Y007175D03*
X013870Y007162D03*
X013866Y007153D03*
X013862Y007141D03*
X013858Y007132D03*
X013845Y007098D03*
X013841Y007090D03*
X013832Y007073D03*
X013832Y007069D03*
X013828Y007060D03*
X013824Y007052D03*
X013815Y007030D03*
X013790Y007582D03*
X013786Y007590D03*
X013777Y007611D03*
X013777Y007616D03*
X013773Y007624D03*
X013773Y007628D03*
X013769Y007637D03*
X013769Y007641D03*
X013765Y007649D03*
X013765Y007654D03*
X013765Y007658D03*
X013760Y007666D03*
X013760Y007671D03*
X013760Y007675D03*
X013760Y007679D03*
X013760Y007683D03*
X013756Y007688D03*
X013756Y007692D03*
X013756Y007696D03*
X013756Y007700D03*
X013756Y007705D03*
X013756Y007709D03*
X013756Y007713D03*
X013756Y007722D03*
X013756Y007755D03*
X013756Y007764D03*
X013756Y007768D03*
X013756Y007777D03*
X013756Y007781D03*
X013756Y007785D03*
X013756Y007789D03*
X013756Y007794D03*
X013756Y007798D03*
X013760Y007806D03*
X013760Y007811D03*
X013760Y007815D03*
X013760Y007819D03*
X013765Y007832D03*
X013765Y007836D03*
X013765Y007840D03*
X013769Y007849D03*
X013769Y007853D03*
X013769Y007857D03*
X013773Y007866D03*
X013773Y007870D03*
X013777Y007874D03*
X013777Y007878D03*
X013273Y008082D03*
X013273Y008086D03*
X013277Y008095D03*
X013277Y008099D03*
X013281Y008107D03*
X013290Y008124D03*
X013290Y008129D03*
X013294Y008133D03*
X013294Y008137D03*
X013302Y008154D03*
X013307Y008167D03*
X013307Y008171D03*
X013311Y008179D03*
X013315Y008188D03*
X013319Y008201D03*
X013324Y008209D03*
X013328Y008218D03*
X013328Y008222D03*
X013332Y008230D03*
X013336Y008239D03*
X013268Y008078D03*
X013264Y008069D03*
X013260Y008061D03*
X013260Y008056D03*
X013251Y008044D03*
X013235Y007480D03*
X013239Y007476D03*
X013239Y007471D03*
X013247Y007454D03*
X013247Y007450D03*
X013251Y007437D03*
X013256Y007429D03*
X013256Y007425D03*
X013260Y007420D03*
X013260Y007416D03*
X013260Y007412D03*
X013264Y007404D03*
X013268Y007399D03*
X013268Y007395D03*
X013268Y007391D03*
X013273Y007382D03*
X013277Y007378D03*
X013277Y007374D03*
X013281Y007361D03*
X013281Y007357D03*
X013290Y007340D03*
X013290Y007336D03*
X013294Y007327D03*
X013302Y007310D03*
X013307Y007302D03*
X013934Y008714D03*
X013934Y008718D03*
X013938Y008726D03*
X013938Y008731D03*
X013938Y008735D03*
X013943Y008748D03*
X013943Y008752D03*
X013951Y008781D03*
X013955Y008798D03*
X013964Y008845D03*
X013972Y008900D03*
X013972Y008904D03*
X013976Y008921D03*
X013981Y008938D03*
X013981Y008943D03*
X013985Y008955D03*
X014307Y008921D03*
X014311Y008904D03*
X014311Y008900D03*
X014316Y008887D03*
X014316Y008883D03*
X014316Y008879D03*
X014320Y008871D03*
X014320Y008866D03*
X014320Y008862D03*
X014320Y008858D03*
X014320Y008854D03*
X014324Y008845D03*
X014324Y008841D03*
X014324Y008837D03*
X014324Y008832D03*
X014328Y008824D03*
X014328Y008815D03*
X014328Y008811D03*
X014337Y008769D03*
X014341Y008752D03*
X014341Y008748D03*
X014341Y008743D03*
X014341Y008739D03*
X014350Y008714D03*
X014350Y008705D03*
X014350Y008701D03*
X014354Y008697D03*
D626*
X014367Y008684D03*
X014918Y008756D03*
X015028Y008374D03*
X014973Y008290D03*
X014973Y007213D03*
X014973Y007208D03*
X015083Y007047D03*
X015083Y007043D03*
D627*
X013209Y007056D03*
D628*
X013294Y007331D03*
X013273Y007387D03*
X013251Y007442D03*
X013777Y007607D03*
X013765Y007662D03*
X013756Y007717D03*
X013765Y007828D03*
X013281Y008103D03*
X013302Y008158D03*
X013324Y008213D03*
X013968Y008875D03*
X013976Y008930D03*
X014328Y008820D03*
X014337Y008765D03*
X014350Y008709D03*
X015028Y008048D03*
X015036Y007442D03*
X015015Y007387D03*
X014969Y007276D03*
X014460Y007056D03*
X014392Y007221D03*
X013824Y007056D03*
D629*
X013830Y007518D03*
X013830Y007980D03*
X013334Y008260D03*
X013304Y008307D03*
X013279Y008341D03*
X013249Y008383D03*
X013249Y008387D03*
X013237Y008404D03*
X013224Y008421D03*
X013194Y008468D03*
X013237Y008014D03*
X013304Y007196D03*
X013292Y007175D03*
X013279Y007158D03*
X013249Y007115D03*
X013237Y007098D03*
X013224Y007077D03*
X014352Y007319D03*
X014462Y007531D03*
X014462Y007972D03*
X014958Y008264D03*
X015000Y008332D03*
X015013Y008353D03*
X015043Y008396D03*
X015056Y008413D03*
X015098Y008480D03*
X015056Y008006D03*
X015013Y007149D03*
X015043Y007102D03*
X015056Y007086D03*
X015056Y007081D03*
X015068Y007069D03*
X015068Y007064D03*
X014297Y008955D03*
D630*
X014333Y008803D03*
X014333Y008798D03*
X014333Y008794D03*
X014333Y008790D03*
X014333Y008786D03*
X014345Y008726D03*
X014345Y008722D03*
X013960Y008815D03*
X013960Y008824D03*
X013298Y008150D03*
X013298Y008145D03*
X013298Y008141D03*
X013285Y008120D03*
X013285Y008116D03*
X013781Y007891D03*
X013781Y007887D03*
X013781Y007599D03*
X013849Y007107D03*
X013837Y007081D03*
X014400Y007200D03*
X014443Y007098D03*
X014456Y007069D03*
X014511Y007620D03*
X014511Y007624D03*
X014511Y007628D03*
X014511Y007878D03*
X014498Y007908D03*
X014994Y008133D03*
X014994Y008137D03*
X015049Y007480D03*
X015049Y007476D03*
X015007Y007374D03*
X015007Y007370D03*
X014994Y007340D03*
X014994Y007336D03*
X013298Y007323D03*
X013298Y007319D03*
X013285Y007348D03*
X013285Y007353D03*
X013243Y007463D03*
X012912Y007637D03*
D631*
X013849Y007111D03*
X015007Y008103D03*
X013960Y008820D03*
D632*
X013807Y007552D03*
X013934Y007331D03*
X013285Y007166D03*
D633*
X013319Y007221D03*
X013226Y007497D03*
X013803Y007938D03*
X014477Y007552D03*
X014350Y007331D03*
X014960Y008268D03*
D634*
X014445Y007993D03*
X013847Y007497D03*
X013945Y007387D03*
X014966Y007221D03*
D635*
X014437Y007497D03*
X014339Y007387D03*
D636*
X014384Y007442D03*
X013896Y008048D03*
X015070Y007993D03*
X015113Y008544D03*
D637*
X014430Y008010D03*
X014413Y007471D03*
X013862Y007480D03*
X013162Y008523D03*
X013162Y008536D03*
X013175Y008553D03*
X013201Y008582D03*
X013243Y008625D03*
X013256Y008637D03*
D638*
X013478Y008663D03*
X015089Y007514D03*
D639*
X015100Y007518D03*
X014333Y008078D03*
X014405Y008650D03*
X014913Y008731D03*
X013879Y008650D03*
X012950Y007611D03*
D640*
X015111Y007522D03*
X015111Y007976D03*
D641*
X013160Y007526D03*
D642*
X013993Y008095D03*
X013815Y008616D03*
X014464Y008620D03*
X014477Y008616D03*
X015121Y007972D03*
X015121Y007526D03*
D643*
X014144Y008162D03*
X014504Y008603D03*
X013788Y008608D03*
X013152Y007531D03*
D644*
X013381Y008705D03*
X014911Y008701D03*
X015136Y007967D03*
X015306Y007603D03*
X015136Y007531D03*
D645*
X013135Y007535D03*
D646*
X013671Y008565D03*
X013383Y008697D03*
X014909Y008697D03*
X015295Y007904D03*
X015295Y007599D03*
X015147Y007535D03*
D647*
X015162Y007539D03*
X014144Y008154D03*
D648*
X014127Y009040D03*
X013088Y007552D03*
D649*
X015193Y007552D03*
D650*
X013076Y007556D03*
D651*
X014133Y009036D03*
X015210Y007942D03*
X015202Y007556D03*
D652*
X013069Y007560D03*
D653*
X013052Y007929D03*
X014600Y008595D03*
X015210Y007560D03*
D654*
X014144Y008137D03*
X013686Y008595D03*
X014135Y009032D03*
X013063Y007565D03*
D655*
X014140Y009023D03*
X014140Y009027D03*
X015225Y007934D03*
X015225Y007565D03*
D656*
X013056Y007569D03*
D657*
X013054Y007573D03*
X015234Y007569D03*
X015234Y007929D03*
D658*
X015240Y007573D03*
X013048Y007577D03*
D659*
X014144Y008141D03*
X015246Y007577D03*
D660*
X015251Y007921D03*
X013084Y007946D03*
X013037Y007921D03*
X013037Y007582D03*
D661*
X013682Y008586D03*
X015255Y007582D03*
D662*
X013029Y007586D03*
X013029Y007917D03*
D663*
X015261Y007917D03*
X015261Y007586D03*
D664*
X012986Y007599D03*
X012986Y007900D03*
D665*
X012974Y007603D03*
X013801Y008612D03*
D666*
X012965Y007607D03*
D667*
X012906Y007641D03*
D668*
X012902Y007662D03*
X015386Y007662D03*
X015386Y007828D03*
D669*
X014521Y007662D03*
D670*
X012897Y007696D03*
X012897Y007700D03*
X012897Y007705D03*
X012897Y007709D03*
X012897Y007713D03*
X012897Y007722D03*
X012897Y007726D03*
X012897Y007730D03*
X012897Y007734D03*
X012897Y007738D03*
X012897Y007743D03*
X012897Y007747D03*
X012897Y007751D03*
X012897Y007755D03*
X012897Y007760D03*
X012897Y007764D03*
X012897Y007768D03*
X012897Y007777D03*
X012897Y007781D03*
X012897Y007785D03*
X012897Y007789D03*
X012897Y007802D03*
D671*
X013661Y008519D03*
X015390Y007785D03*
X015390Y007781D03*
X015390Y007777D03*
X015390Y007768D03*
X015390Y007764D03*
X015390Y007760D03*
X015390Y007755D03*
X015390Y007751D03*
X015390Y007747D03*
X015390Y007743D03*
X015390Y007738D03*
X015390Y007734D03*
X015390Y007730D03*
X015390Y007726D03*
X015390Y007722D03*
X015390Y007713D03*
X015390Y007705D03*
D672*
X012897Y007717D03*
X012897Y007772D03*
D673*
X014523Y007828D03*
X014528Y007772D03*
X014528Y007717D03*
D674*
X015390Y007717D03*
X015390Y007772D03*
D675*
X014509Y007883D03*
X013754Y007772D03*
X013945Y008765D03*
D676*
X012900Y007828D03*
D677*
X012940Y007883D03*
D678*
X014797Y008654D03*
X015344Y007883D03*
D679*
X015102Y007980D03*
X012953Y007887D03*
D680*
X012965Y007891D03*
D681*
X013008Y007908D03*
D682*
X013016Y007912D03*
D683*
X013046Y007925D03*
X013076Y007942D03*
X015242Y007925D03*
D684*
X013061Y007934D03*
D685*
X013067Y007938D03*
D686*
X015217Y007938D03*
D687*
X015202Y007946D03*
D688*
X014142Y008145D03*
X013095Y007950D03*
D689*
X013385Y008692D03*
X015149Y007963D03*
D690*
X014913Y008714D03*
X014447Y008629D03*
X013379Y008718D03*
X013167Y007976D03*
D691*
X013209Y007993D03*
D692*
X013953Y008082D03*
D693*
X014307Y008090D03*
X014316Y008086D03*
X014426Y008637D03*
X014913Y008718D03*
X013854Y008633D03*
D694*
X014434Y008633D03*
X013981Y008090D03*
D695*
X014142Y008099D03*
D696*
X014142Y008103D03*
D697*
X014142Y008107D03*
D698*
X014144Y008112D03*
D699*
X014142Y008116D03*
D700*
X014142Y008120D03*
D701*
X014144Y008124D03*
D702*
X014144Y008129D03*
D703*
X014146Y008133D03*
D704*
X014144Y008158D03*
D705*
X014146Y008175D03*
D706*
X014629Y008506D03*
D707*
X014629Y008510D03*
X013654Y008514D03*
X013370Y008777D03*
D708*
X014629Y008514D03*
D709*
X013167Y008544D03*
D710*
X013663Y008544D03*
D711*
X014625Y008544D03*
D712*
X014625Y008548D03*
X014417Y008642D03*
X014913Y008722D03*
X013667Y008548D03*
D713*
X013837Y008625D03*
X014456Y008625D03*
X014621Y008553D03*
D714*
X014615Y008565D03*
D715*
X014604Y008586D03*
D716*
X013684Y008591D03*
D717*
X014602Y008591D03*
D718*
X013273Y008654D03*
X013218Y008599D03*
D719*
X013686Y008599D03*
D720*
X013381Y008709D03*
X014513Y008599D03*
D721*
X014708Y008599D03*
D722*
X015013Y008654D03*
X015068Y008599D03*
D723*
X014142Y008981D03*
X014142Y008989D03*
X013688Y008603D03*
D724*
X013843Y008629D03*
D725*
X014411Y008646D03*
D726*
X013489Y008654D03*
D727*
X013887Y008654D03*
D728*
X014398Y008654D03*
D729*
X013385Y008688D03*
D730*
X014909Y008692D03*
D731*
X013381Y008701D03*
D732*
X014911Y008705D03*
D733*
X014911Y008709D03*
D734*
X014142Y008972D03*
X014142Y008977D03*
D735*
X014140Y008985D03*
D736*
X014140Y008993D03*
X014140Y008998D03*
X014140Y009002D03*
D737*
X014142Y009006D03*
X014142Y009010D03*
D738*
X014140Y009015D03*
X014140Y009019D03*
D739*
X014089Y009044D03*
D740*
X016463Y008996D02*
X018550Y008996D01*
X018550Y008209D01*
X018550Y007028D02*
X018550Y006241D01*
X018550Y005059D02*
X018550Y004272D01*
X018550Y003091D02*
X018550Y002304D01*
X016463Y002304D01*
X016463Y008996D01*
X017506Y010763D02*
X018294Y010763D01*
X018338Y010768D01*
X018382Y010777D01*
X018426Y010788D01*
X018468Y010804D01*
X018509Y010822D01*
X018548Y010844D01*
X018585Y010868D01*
X018621Y010896D01*
X018654Y010926D01*
X018684Y010959D01*
X018712Y010994D01*
X018737Y011031D01*
X018759Y011070D01*
X018778Y011111D01*
X018793Y011153D01*
X018805Y011196D01*
X018805Y011904D02*
X018793Y011947D01*
X018778Y011989D01*
X018759Y012030D01*
X018737Y012069D01*
X018712Y012106D01*
X018684Y012141D01*
X018654Y012174D01*
X018621Y012204D01*
X018585Y012232D01*
X018548Y012256D01*
X018509Y012278D01*
X018468Y012296D01*
X018426Y012312D01*
X018382Y012323D01*
X018338Y012332D01*
X018294Y012337D01*
X017506Y012337D01*
X017462Y012332D01*
X017418Y012323D01*
X017374Y012312D01*
X017332Y012296D01*
X017291Y012278D01*
X017252Y012256D01*
X017215Y012232D01*
X017179Y012204D01*
X017146Y012174D01*
X017116Y012141D01*
X017088Y012106D01*
X017063Y012069D01*
X017041Y012030D01*
X017022Y011989D01*
X017007Y011947D01*
X016995Y011904D01*
X016995Y011196D02*
X017007Y011153D01*
X017022Y011111D01*
X017041Y011070D01*
X017063Y011031D01*
X017088Y010994D01*
X017116Y010959D01*
X017146Y010926D01*
X017179Y010896D01*
X017215Y010868D01*
X017252Y010844D01*
X017291Y010822D01*
X017332Y010804D01*
X017374Y010788D01*
X017418Y010777D01*
X017462Y010768D01*
X017506Y010763D01*
X017550Y019650D02*
X017300Y019900D01*
X017050Y019650D01*
X016550Y019650D01*
X016300Y019900D01*
X016050Y019650D01*
X015550Y019650D01*
X015300Y019900D01*
X015050Y019650D01*
X014550Y019650D01*
X014300Y019900D01*
X014050Y019650D01*
X013550Y019650D01*
X013300Y019900D01*
X013050Y019650D01*
X012550Y019650D01*
X012300Y019900D01*
X012050Y019650D01*
X011550Y019650D01*
X011300Y019900D01*
X011050Y019650D01*
X010550Y019650D01*
X010300Y019900D01*
X010300Y020400D01*
X010550Y020650D01*
X011050Y020650D01*
X011300Y020400D01*
X011550Y020650D01*
X012050Y020650D01*
X012300Y020400D01*
X012550Y020650D01*
X013050Y020650D01*
X013300Y020400D01*
X013550Y020650D01*
X014050Y020650D01*
X014300Y020400D01*
X014550Y020650D01*
X015050Y020650D01*
X015300Y020400D01*
X015550Y020650D01*
X016050Y020650D01*
X016300Y020400D01*
X016550Y020650D01*
X017050Y020650D01*
X017300Y020400D01*
X017550Y020650D01*
X018050Y020650D01*
X018300Y020400D01*
X018300Y019900D01*
X018050Y019650D01*
X017550Y019650D01*
X009700Y019900D02*
X009450Y019650D01*
X008950Y019650D01*
X008700Y019900D01*
X008450Y019650D01*
X007950Y019650D01*
X007700Y019900D01*
X007450Y019650D01*
X006950Y019650D01*
X006700Y019900D01*
X006450Y019650D01*
X005950Y019650D01*
X005700Y019900D01*
X005450Y019650D01*
X004950Y019650D01*
X004700Y019900D01*
X004450Y019650D01*
X003950Y019650D01*
X003700Y019900D01*
X003450Y019650D01*
X002950Y019650D01*
X002700Y019900D01*
X002450Y019650D01*
X001950Y019650D01*
X001700Y019900D01*
X001700Y020400D01*
X001950Y020650D01*
X002450Y020650D01*
X002700Y020400D01*
X002950Y020650D01*
X003450Y020650D01*
X003700Y020400D01*
X003950Y020650D01*
X004450Y020650D01*
X004700Y020400D01*
X004950Y020650D01*
X005450Y020650D01*
X005700Y020400D01*
X005950Y020650D01*
X006450Y020650D01*
X006700Y020400D01*
X006950Y020650D01*
X007450Y020650D01*
X007700Y020400D01*
X007950Y020650D01*
X008450Y020650D01*
X008700Y020400D01*
X008950Y020650D01*
X009450Y020650D01*
X009700Y020400D01*
X009700Y019900D01*
X009550Y001650D02*
X010050Y001650D01*
X010300Y001400D01*
X010550Y001650D01*
X011050Y001650D01*
X011300Y001400D01*
X011300Y000900D01*
X011050Y000650D01*
X010550Y000650D01*
X010300Y000900D01*
X010050Y000650D01*
X009550Y000650D01*
X009300Y000900D01*
X009050Y000650D01*
X008550Y000650D01*
X008300Y000900D01*
X008050Y000650D01*
X007550Y000650D01*
X007300Y000900D01*
X007050Y000650D01*
X006550Y000650D01*
X006300Y000900D01*
X006050Y000650D01*
X005550Y000650D01*
X005300Y000900D01*
X005300Y001400D01*
X005550Y001650D01*
X006050Y001650D01*
X006300Y001400D01*
X006550Y001650D01*
X007050Y001650D01*
X007300Y001400D01*
X007550Y001650D01*
X008050Y001650D01*
X008300Y001400D01*
X008550Y001650D01*
X009050Y001650D01*
X009300Y001400D01*
X009550Y001650D01*
X012300Y001400D02*
X012300Y000900D01*
X012550Y000650D01*
X013050Y000650D01*
X013300Y000900D01*
X013550Y000650D01*
X014050Y000650D01*
X014300Y000900D01*
X014550Y000650D01*
X015050Y000650D01*
X015300Y000900D01*
X015550Y000650D01*
X016050Y000650D01*
X016300Y000900D01*
X016550Y000650D01*
X017050Y000650D01*
X017300Y000900D01*
X017550Y000650D01*
X018050Y000650D01*
X018300Y000900D01*
X018300Y001400D01*
X018050Y001650D01*
X017550Y001650D01*
X017300Y001400D01*
X017050Y001650D01*
X016550Y001650D01*
X016300Y001400D01*
X016050Y001650D01*
X015550Y001650D01*
X015300Y001400D01*
X015050Y001650D01*
X014550Y001650D01*
X014300Y001400D01*
X014050Y001650D01*
X013550Y001650D01*
X013300Y001400D01*
X013050Y001650D01*
X012550Y001650D01*
X012300Y001400D01*
D741*
X011869Y002638D02*
X011869Y018662D01*
X000531Y018662D01*
X000531Y002638D01*
X011869Y002638D01*
X012200Y003150D02*
X012700Y003150D01*
X012700Y003050D01*
X012700Y003150D02*
X013200Y003150D01*
X013200Y005150D01*
X012700Y005150D01*
X012700Y005250D01*
X012700Y005150D02*
X012200Y005150D01*
X012200Y003150D01*
X013200Y003150D02*
X013700Y003150D01*
X013700Y003050D01*
X013700Y003150D02*
X014200Y003150D01*
X014200Y005150D01*
X013700Y005150D01*
X013700Y005250D01*
X013700Y005150D02*
X013200Y005150D01*
X013200Y003150D01*
X014200Y003150D02*
X014700Y003150D01*
X014700Y003050D01*
X014700Y003150D02*
X015200Y003150D01*
X015700Y003150D01*
X015700Y003050D01*
X015700Y003150D02*
X016200Y003150D01*
X016200Y005150D01*
X015700Y005150D01*
X015700Y005250D01*
X015700Y005150D02*
X015200Y005150D01*
X015200Y003150D01*
X015200Y005150D01*
X014700Y005150D01*
X014700Y005250D01*
X014700Y005150D02*
X014200Y005150D01*
X014200Y003150D01*
X013700Y016050D02*
X013700Y016150D01*
X013200Y016150D01*
X013200Y018150D01*
X013700Y018150D01*
X013700Y018250D01*
X013700Y018150D02*
X014200Y018150D01*
X014700Y018150D01*
X014700Y018250D01*
X014700Y018150D02*
X015200Y018150D01*
X015700Y018150D01*
X015700Y018250D01*
X015700Y018150D02*
X016200Y018150D01*
X016200Y016150D01*
X015700Y016150D01*
X015700Y016050D01*
X015700Y016150D02*
X015200Y016150D01*
X015200Y018150D01*
X015200Y016150D01*
X014700Y016150D01*
X014700Y016050D01*
X014700Y016150D02*
X014200Y016150D01*
X014200Y018150D01*
X014200Y016150D01*
X013700Y016150D01*
X013200Y016150D02*
X012700Y016150D01*
X012700Y016050D01*
X012700Y016150D02*
X012200Y016150D01*
X012200Y018150D01*
X012700Y018150D01*
X012700Y018250D01*
X012700Y018150D02*
X013200Y018150D01*
X013200Y016150D01*
X016200Y016150D02*
X016700Y016150D01*
X016700Y016050D01*
X016700Y016150D02*
X017200Y016150D01*
X017200Y018150D01*
X016700Y018150D01*
X016700Y018250D01*
X016700Y018150D02*
X016200Y018150D01*
X016200Y016150D01*
D742*
X006175Y002360D03*
X006175Y002350D03*
X006195Y001960D03*
X006585Y001790D03*
X005495Y001960D03*
X005485Y002350D03*
X005485Y002360D03*
X005035Y001790D03*
X003375Y002350D03*
X003375Y002360D03*
X008195Y002330D03*
X008195Y002320D03*
X008195Y001990D03*
X008575Y001960D03*
D743*
X008575Y002340D03*
X007035Y002340D03*
X007045Y001960D03*
X005095Y001960D03*
X005045Y001800D03*
X004665Y001960D03*
X004665Y002340D03*
X005095Y002350D03*
X005095Y002360D03*
X003385Y002340D03*
D744*
X004620Y002110D03*
X006590Y001800D03*
X007000Y002110D03*
X008190Y002070D03*
X008190Y002060D03*
X008190Y002050D03*
X008190Y002040D03*
X008190Y002030D03*
X008190Y002020D03*
X008190Y002010D03*
X008190Y002000D03*
X008190Y002250D03*
X008190Y002260D03*
X008190Y002270D03*
X008190Y002280D03*
X008190Y002290D03*
X008190Y002300D03*
X008190Y002310D03*
D745*
X007020Y002130D03*
X007020Y002120D03*
X007030Y002000D03*
X007030Y001990D03*
X006630Y001970D03*
X006190Y001980D03*
X006200Y002300D03*
X006200Y002310D03*
X006200Y002320D03*
X006200Y002330D03*
X005510Y002290D03*
X005510Y002280D03*
X005510Y002270D03*
X005510Y002260D03*
X005510Y002250D03*
X005510Y002180D03*
X005510Y002170D03*
X005490Y001980D03*
X005060Y001820D03*
X005060Y001810D03*
X004650Y001990D03*
X004650Y002000D03*
X004660Y002320D03*
X004660Y002330D03*
X004240Y002340D03*
X003790Y001960D03*
X003400Y002300D03*
X003400Y002310D03*
X003400Y002320D03*
X003400Y002330D03*
D746*
X003415Y002200D03*
X003415Y002190D03*
X003395Y001970D03*
X003785Y002350D03*
X003785Y002360D03*
X004635Y002130D03*
X004635Y002120D03*
X004655Y001980D03*
X004655Y001970D03*
X005085Y001970D03*
X005085Y002340D03*
X005505Y002330D03*
X005505Y002320D03*
X005505Y002310D03*
X005505Y002300D03*
X005515Y002200D03*
X005515Y002190D03*
X006215Y002190D03*
X006215Y002200D03*
X006195Y001970D03*
X006605Y001820D03*
X006605Y001810D03*
X007035Y001970D03*
X007035Y001980D03*
X007035Y002320D03*
X007035Y002330D03*
D747*
X006620Y002330D03*
X006620Y002320D03*
X006620Y002310D03*
X006620Y002300D03*
X006620Y002290D03*
X006620Y002280D03*
X006620Y002270D03*
X006620Y002260D03*
X006620Y002250D03*
X006620Y002070D03*
X006620Y002060D03*
X006620Y002050D03*
X006620Y002040D03*
X006620Y002030D03*
X006620Y002020D03*
X006620Y002010D03*
X006620Y002000D03*
X006620Y001910D03*
X006620Y001900D03*
X006620Y001890D03*
X006620Y001880D03*
X006620Y001870D03*
X006200Y002010D03*
X006200Y002020D03*
X006200Y002120D03*
X006200Y002130D03*
X006200Y002140D03*
X006200Y002150D03*
X006200Y002160D03*
X005500Y002160D03*
X005500Y002150D03*
X005500Y002140D03*
X005500Y002130D03*
X005500Y002120D03*
X005500Y002020D03*
X005500Y002010D03*
X005070Y002010D03*
X005070Y002020D03*
X005070Y002030D03*
X005070Y002040D03*
X005070Y002050D03*
X005070Y002060D03*
X005070Y002070D03*
X005070Y001910D03*
X005070Y001900D03*
X005070Y001890D03*
X005070Y001880D03*
X005070Y001870D03*
X005070Y001860D03*
X005070Y001850D03*
X005070Y001840D03*
X005070Y001830D03*
X005070Y002250D03*
X005070Y002260D03*
X005070Y002270D03*
X005070Y002280D03*
X005070Y002290D03*
X005070Y002300D03*
X005070Y002310D03*
X004230Y002280D03*
X004230Y002270D03*
X004230Y002260D03*
X004230Y002250D03*
X004230Y002070D03*
X004230Y002060D03*
X004230Y002050D03*
X004230Y002040D03*
X004230Y002030D03*
X003390Y002000D03*
X003390Y001990D03*
D748*
X003385Y001980D03*
X003405Y002170D03*
X003405Y002180D03*
X003405Y002250D03*
X003405Y002260D03*
X003405Y002270D03*
X003405Y002280D03*
X003405Y002290D03*
X003795Y002340D03*
X003795Y001970D03*
X004235Y001970D03*
X004235Y001980D03*
X004235Y001990D03*
X004235Y002000D03*
X004235Y002010D03*
X004235Y002020D03*
X004235Y002290D03*
X004235Y002300D03*
X004235Y002310D03*
X004235Y002320D03*
X004235Y002330D03*
X004645Y002150D03*
X004645Y002140D03*
X004645Y002060D03*
X004645Y002050D03*
X004645Y002040D03*
X004645Y002030D03*
X004645Y002020D03*
X004645Y002010D03*
X005075Y002000D03*
X005075Y001990D03*
X005075Y001980D03*
X005075Y002320D03*
X005075Y002330D03*
X005495Y002000D03*
X005495Y001990D03*
X006195Y001990D03*
X006195Y002000D03*
X006205Y002170D03*
X006205Y002180D03*
X006205Y002250D03*
X006205Y002260D03*
X006205Y002270D03*
X006205Y002280D03*
X006205Y002290D03*
X006625Y002340D03*
X006625Y001990D03*
X006625Y001980D03*
X006615Y001860D03*
X006615Y001850D03*
X006615Y001840D03*
X006615Y001830D03*
X007025Y002010D03*
X007025Y002020D03*
X007025Y002030D03*
X007025Y002040D03*
X007025Y002050D03*
X007025Y002060D03*
X007025Y002140D03*
X007025Y002150D03*
X008575Y002020D03*
X008575Y002010D03*
X008575Y002000D03*
X008575Y001990D03*
X008575Y001980D03*
X008575Y002300D03*
X008575Y002310D03*
X008575Y002320D03*
X008575Y002330D03*
D749*
X008695Y002220D03*
X008695Y002090D03*
X008695Y002080D03*
X009305Y002210D03*
X009305Y002220D03*
X009305Y002230D03*
X009305Y002240D03*
X007935Y002070D03*
X007935Y002060D03*
X007935Y002050D03*
X007935Y002040D03*
X007935Y002030D03*
X007935Y002020D03*
X007935Y002010D03*
X007935Y002000D03*
X007935Y001990D03*
X007935Y001980D03*
X007935Y001970D03*
X007935Y001960D03*
X007755Y002230D03*
X007755Y002240D03*
X007165Y002220D03*
X007165Y002210D03*
X006745Y002210D03*
X006745Y002220D03*
X006745Y002230D03*
X006745Y002240D03*
X006745Y002200D03*
X006745Y002190D03*
X006745Y002180D03*
X006745Y002170D03*
X006745Y002160D03*
X006745Y002150D03*
X006745Y002140D03*
X006745Y002130D03*
X006745Y002120D03*
X006745Y002110D03*
X006745Y002100D03*
X006745Y002090D03*
X006745Y002080D03*
X006745Y001950D03*
X006745Y001940D03*
X006745Y001930D03*
X006745Y001920D03*
X006495Y002080D03*
X006495Y002090D03*
X006495Y002100D03*
X006495Y002110D03*
X006495Y002120D03*
X006495Y002130D03*
X006495Y002140D03*
X006495Y002150D03*
X006495Y002160D03*
X006495Y002170D03*
X006495Y002180D03*
X006495Y002190D03*
X006495Y002200D03*
X006495Y002210D03*
X006495Y002220D03*
X006065Y002100D03*
X006065Y002090D03*
X006065Y002080D03*
X005785Y002080D03*
X005785Y002090D03*
X005785Y002100D03*
X005785Y002110D03*
X005785Y002120D03*
X005785Y002130D03*
X005785Y002140D03*
X005785Y002150D03*
X005785Y002160D03*
X005785Y002170D03*
X005785Y002180D03*
X005785Y002190D03*
X005785Y002200D03*
X005785Y002210D03*
X005785Y002220D03*
X005785Y002070D03*
X005785Y002060D03*
X005785Y002050D03*
X005785Y002040D03*
X005785Y002030D03*
X005785Y002020D03*
X005785Y002010D03*
X005785Y002000D03*
X005785Y001990D03*
X005785Y001980D03*
X005785Y001970D03*
X005785Y001960D03*
X005625Y002080D03*
X005625Y002090D03*
X005625Y002100D03*
X005625Y002210D03*
X005625Y002220D03*
X005625Y002230D03*
X005625Y002240D03*
X005195Y001930D03*
X005195Y001920D03*
X004945Y002100D03*
X004945Y002110D03*
X004945Y002120D03*
X004945Y002130D03*
X004945Y002140D03*
X004945Y002150D03*
X004945Y002160D03*
X004945Y002170D03*
X004945Y002180D03*
X004945Y002190D03*
X004945Y002200D03*
X004945Y002210D03*
X004945Y002220D03*
X004105Y002220D03*
X004105Y002210D03*
X004105Y002200D03*
X004105Y002190D03*
X004105Y002180D03*
X004105Y002170D03*
X004105Y002160D03*
X004105Y002150D03*
X004105Y002140D03*
X004105Y002130D03*
X004105Y002120D03*
X004105Y002110D03*
X004105Y002100D03*
X003935Y002090D03*
X003935Y002080D03*
X003935Y002220D03*
X003935Y002230D03*
X003935Y002240D03*
D750*
X003940Y002210D03*
X003940Y002200D03*
X003940Y002190D03*
X003940Y002180D03*
X003940Y002170D03*
X003940Y002160D03*
X003940Y002150D03*
X003940Y002140D03*
X003940Y002130D03*
X003940Y002120D03*
X003940Y002110D03*
X003940Y002100D03*
X004360Y002100D03*
X004360Y002110D03*
X004360Y002120D03*
X004360Y002130D03*
X004360Y002140D03*
X004360Y002150D03*
X004360Y002160D03*
X004360Y002170D03*
X004360Y002180D03*
X004360Y002190D03*
X004360Y002200D03*
X004360Y002210D03*
X004360Y002220D03*
X004360Y002230D03*
X004360Y002240D03*
X004360Y002370D03*
X004360Y002380D03*
X004360Y002390D03*
X004360Y002400D03*
X004360Y002410D03*
X004360Y002420D03*
X004360Y002430D03*
X004360Y002440D03*
X004360Y002450D03*
X004360Y002460D03*
X004360Y002470D03*
X004360Y002480D03*
X004360Y002490D03*
X004360Y002090D03*
X004360Y002080D03*
X005200Y002080D03*
X005200Y002090D03*
X005200Y002100D03*
X005200Y002110D03*
X005200Y002120D03*
X005200Y002130D03*
X005200Y002140D03*
X005200Y002150D03*
X005200Y002160D03*
X005200Y002170D03*
X005200Y002180D03*
X005200Y002190D03*
X005200Y002200D03*
X005200Y002210D03*
X005200Y002220D03*
X005200Y002230D03*
X005200Y002240D03*
X005200Y001950D03*
X005200Y001940D03*
X003100Y001960D03*
X003100Y001970D03*
X003100Y001980D03*
X003100Y001990D03*
X003100Y002000D03*
X003100Y002010D03*
X003100Y002020D03*
X003100Y002030D03*
X003100Y002040D03*
X003100Y002050D03*
X003100Y002060D03*
X003100Y002070D03*
X003100Y002080D03*
X003100Y002090D03*
X003100Y002100D03*
X003100Y002110D03*
X003100Y002120D03*
X003100Y002130D03*
X003100Y002140D03*
X003100Y002150D03*
X003100Y002160D03*
X003100Y002170D03*
X003100Y002180D03*
X003100Y002190D03*
X003100Y002200D03*
X003100Y002210D03*
X003100Y002220D03*
X003100Y002230D03*
X003100Y002240D03*
X003100Y002250D03*
X003100Y002260D03*
X003100Y002270D03*
X003100Y002280D03*
X003100Y002290D03*
X003100Y002300D03*
X003100Y002310D03*
X003100Y002320D03*
X003100Y002330D03*
X003100Y002340D03*
X003100Y002350D03*
X003100Y002360D03*
X003100Y002370D03*
X003100Y002380D03*
X003100Y002390D03*
X003100Y002400D03*
X003100Y002410D03*
X003100Y002420D03*
X003100Y002430D03*
X003100Y002440D03*
X003100Y002450D03*
X003100Y002460D03*
X003100Y002470D03*
X003100Y002480D03*
X003100Y002490D03*
X007760Y002220D03*
X007760Y002210D03*
X007760Y002200D03*
X007760Y002190D03*
X007760Y002180D03*
X007760Y002170D03*
X007760Y002160D03*
X007760Y002150D03*
X007760Y002140D03*
X007760Y002130D03*
X007760Y002120D03*
X007760Y002110D03*
X007760Y002100D03*
X007760Y002090D03*
X007760Y002080D03*
X007760Y002070D03*
X007760Y002060D03*
X007760Y002050D03*
X007760Y002040D03*
X007760Y002030D03*
X007760Y002020D03*
X007760Y002010D03*
X007760Y002000D03*
X007760Y001990D03*
X007760Y001980D03*
X007760Y001970D03*
X007760Y001960D03*
X008700Y002100D03*
X008700Y002110D03*
X008700Y002120D03*
X008700Y002130D03*
X008700Y002140D03*
X008700Y002150D03*
X008700Y002160D03*
X008700Y002170D03*
X008700Y002180D03*
X008700Y002190D03*
X008700Y002200D03*
X008700Y002210D03*
X009310Y002200D03*
X009310Y002190D03*
X009310Y002180D03*
X009310Y002170D03*
X009310Y002160D03*
X009310Y002150D03*
X009310Y002140D03*
X009310Y002130D03*
X009310Y002120D03*
X009310Y002110D03*
X009310Y002100D03*
X009310Y002090D03*
X009310Y002080D03*
X009310Y002070D03*
X009310Y002060D03*
X009310Y002050D03*
X009310Y002040D03*
X009310Y002030D03*
X009310Y002020D03*
X009310Y002010D03*
X009310Y002000D03*
X009310Y001990D03*
X009310Y001980D03*
X009310Y001970D03*
X009310Y001960D03*
D751*
X008200Y001970D03*
X008200Y001980D03*
X008200Y002340D03*
X003390Y001960D03*
D752*
X004250Y001960D03*
X004250Y002350D03*
X004250Y002360D03*
X005500Y002340D03*
X005500Y001970D03*
X006190Y002340D03*
X006640Y002350D03*
X006640Y002360D03*
X006640Y001960D03*
X008570Y001970D03*
D753*
X008440Y002100D03*
X008440Y002110D03*
X008440Y002120D03*
X008440Y002130D03*
X008440Y002140D03*
X008440Y002150D03*
X008440Y002160D03*
X008440Y002170D03*
X008440Y002180D03*
X008440Y002190D03*
X008440Y002200D03*
X008440Y002210D03*
X008440Y002220D03*
X008690Y002230D03*
X008690Y002240D03*
X008870Y002240D03*
X008870Y002230D03*
X008870Y002220D03*
X008870Y002210D03*
X008870Y002200D03*
X008870Y002190D03*
X008870Y002180D03*
X008870Y002170D03*
X008870Y002160D03*
X008870Y002150D03*
X008870Y002140D03*
X008870Y002130D03*
X008870Y002120D03*
X008870Y002110D03*
X008870Y002100D03*
X008870Y002090D03*
X008870Y002080D03*
X008870Y002070D03*
X008870Y002060D03*
X008870Y002050D03*
X008870Y002040D03*
X008870Y002030D03*
X008870Y002020D03*
X008870Y002010D03*
X008870Y002000D03*
X008870Y001990D03*
X008870Y001980D03*
X008870Y001970D03*
X008870Y001960D03*
X009090Y001960D03*
X009090Y001970D03*
X009090Y001980D03*
X009090Y001990D03*
X009090Y002000D03*
X009090Y002010D03*
X009090Y002020D03*
X009090Y002030D03*
X009090Y002040D03*
X009090Y002050D03*
X009090Y002060D03*
X009090Y002070D03*
X009090Y002080D03*
X009090Y002090D03*
X009090Y002100D03*
X009090Y002110D03*
X009090Y002120D03*
X009090Y002130D03*
X009090Y002140D03*
X009090Y002150D03*
X009090Y002160D03*
X009090Y002170D03*
X009090Y002180D03*
X009090Y002190D03*
X009090Y002200D03*
X009090Y002210D03*
X009090Y002220D03*
X009090Y002230D03*
X009090Y002240D03*
X008100Y002220D03*
X008100Y002210D03*
X008100Y002200D03*
X008100Y002190D03*
X008100Y002180D03*
X008100Y002170D03*
X008100Y002160D03*
X008100Y002150D03*
X008100Y002140D03*
X008100Y002130D03*
X008100Y002120D03*
X008100Y002110D03*
X008100Y002100D03*
X008100Y002090D03*
X008100Y002080D03*
X007540Y002080D03*
X007540Y002090D03*
X007540Y002100D03*
X007540Y002110D03*
X007540Y002120D03*
X007540Y002130D03*
X007540Y002140D03*
X007540Y002150D03*
X007540Y002160D03*
X007540Y002170D03*
X007540Y002180D03*
X007540Y002190D03*
X007540Y002200D03*
X007540Y002210D03*
X007540Y002220D03*
X007540Y002230D03*
X007540Y002240D03*
X007540Y002070D03*
X007540Y002060D03*
X007540Y002050D03*
X007540Y002040D03*
X007540Y002030D03*
X007540Y002020D03*
X007540Y002010D03*
X007540Y002000D03*
X007540Y001990D03*
X007540Y001980D03*
X007540Y001970D03*
X007540Y001960D03*
X007320Y001960D03*
X007320Y001970D03*
X007320Y001980D03*
X007320Y001990D03*
X007320Y002000D03*
X007320Y002010D03*
X007320Y002020D03*
X007320Y002030D03*
X007320Y002040D03*
X007320Y002050D03*
X007320Y002060D03*
X007320Y002070D03*
X007320Y002080D03*
X007320Y002090D03*
X007320Y002100D03*
X007320Y002110D03*
X007320Y002120D03*
X007320Y002130D03*
X007320Y002140D03*
X007320Y002150D03*
X007320Y002160D03*
X007320Y002170D03*
X007320Y002180D03*
X007320Y002190D03*
X007320Y002200D03*
X007320Y002210D03*
X007320Y002220D03*
X007160Y002230D03*
X007160Y002240D03*
X006910Y002240D03*
X006910Y002230D03*
X006910Y002220D03*
X006910Y002210D03*
X006910Y002100D03*
X006910Y002090D03*
X006910Y002080D03*
X006910Y002070D03*
X006500Y002230D03*
X006500Y002240D03*
X006320Y002240D03*
X006320Y002230D03*
X006320Y002220D03*
X006320Y002210D03*
X006320Y002110D03*
X006320Y002100D03*
X006320Y002090D03*
X006320Y002080D03*
X006070Y002110D03*
X005790Y002230D03*
X005790Y002240D03*
X005620Y002110D03*
X005370Y002110D03*
X005370Y002100D03*
X005370Y002090D03*
X005370Y002080D03*
X004950Y002080D03*
X004950Y002090D03*
X004780Y002210D03*
X004780Y002220D03*
X004780Y002230D03*
X004780Y002240D03*
X004530Y002240D03*
X004530Y002230D03*
X004530Y002220D03*
X004530Y002210D03*
X004530Y002100D03*
X004530Y002090D03*
X004530Y002080D03*
X004530Y002070D03*
X004110Y002080D03*
X004110Y002090D03*
X004110Y002230D03*
X004110Y002240D03*
X003680Y002240D03*
X003680Y002230D03*
X003680Y002220D03*
X003680Y002210D03*
X003680Y002200D03*
X003680Y002190D03*
X003680Y002180D03*
X003680Y002170D03*
X003680Y002160D03*
X003680Y002150D03*
X003680Y002140D03*
X003680Y002130D03*
X003680Y002120D03*
X003680Y002110D03*
X003680Y002100D03*
X003680Y002090D03*
X003680Y002080D03*
X003520Y002080D03*
X003520Y002090D03*
X003520Y002100D03*
X003520Y002210D03*
X003520Y002220D03*
X003520Y002230D03*
X003520Y002240D03*
X003680Y002370D03*
X003680Y002380D03*
X003680Y002390D03*
X003680Y002400D03*
X003680Y002410D03*
X003680Y002420D03*
X003680Y002430D03*
X003680Y002440D03*
X003680Y002450D03*
X003680Y002460D03*
X003680Y002470D03*
X003680Y002480D03*
X003680Y002490D03*
X003270Y002110D03*
X003270Y002100D03*
X003270Y002090D03*
X003270Y002080D03*
D754*
X008210Y001960D03*
D755*
X008565Y002030D03*
X008565Y002040D03*
X008565Y002050D03*
X008565Y002060D03*
X008565Y002070D03*
X008565Y002250D03*
X008565Y002260D03*
X008565Y002270D03*
X008565Y002280D03*
X008565Y002290D03*
X007035Y002290D03*
X007035Y002300D03*
X007035Y002310D03*
X007035Y002280D03*
X007035Y002270D03*
X007035Y002260D03*
X007035Y002250D03*
X007035Y002200D03*
X007035Y002190D03*
X007035Y002180D03*
X007035Y002170D03*
X007035Y002160D03*
X006195Y002070D03*
X006195Y002060D03*
X006195Y002050D03*
X006195Y002040D03*
X006195Y002030D03*
X005495Y002030D03*
X005495Y002040D03*
X005495Y002050D03*
X005495Y002060D03*
X005495Y002070D03*
X004655Y002160D03*
X004655Y002170D03*
X004655Y002180D03*
X004655Y002190D03*
X004655Y002200D03*
X004655Y002250D03*
X004655Y002260D03*
X004655Y002270D03*
X004655Y002280D03*
X004655Y002290D03*
X004655Y002300D03*
X004655Y002310D03*
X003805Y002310D03*
X003805Y002320D03*
X003805Y002330D03*
X003805Y002300D03*
X003805Y002290D03*
X003805Y002280D03*
X003805Y002270D03*
X003805Y002260D03*
X003805Y002250D03*
X003805Y002070D03*
X003805Y002060D03*
X003805Y002050D03*
X003805Y002040D03*
X003805Y002030D03*
X003805Y002020D03*
X003805Y002010D03*
X003805Y002000D03*
X003805Y001990D03*
X003805Y001980D03*
X003395Y002010D03*
X003395Y002020D03*
X003395Y002030D03*
X003395Y002040D03*
X003395Y002050D03*
X003395Y002060D03*
X003395Y002070D03*
X003395Y002120D03*
X003395Y002130D03*
X003395Y002140D03*
X003395Y002150D03*
X003395Y002160D03*
D756*
X003515Y002110D03*
X004955Y002230D03*
X004955Y002240D03*
X007325Y002240D03*
X007325Y002230D03*
X008105Y002230D03*
X008105Y002240D03*
X008445Y002090D03*
X008445Y002080D03*
D757*
X008450Y002230D03*
X008450Y002240D03*
D758*
X005845Y002250D03*
X005845Y002260D03*
X005845Y002270D03*
X005845Y002280D03*
X005845Y002290D03*
D759*
X007535Y002280D03*
X007535Y002270D03*
X007535Y002260D03*
X007535Y002250D03*
X009085Y002250D03*
X009085Y002260D03*
X009085Y002270D03*
X009085Y002280D03*
X009085Y002290D03*
D760*
X009090Y002300D03*
X009090Y002310D03*
X007540Y002290D03*
D761*
X005850Y002300D03*
X005850Y002310D03*
D762*
X007545Y002310D03*
X007545Y002320D03*
X007545Y002330D03*
X007545Y002300D03*
D763*
X005855Y002320D03*
X005855Y002330D03*
D764*
X009085Y002330D03*
X009085Y002320D03*
D765*
X005860Y002340D03*
D766*
X007550Y002340D03*
X009090Y002340D03*
D767*
X008575Y002350D03*
X008575Y002360D03*
X007035Y002360D03*
X007035Y002350D03*
X004655Y002350D03*
X004655Y002360D03*
D768*
X005875Y002360D03*
X005875Y002350D03*
D769*
X007545Y002350D03*
X007545Y002360D03*
D770*
X008215Y002360D03*
X008215Y002350D03*
D771*
X009090Y002350D03*
X009090Y002360D03*
M02*
