G75*
G70*
%OFA0B0*%
%FSLAX24Y24*%
%IPPOS*%
%LPD*%
%AMOC8*
5,1,8,0,0,1.08239X$1,22.5*
%
%ADD10C,0.0740*%
%ADD11C,0.1080*%
%ADD12C,0.0820*%
%ADD13R,0.0820X0.0820*%
%ADD14OC8,0.0840*%
%ADD15C,0.0050*%
D10*
X017113Y011550D03*
X018687Y011550D03*
D11*
X018550Y007619D03*
X018550Y005650D03*
X018550Y003681D03*
D12*
X017800Y001150D03*
X016800Y001150D03*
X015800Y001150D03*
X014800Y001150D03*
X013800Y001150D03*
X012800Y001150D03*
X010800Y001150D03*
X009800Y001150D03*
X008800Y001150D03*
X007800Y001150D03*
X006800Y001150D03*
X005800Y001150D03*
X006200Y020150D03*
X005200Y020150D03*
X004200Y020150D03*
X003200Y020150D03*
X007200Y020150D03*
X008200Y020150D03*
X009200Y020150D03*
X010800Y020150D03*
X011800Y020150D03*
X012800Y020150D03*
X013800Y020150D03*
X014800Y020150D03*
X015800Y020150D03*
X016800Y020150D03*
D13*
X017800Y020150D03*
X002200Y020150D03*
D14*
X004200Y003642D03*
X005200Y003642D03*
X006200Y003642D03*
X007200Y003642D03*
X008200Y003642D03*
X008200Y017658D03*
X007200Y017658D03*
X006200Y017658D03*
X005200Y017658D03*
X004200Y017658D03*
D15*
X012329Y018587D02*
X012346Y018523D01*
X012375Y018464D01*
X012414Y018410D01*
X012461Y018364D01*
X012516Y018327D01*
X012576Y018299D01*
X012640Y018283D01*
X012706Y018278D01*
X012778Y018286D01*
X012848Y018308D01*
X012911Y018343D01*
X012967Y018390D01*
X013012Y018447D01*
X013046Y018512D01*
X013066Y018582D01*
X013072Y018654D01*
X013066Y018726D01*
X013045Y018796D01*
X013012Y018860D01*
X012967Y018916D01*
X012911Y018963D01*
X012848Y018997D01*
X012779Y019019D01*
X012707Y019027D01*
X012641Y019022D01*
X012577Y019006D01*
X012517Y018979D01*
X012462Y018942D01*
X012414Y018896D01*
X012376Y018842D01*
X012347Y018782D01*
X012329Y018719D01*
X012322Y018653D01*
X012329Y018587D01*
X012330Y018580D02*
X013065Y018580D01*
X013070Y018629D02*
X012324Y018629D01*
X012324Y018677D02*
X013070Y018677D01*
X013066Y018726D02*
X012331Y018726D01*
X012344Y018774D02*
X013052Y018774D01*
X013031Y018823D02*
X012366Y018823D01*
X012397Y018871D02*
X013003Y018871D01*
X012963Y018920D02*
X012439Y018920D01*
X012501Y018968D02*
X012901Y018968D01*
X012787Y019017D02*
X012619Y019017D01*
X012344Y018532D02*
X013051Y018532D01*
X013031Y018483D02*
X012366Y018483D01*
X012396Y018435D02*
X013002Y018435D01*
X012962Y018386D02*
X012438Y018386D01*
X012500Y018338D02*
X012901Y018338D01*
X012788Y018289D02*
X012616Y018289D01*
X013346Y018523D02*
X013329Y018587D01*
X013322Y018653D01*
X013329Y018719D01*
X013347Y018782D01*
X013376Y018842D01*
X013414Y018896D01*
X013462Y018942D01*
X013517Y018979D01*
X013577Y019006D01*
X013641Y019022D01*
X013707Y019027D01*
X013779Y019019D01*
X013848Y018997D01*
X013911Y018963D01*
X013967Y018916D01*
X014012Y018860D01*
X014045Y018796D01*
X014066Y018726D01*
X014072Y018654D01*
X014066Y018582D01*
X014046Y018512D01*
X014012Y018447D01*
X013967Y018390D01*
X013911Y018343D01*
X013848Y018308D01*
X013778Y018286D01*
X013706Y018278D01*
X013640Y018283D01*
X013576Y018299D01*
X013516Y018327D01*
X013461Y018364D01*
X013414Y018410D01*
X013375Y018464D01*
X013346Y018523D01*
X013344Y018532D02*
X014051Y018532D01*
X014065Y018580D02*
X013330Y018580D01*
X013324Y018629D02*
X014070Y018629D01*
X014070Y018677D02*
X013324Y018677D01*
X013331Y018726D02*
X014066Y018726D01*
X014052Y018774D02*
X013344Y018774D01*
X013366Y018823D02*
X014031Y018823D01*
X014003Y018871D02*
X013397Y018871D01*
X013439Y018920D02*
X013963Y018920D01*
X013901Y018968D02*
X013501Y018968D01*
X013619Y019017D02*
X013787Y019017D01*
X014347Y018782D02*
X014329Y018719D01*
X014322Y018653D01*
X014329Y018587D01*
X014346Y018523D01*
X014375Y018464D01*
X014414Y018410D01*
X014461Y018364D01*
X014516Y018327D01*
X014576Y018299D01*
X014640Y018283D01*
X014706Y018278D01*
X014778Y018286D01*
X014848Y018308D01*
X014911Y018343D01*
X014967Y018390D01*
X015012Y018447D01*
X015046Y018512D01*
X015066Y018582D01*
X015072Y018654D01*
X015066Y018726D01*
X015045Y018796D01*
X015012Y018860D01*
X014967Y018916D01*
X014911Y018963D01*
X014848Y018997D01*
X014779Y019019D01*
X014707Y019027D01*
X014641Y019022D01*
X014577Y019006D01*
X014517Y018979D01*
X014462Y018942D01*
X014414Y018896D01*
X014376Y018842D01*
X014347Y018782D01*
X014344Y018774D02*
X015052Y018774D01*
X015066Y018726D02*
X014331Y018726D01*
X014324Y018677D02*
X015070Y018677D01*
X015070Y018629D02*
X014324Y018629D01*
X014330Y018580D02*
X015065Y018580D01*
X015051Y018532D02*
X014344Y018532D01*
X014366Y018483D02*
X015031Y018483D01*
X015002Y018435D02*
X014396Y018435D01*
X014438Y018386D02*
X014962Y018386D01*
X014901Y018338D02*
X014500Y018338D01*
X014616Y018289D02*
X014788Y018289D01*
X015346Y018523D02*
X015329Y018587D01*
X015322Y018653D01*
X015329Y018719D01*
X015347Y018782D01*
X015376Y018842D01*
X015414Y018896D01*
X015462Y018942D01*
X015517Y018979D01*
X015577Y019006D01*
X015641Y019022D01*
X015707Y019027D01*
X015779Y019019D01*
X015848Y018997D01*
X015911Y018963D01*
X015967Y018916D01*
X016012Y018860D01*
X016045Y018796D01*
X016066Y018726D01*
X016072Y018654D01*
X016066Y018582D01*
X016046Y018512D01*
X016012Y018447D01*
X015967Y018390D01*
X015911Y018343D01*
X015848Y018308D01*
X015778Y018286D01*
X015706Y018278D01*
X015640Y018283D01*
X015576Y018299D01*
X015516Y018327D01*
X015461Y018364D01*
X015414Y018410D01*
X015375Y018464D01*
X015346Y018523D01*
X015344Y018532D02*
X016051Y018532D01*
X016065Y018580D02*
X015330Y018580D01*
X015324Y018629D02*
X016070Y018629D01*
X016070Y018677D02*
X015324Y018677D01*
X015331Y018726D02*
X016066Y018726D01*
X016052Y018774D02*
X015344Y018774D01*
X015366Y018823D02*
X016031Y018823D01*
X016003Y018871D02*
X015397Y018871D01*
X015439Y018920D02*
X015963Y018920D01*
X015901Y018968D02*
X015501Y018968D01*
X015619Y019017D02*
X015787Y019017D01*
X016347Y018782D02*
X016329Y018719D01*
X016322Y018653D01*
X016329Y018587D01*
X016346Y018523D01*
X016375Y018464D01*
X016414Y018410D01*
X016461Y018364D01*
X016516Y018327D01*
X016576Y018299D01*
X016640Y018283D01*
X016706Y018278D01*
X016778Y018286D01*
X016848Y018308D01*
X016911Y018343D01*
X016967Y018390D01*
X017012Y018447D01*
X017046Y018512D01*
X017066Y018582D01*
X017072Y018654D01*
X017066Y018726D01*
X017045Y018796D01*
X017012Y018860D01*
X016967Y018916D01*
X016911Y018963D01*
X016848Y018997D01*
X016779Y019019D01*
X016707Y019027D01*
X016641Y019022D01*
X016577Y019006D01*
X016517Y018979D01*
X016462Y018942D01*
X016414Y018896D01*
X016376Y018842D01*
X016347Y018782D01*
X016344Y018774D02*
X017052Y018774D01*
X017066Y018726D02*
X016331Y018726D01*
X016324Y018677D02*
X017070Y018677D01*
X017070Y018629D02*
X016324Y018629D01*
X016330Y018580D02*
X017065Y018580D01*
X017051Y018532D02*
X016344Y018532D01*
X016366Y018483D02*
X017031Y018483D01*
X017002Y018435D02*
X016396Y018435D01*
X016438Y018386D02*
X016962Y018386D01*
X016901Y018338D02*
X016500Y018338D01*
X016616Y018289D02*
X016788Y018289D01*
X017031Y018823D02*
X016366Y018823D01*
X016397Y018871D02*
X017003Y018871D01*
X016963Y018920D02*
X016439Y018920D01*
X016501Y018968D02*
X016901Y018968D01*
X016787Y019017D02*
X016619Y019017D01*
X016031Y018483D02*
X015366Y018483D01*
X015396Y018435D02*
X016002Y018435D01*
X015962Y018386D02*
X015438Y018386D01*
X015500Y018338D02*
X015901Y018338D01*
X015788Y018289D02*
X015616Y018289D01*
X015031Y018823D02*
X014366Y018823D01*
X014397Y018871D02*
X015003Y018871D01*
X014963Y018920D02*
X014439Y018920D01*
X014501Y018968D02*
X014901Y018968D01*
X014787Y019017D02*
X014619Y019017D01*
X014031Y018483D02*
X013366Y018483D01*
X013396Y018435D02*
X014002Y018435D01*
X013962Y018386D02*
X013438Y018386D01*
X013500Y018338D02*
X013901Y018338D01*
X013788Y018289D02*
X013616Y018289D01*
X013710Y016024D02*
X013644Y016019D01*
X013580Y016003D01*
X013519Y015976D01*
X013465Y015939D01*
X013417Y015893D01*
X013379Y015839D01*
X013350Y015779D01*
X013332Y015716D01*
X013325Y015650D01*
X013332Y015584D01*
X013349Y015520D01*
X013378Y015461D01*
X013417Y015407D01*
X013464Y015361D01*
X013519Y015324D01*
X013579Y015296D01*
X013643Y015280D01*
X013709Y015275D01*
X013781Y015283D01*
X013851Y015305D01*
X013914Y015340D01*
X013970Y015387D01*
X014015Y015444D01*
X014049Y015509D01*
X014069Y015579D01*
X014075Y015651D01*
X014069Y015723D01*
X014048Y015793D01*
X014015Y015857D01*
X013970Y015913D01*
X013914Y015960D01*
X013851Y015994D01*
X013782Y016016D01*
X013710Y016024D01*
X013803Y016010D02*
X013606Y016010D01*
X013498Y015961D02*
X013912Y015961D01*
X013970Y015913D02*
X013438Y015913D01*
X013397Y015864D02*
X014009Y015864D01*
X014036Y015816D02*
X013367Y015816D01*
X013346Y015767D02*
X014056Y015767D01*
X014069Y015719D02*
X013332Y015719D01*
X013327Y015670D02*
X014073Y015670D01*
X014073Y015622D02*
X013328Y015622D01*
X013335Y015573D02*
X014067Y015573D01*
X014053Y015525D02*
X013348Y015525D01*
X013371Y015476D02*
X014032Y015476D01*
X014002Y015428D02*
X013402Y015428D01*
X013445Y015379D02*
X013960Y015379D01*
X013897Y015331D02*
X013508Y015331D01*
X013635Y015282D02*
X013772Y015282D01*
X014349Y015520D02*
X014332Y015584D01*
X014325Y015650D01*
X014332Y015716D01*
X014350Y015779D01*
X014379Y015839D01*
X014417Y015893D01*
X014465Y015939D01*
X014519Y015976D01*
X014580Y016003D01*
X014644Y016019D01*
X014710Y016024D01*
X014782Y016016D01*
X014851Y015994D01*
X014914Y015960D01*
X014970Y015913D01*
X015015Y015857D01*
X015048Y015793D01*
X015069Y015723D01*
X015075Y015651D01*
X015069Y015579D01*
X015049Y015509D01*
X015015Y015444D01*
X014970Y015387D01*
X014914Y015340D01*
X014851Y015305D01*
X014781Y015283D01*
X014709Y015275D01*
X014643Y015280D01*
X014579Y015296D01*
X014519Y015324D01*
X014464Y015361D01*
X014417Y015407D01*
X014378Y015461D01*
X014349Y015520D01*
X014348Y015525D02*
X015053Y015525D01*
X015067Y015573D02*
X014335Y015573D01*
X014328Y015622D02*
X015073Y015622D01*
X015073Y015670D02*
X014327Y015670D01*
X014332Y015719D02*
X015069Y015719D01*
X015056Y015767D02*
X014346Y015767D01*
X014367Y015816D02*
X015036Y015816D01*
X015009Y015864D02*
X014397Y015864D01*
X014438Y015913D02*
X014970Y015913D01*
X014912Y015961D02*
X014498Y015961D01*
X014606Y016010D02*
X014803Y016010D01*
X015350Y015779D02*
X015332Y015716D01*
X015325Y015650D01*
X015332Y015584D01*
X015349Y015520D01*
X015378Y015461D01*
X015417Y015407D01*
X015464Y015361D01*
X015519Y015324D01*
X015579Y015296D01*
X015643Y015280D01*
X015709Y015275D01*
X015781Y015283D01*
X015851Y015305D01*
X015914Y015340D01*
X015970Y015387D01*
X016015Y015444D01*
X016049Y015509D01*
X016069Y015579D01*
X016075Y015651D01*
X016069Y015723D01*
X016048Y015793D01*
X016015Y015857D01*
X015970Y015913D01*
X015914Y015960D01*
X015851Y015994D01*
X015782Y016016D01*
X015710Y016024D01*
X015644Y016019D01*
X015580Y016003D01*
X015519Y015976D01*
X015465Y015939D01*
X015417Y015893D01*
X015379Y015839D01*
X015350Y015779D01*
X015346Y015767D02*
X016056Y015767D01*
X016069Y015719D02*
X015332Y015719D01*
X015327Y015670D02*
X016073Y015670D01*
X016073Y015622D02*
X015328Y015622D01*
X015335Y015573D02*
X016067Y015573D01*
X016053Y015525D02*
X015348Y015525D01*
X015371Y015476D02*
X016032Y015476D01*
X016002Y015428D02*
X015402Y015428D01*
X015445Y015379D02*
X015960Y015379D01*
X015897Y015331D02*
X015508Y015331D01*
X015635Y015282D02*
X015772Y015282D01*
X016349Y015520D02*
X016332Y015584D01*
X016325Y015650D01*
X016332Y015716D01*
X016350Y015779D01*
X016379Y015839D01*
X016417Y015893D01*
X016465Y015939D01*
X016519Y015976D01*
X016580Y016003D01*
X016644Y016019D01*
X016710Y016024D01*
X016782Y016016D01*
X016851Y015994D01*
X016914Y015960D01*
X016970Y015913D01*
X017015Y015857D01*
X017048Y015793D01*
X017069Y015723D01*
X017075Y015651D01*
X017069Y015579D01*
X017049Y015509D01*
X017015Y015444D01*
X016970Y015387D01*
X016914Y015340D01*
X016851Y015305D01*
X016781Y015283D01*
X016709Y015275D01*
X016643Y015280D01*
X016579Y015296D01*
X016519Y015324D01*
X016464Y015361D01*
X016417Y015407D01*
X016378Y015461D01*
X016349Y015520D01*
X016348Y015525D02*
X017053Y015525D01*
X017067Y015573D02*
X016335Y015573D01*
X016328Y015622D02*
X017073Y015622D01*
X017073Y015670D02*
X016327Y015670D01*
X016332Y015719D02*
X017069Y015719D01*
X017056Y015767D02*
X016346Y015767D01*
X016367Y015816D02*
X017036Y015816D01*
X017009Y015864D02*
X016397Y015864D01*
X016438Y015913D02*
X016970Y015913D01*
X016912Y015961D02*
X016498Y015961D01*
X016606Y016010D02*
X016803Y016010D01*
X017032Y015476D02*
X016371Y015476D01*
X016402Y015428D02*
X017002Y015428D01*
X016960Y015379D02*
X016445Y015379D01*
X016508Y015331D02*
X016897Y015331D01*
X016772Y015282D02*
X016635Y015282D01*
X016036Y015816D02*
X015367Y015816D01*
X015397Y015864D02*
X016009Y015864D01*
X015970Y015913D02*
X015438Y015913D01*
X015498Y015961D02*
X015912Y015961D01*
X015803Y016010D02*
X015606Y016010D01*
X015032Y015476D02*
X014371Y015476D01*
X014402Y015428D02*
X015002Y015428D01*
X014960Y015379D02*
X014445Y015379D01*
X014508Y015331D02*
X014897Y015331D01*
X014772Y015282D02*
X014635Y015282D01*
X013069Y015579D02*
X013049Y015509D01*
X013015Y015444D01*
X012970Y015387D01*
X012914Y015340D01*
X012851Y015305D01*
X012781Y015283D01*
X012709Y015275D01*
X012643Y015280D01*
X012579Y015296D01*
X012519Y015324D01*
X012464Y015361D01*
X012417Y015407D01*
X012378Y015461D01*
X012349Y015520D01*
X012332Y015584D01*
X012325Y015650D01*
X012332Y015716D01*
X012350Y015779D01*
X012379Y015839D01*
X012417Y015893D01*
X012465Y015939D01*
X012519Y015976D01*
X012580Y016003D01*
X012644Y016019D01*
X012710Y016024D01*
X012782Y016016D01*
X012851Y015994D01*
X012914Y015960D01*
X012970Y015913D01*
X013015Y015857D01*
X013048Y015793D01*
X013069Y015723D01*
X013075Y015651D01*
X013069Y015579D01*
X013067Y015573D02*
X012335Y015573D01*
X012328Y015622D02*
X013073Y015622D01*
X013073Y015670D02*
X012327Y015670D01*
X012332Y015719D02*
X013069Y015719D01*
X013056Y015767D02*
X012346Y015767D01*
X012367Y015816D02*
X013036Y015816D01*
X013009Y015864D02*
X012397Y015864D01*
X012438Y015913D02*
X012970Y015913D01*
X012912Y015961D02*
X012498Y015961D01*
X012606Y016010D02*
X012803Y016010D01*
X013053Y015525D02*
X012348Y015525D01*
X012371Y015476D02*
X013032Y015476D01*
X013002Y015428D02*
X012402Y015428D01*
X012445Y015379D02*
X012960Y015379D01*
X012897Y015331D02*
X012508Y015331D01*
X012635Y015282D02*
X012772Y015282D01*
X012707Y006027D02*
X012641Y006022D01*
X012577Y006006D01*
X012517Y005979D01*
X012462Y005942D01*
X012414Y005896D01*
X012376Y005842D01*
X012347Y005782D01*
X012329Y005719D01*
X012322Y005653D01*
X012329Y005587D01*
X012346Y005523D01*
X012375Y005464D01*
X012414Y005410D01*
X012461Y005364D01*
X012516Y005327D01*
X012576Y005299D01*
X012640Y005283D01*
X012706Y005278D01*
X012778Y005286D01*
X012848Y005308D01*
X012911Y005343D01*
X012967Y005390D01*
X013012Y005447D01*
X013046Y005512D01*
X013066Y005582D01*
X012330Y005582D01*
X012324Y005631D02*
X013070Y005631D01*
X013072Y005654D02*
X013066Y005726D01*
X013045Y005796D01*
X013012Y005860D01*
X012967Y005916D01*
X012911Y005963D01*
X012848Y005997D01*
X012779Y006019D01*
X012707Y006027D01*
X012781Y006019D02*
X012626Y006019D01*
X012503Y005970D02*
X012898Y005970D01*
X012960Y005922D02*
X012441Y005922D01*
X012398Y005873D02*
X013001Y005873D01*
X013030Y005825D02*
X012367Y005825D01*
X012345Y005776D02*
X013051Y005776D01*
X013065Y005728D02*
X012331Y005728D01*
X012325Y005679D02*
X013070Y005679D01*
X013072Y005654D02*
X013066Y005582D01*
X013052Y005534D02*
X012344Y005534D01*
X012365Y005485D02*
X013032Y005485D01*
X013004Y005437D02*
X012395Y005437D01*
X012436Y005388D02*
X012964Y005388D01*
X012904Y005340D02*
X012497Y005340D01*
X012609Y005291D02*
X012794Y005291D01*
X013346Y005523D02*
X013329Y005587D01*
X013322Y005653D01*
X013329Y005719D01*
X013347Y005782D01*
X013376Y005842D01*
X013414Y005896D01*
X013462Y005942D01*
X013517Y005979D01*
X013577Y006006D01*
X013641Y006022D01*
X013707Y006027D01*
X013779Y006019D01*
X013848Y005997D01*
X013911Y005963D01*
X013967Y005916D01*
X014012Y005860D01*
X014045Y005796D01*
X014066Y005726D01*
X014072Y005654D01*
X014066Y005582D01*
X013330Y005582D01*
X013324Y005631D02*
X014070Y005631D01*
X014070Y005679D02*
X013325Y005679D01*
X013331Y005728D02*
X014065Y005728D01*
X014051Y005776D02*
X013345Y005776D01*
X013367Y005825D02*
X014030Y005825D01*
X014001Y005873D02*
X013398Y005873D01*
X013441Y005922D02*
X013960Y005922D01*
X013898Y005970D02*
X013503Y005970D01*
X013626Y006019D02*
X013781Y006019D01*
X014066Y005582D02*
X014046Y005512D01*
X014012Y005447D01*
X013967Y005390D01*
X013911Y005343D01*
X013848Y005308D01*
X013778Y005286D01*
X013706Y005278D01*
X013640Y005283D01*
X013576Y005299D01*
X013516Y005327D01*
X013461Y005364D01*
X013414Y005410D01*
X013375Y005464D01*
X013346Y005523D01*
X013344Y005534D02*
X014052Y005534D01*
X014032Y005485D02*
X013365Y005485D01*
X013395Y005437D02*
X014004Y005437D01*
X013964Y005388D02*
X013436Y005388D01*
X013497Y005340D02*
X013904Y005340D01*
X013794Y005291D02*
X013609Y005291D01*
X014346Y005523D02*
X014329Y005587D01*
X014322Y005653D01*
X014329Y005719D01*
X014347Y005782D01*
X014376Y005842D01*
X014414Y005896D01*
X014462Y005942D01*
X014517Y005979D01*
X014577Y006006D01*
X014641Y006022D01*
X014707Y006027D01*
X014779Y006019D01*
X014848Y005997D01*
X014911Y005963D01*
X014967Y005916D01*
X015012Y005860D01*
X015045Y005796D01*
X015066Y005726D01*
X015072Y005654D01*
X015066Y005582D01*
X014330Y005582D01*
X014324Y005631D02*
X015070Y005631D01*
X015070Y005679D02*
X014325Y005679D01*
X014331Y005728D02*
X015065Y005728D01*
X015051Y005776D02*
X014345Y005776D01*
X014367Y005825D02*
X015030Y005825D01*
X015001Y005873D02*
X014398Y005873D01*
X014441Y005922D02*
X014960Y005922D01*
X014898Y005970D02*
X014503Y005970D01*
X014626Y006019D02*
X014781Y006019D01*
X015066Y005582D02*
X015046Y005512D01*
X015012Y005447D01*
X014967Y005390D01*
X014911Y005343D01*
X014848Y005308D01*
X014778Y005286D01*
X014706Y005278D01*
X014640Y005283D01*
X014576Y005299D01*
X014516Y005327D01*
X014461Y005364D01*
X014414Y005410D01*
X014375Y005464D01*
X014346Y005523D01*
X014344Y005534D02*
X015052Y005534D01*
X015032Y005485D02*
X014365Y005485D01*
X014395Y005437D02*
X015004Y005437D01*
X014964Y005388D02*
X014436Y005388D01*
X014497Y005340D02*
X014904Y005340D01*
X014794Y005291D02*
X014609Y005291D01*
X015346Y005523D02*
X015329Y005587D01*
X015322Y005653D01*
X015329Y005719D01*
X015347Y005782D01*
X015376Y005842D01*
X015414Y005896D01*
X015462Y005942D01*
X015517Y005979D01*
X015577Y006006D01*
X015641Y006022D01*
X015707Y006027D01*
X015779Y006019D01*
X015848Y005997D01*
X015911Y005963D01*
X015967Y005916D01*
X016012Y005860D01*
X016045Y005796D01*
X016066Y005726D01*
X016072Y005654D01*
X016066Y005582D01*
X015330Y005582D01*
X015324Y005631D02*
X016070Y005631D01*
X016070Y005679D02*
X015325Y005679D01*
X015331Y005728D02*
X016065Y005728D01*
X016051Y005776D02*
X015345Y005776D01*
X015367Y005825D02*
X016030Y005825D01*
X016001Y005873D02*
X015398Y005873D01*
X015441Y005922D02*
X015960Y005922D01*
X015898Y005970D02*
X015503Y005970D01*
X015626Y006019D02*
X015781Y006019D01*
X016066Y005582D02*
X016046Y005512D01*
X016012Y005447D01*
X015967Y005390D01*
X015911Y005343D01*
X015848Y005308D01*
X015778Y005286D01*
X015706Y005278D01*
X015640Y005283D01*
X015576Y005299D01*
X015516Y005327D01*
X015461Y005364D01*
X015414Y005410D01*
X015375Y005464D01*
X015346Y005523D01*
X015344Y005534D02*
X016052Y005534D01*
X016032Y005485D02*
X015365Y005485D01*
X015395Y005437D02*
X016004Y005437D01*
X015964Y005388D02*
X015436Y005388D01*
X015497Y005340D02*
X015904Y005340D01*
X015794Y005291D02*
X015609Y005291D01*
X015710Y003024D02*
X015782Y003016D01*
X015851Y002994D01*
X015914Y002960D01*
X015970Y002913D01*
X016015Y002857D01*
X016048Y002793D01*
X016069Y002723D01*
X016075Y002651D01*
X016069Y002579D01*
X016049Y002509D01*
X016015Y002444D01*
X015970Y002387D01*
X015914Y002340D01*
X015851Y002305D01*
X015781Y002283D01*
X015709Y002275D01*
X015643Y002280D01*
X015579Y002296D01*
X015519Y002324D01*
X015464Y002361D01*
X015417Y002407D01*
X015378Y002461D01*
X015349Y002520D01*
X015332Y002584D01*
X015325Y002650D01*
X015332Y002716D01*
X015350Y002779D01*
X015379Y002839D01*
X015417Y002893D01*
X015465Y002939D01*
X015519Y002976D01*
X015580Y003003D01*
X015644Y003019D01*
X015710Y003024D01*
X015797Y003012D02*
X015614Y003012D01*
X015500Y002963D02*
X015908Y002963D01*
X015968Y002915D02*
X015440Y002915D01*
X015398Y002866D02*
X016008Y002866D01*
X016035Y002818D02*
X015368Y002818D01*
X015347Y002769D02*
X016055Y002769D01*
X016069Y002721D02*
X015333Y002721D01*
X015327Y002672D02*
X016073Y002672D01*
X016073Y002624D02*
X015328Y002624D01*
X015334Y002575D02*
X016068Y002575D01*
X016054Y002527D02*
X015348Y002527D01*
X015370Y002478D02*
X016033Y002478D01*
X016004Y002430D02*
X015401Y002430D01*
X015443Y002381D02*
X015963Y002381D01*
X015900Y002333D02*
X015506Y002333D01*
X015627Y002284D02*
X015784Y002284D01*
X015049Y002509D02*
X015015Y002444D01*
X014970Y002387D01*
X014914Y002340D01*
X014851Y002305D01*
X014781Y002283D01*
X014709Y002275D01*
X014643Y002280D01*
X014579Y002296D01*
X014519Y002324D01*
X014464Y002361D01*
X014417Y002407D01*
X014378Y002461D01*
X014349Y002520D01*
X014332Y002584D01*
X014325Y002650D01*
X014332Y002716D01*
X014350Y002779D01*
X014379Y002839D01*
X014417Y002893D01*
X014465Y002939D01*
X014519Y002976D01*
X014580Y003003D01*
X014644Y003019D01*
X014710Y003024D01*
X014782Y003016D01*
X014851Y002994D01*
X014914Y002960D01*
X014970Y002913D01*
X015015Y002857D01*
X015048Y002793D01*
X015069Y002723D01*
X015075Y002651D01*
X015069Y002579D01*
X015049Y002509D01*
X015054Y002527D02*
X014348Y002527D01*
X014334Y002575D02*
X015068Y002575D01*
X015073Y002624D02*
X014328Y002624D01*
X014327Y002672D02*
X015073Y002672D01*
X015069Y002721D02*
X014333Y002721D01*
X014347Y002769D02*
X015055Y002769D01*
X015035Y002818D02*
X014368Y002818D01*
X014398Y002866D02*
X015008Y002866D01*
X014968Y002915D02*
X014440Y002915D01*
X014500Y002963D02*
X014908Y002963D01*
X014797Y003012D02*
X014614Y003012D01*
X014048Y002793D02*
X014069Y002723D01*
X014075Y002651D01*
X014069Y002579D01*
X014049Y002509D01*
X014015Y002444D01*
X013970Y002387D01*
X013914Y002340D01*
X013851Y002305D01*
X013781Y002283D01*
X013709Y002275D01*
X013643Y002280D01*
X013579Y002296D01*
X013519Y002324D01*
X013464Y002361D01*
X013417Y002407D01*
X013378Y002461D01*
X013349Y002520D01*
X013332Y002584D01*
X013325Y002650D01*
X013332Y002716D01*
X013350Y002779D01*
X013379Y002839D01*
X013417Y002893D01*
X013465Y002939D01*
X013519Y002976D01*
X013580Y003003D01*
X013644Y003019D01*
X013710Y003024D01*
X013782Y003016D01*
X013851Y002994D01*
X013914Y002960D01*
X013970Y002913D01*
X014015Y002857D01*
X014048Y002793D01*
X014055Y002769D02*
X013347Y002769D01*
X013333Y002721D02*
X014069Y002721D01*
X014073Y002672D02*
X013327Y002672D01*
X013328Y002624D02*
X014073Y002624D01*
X014068Y002575D02*
X013334Y002575D01*
X013348Y002527D02*
X014054Y002527D01*
X014033Y002478D02*
X013370Y002478D01*
X013401Y002430D02*
X014004Y002430D01*
X013963Y002381D02*
X013443Y002381D01*
X013506Y002333D02*
X013900Y002333D01*
X013784Y002284D02*
X013627Y002284D01*
X013049Y002509D02*
X013069Y002579D01*
X013075Y002651D01*
X013069Y002723D01*
X013048Y002793D01*
X013015Y002857D01*
X012970Y002913D01*
X012914Y002960D01*
X012851Y002994D01*
X012782Y003016D01*
X012710Y003024D01*
X012644Y003019D01*
X012580Y003003D01*
X012519Y002976D01*
X012465Y002939D01*
X012417Y002893D01*
X012379Y002839D01*
X012350Y002779D01*
X012332Y002716D01*
X012325Y002650D01*
X012332Y002584D01*
X012349Y002520D01*
X012378Y002461D01*
X012417Y002407D01*
X012464Y002361D01*
X012519Y002324D01*
X012579Y002296D01*
X012643Y002280D01*
X012709Y002275D01*
X012781Y002283D01*
X012851Y002305D01*
X012914Y002340D01*
X012970Y002387D01*
X013015Y002444D01*
X013049Y002509D01*
X013054Y002527D02*
X012348Y002527D01*
X012334Y002575D02*
X013068Y002575D01*
X013073Y002624D02*
X012328Y002624D01*
X012327Y002672D02*
X013073Y002672D01*
X013069Y002721D02*
X012333Y002721D01*
X012347Y002769D02*
X013055Y002769D01*
X013035Y002818D02*
X012368Y002818D01*
X012398Y002866D02*
X013008Y002866D01*
X012968Y002915D02*
X012440Y002915D01*
X012500Y002963D02*
X012908Y002963D01*
X012797Y003012D02*
X012614Y003012D01*
X012370Y002478D02*
X013033Y002478D01*
X013004Y002430D02*
X012401Y002430D01*
X012443Y002381D02*
X012963Y002381D01*
X012900Y002333D02*
X012506Y002333D01*
X012627Y002284D02*
X012784Y002284D01*
X013368Y002818D02*
X014035Y002818D01*
X014008Y002866D02*
X013398Y002866D01*
X013440Y002915D02*
X013968Y002915D01*
X013908Y002963D02*
X013500Y002963D01*
X013614Y003012D02*
X013797Y003012D01*
X014370Y002478D02*
X015033Y002478D01*
X015004Y002430D02*
X014401Y002430D01*
X014443Y002381D02*
X014963Y002381D01*
X014900Y002333D02*
X014506Y002333D01*
X014627Y002284D02*
X014784Y002284D01*
M02*
