%
M48
M72
T01C0.0315
T02C0.0354
T03C0.0400
T04C0.0591
%
T01
X17113Y11550
X18687Y11550
T02
X4200Y3642
X5200Y3642
X6200Y3642
X7200Y3642
X8200Y3642
X8200Y17658
X7200Y17658
X6200Y17658
X5200Y17658
X4200Y17658
T03
X4200Y20150
X3200Y20150
X2200Y20150
X5200Y20150
X6200Y20150
X7200Y20150
X8200Y20150
X9200Y20150
X10800Y20150
X11800Y20150
X12800Y20150
X13800Y20150
X14800Y20150
X15800Y20150
X16800Y20150
X17800Y20150
X16700Y18650
X15700Y18650
X14700Y18650
X13700Y18650
X12700Y18650
X12700Y15650
X13700Y15650
X14700Y15650
X15700Y15650
X16700Y15650
X15700Y5650
X14700Y5650
X13700Y5650
X12700Y5650
X12700Y2650
X13700Y2650
X14700Y2650
X15700Y2650
X15800Y1150
X14800Y1150
X13800Y1150
X12800Y1150
X10800Y1150
X9800Y1150
X8800Y1150
X7800Y1150
X6800Y1150
X5800Y1150
X16800Y1150
X17800Y1150
T04
X18550Y3681
X18550Y5650
X18550Y7619
M30
